ISO-10303-21;
HEADER;
FILE_DESCRIPTION(('Open CASCADE Model'),'2;1');
FILE_NAME('Open CASCADE Shape Model','2026-09-27T20:17:34',('Author'),(
    'Open CASCADE'),'Open CASCADE STEP processor 7.9','Open CASCADE 7.9'
  ,'Unknown');
FILE_SCHEMA(('AUTOMOTIVE_DESIGN { 1 0 10303 214 1 1 1 1 }'));
ENDSEC;
DATA;
#1 = APPLICATION_PROTOCOL_DEFINITION('international standard',
  'automotive_design',2000,#2);
#2 = APPLICATION_CONTEXT(
  'core data for automotive mechanical design processes');
#3 = SHAPE_DEFINITION_REPRESENTATION(#4,#10);
#4 = PRODUCT_DEFINITION_SHAPE('','',#5);
#5 = PRODUCT_DEFINITION('design','',#6,#9);
#6 = PRODUCT_DEFINITION_FORMATION('','',#7);
#7 = PRODUCT('Open CASCADE STEP translator 7.9 5',
  'Open CASCADE STEP translator 7.9 5','',(#8));
#8 = PRODUCT_CONTEXT('',#2,'mechanical');
#9 = PRODUCT_DEFINITION_CONTEXT('part definition',#2,'design');
#10 = ADVANCED_BREP_SHAPE_REPRESENTATION('',(#11,#15),#1379);
#11 = AXIS2_PLACEMENT_3D('',#12,#13,#14);
#12 = CARTESIAN_POINT('',(0.,0.,0.));
#13 = DIRECTION('',(0.,0.,1.));
#14 = DIRECTION('',(1.,0.,-0.));
#15 = MANIFOLD_SOLID_BREP('',#16);
#16 = CLOSED_SHELL('',(#17,#305,#442,#497,#552,#636,#691,#741,#810,#857,
    #904,#929,#1164,#1271,#1318,#1345,#1372));
#17 = ADVANCED_FACE('',(#18,#137,#168,#199),#32,.F.);
#18 = FACE_BOUND('',#19,.F.);
#19 = EDGE_LOOP('',(#20,#55,#83,#111));
#20 = ORIENTED_EDGE('',*,*,#21,.F.);
#21 = EDGE_CURVE('',#22,#24,#26,.T.);
#22 = VERTEX_POINT('',#23);
#23 = CARTESIAN_POINT('',(189.5,31.9,-15.75));
#24 = VERTEX_POINT('',#25);
#25 = CARTESIAN_POINT('',(189.5,31.9,26.55));
#26 = SURFACE_CURVE('',#27,(#31,#43),.PCURVE_S1.);
#27 = LINE('',#28,#29);
#28 = CARTESIAN_POINT('',(189.5,31.9,-15.75));
#29 = VECTOR('',#30,1.);
#30 = DIRECTION('',(0.,0.,1.));
#31 = PCURVE('',#32,#37);
#32 = PLANE('',#33);
#33 = AXIS2_PLACEMENT_3D('',#34,#35,#36);
#34 = CARTESIAN_POINT('',(189.5,31.9,-15.75));
#35 = DIRECTION('',(1.,0.,-0.));
#36 = DIRECTION('',(0.,0.,1.));
#37 = DEFINITIONAL_REPRESENTATION('',(#38),#42);
#38 = LINE('',#39,#40);
#39 = CARTESIAN_POINT('',(0.,0.));
#40 = VECTOR('',#41,1.);
#41 = DIRECTION('',(1.,0.));
#42 = ( GEOMETRIC_REPRESENTATION_CONTEXT(2) 
PARAMETRIC_REPRESENTATION_CONTEXT() REPRESENTATION_CONTEXT('2D SPACE',''
  ) );
#43 = PCURVE('',#44,#49);
#44 = PLANE('',#45);
#45 = AXIS2_PLACEMENT_3D('',#46,#47,#48);
#46 = CARTESIAN_POINT('',(189.5,31.9,-15.75));
#47 = DIRECTION('',(-0.,1.,0.));
#48 = DIRECTION('',(0.,0.,1.));
#49 = DEFINITIONAL_REPRESENTATION('',(#50),#54);
#50 = LINE('',#51,#52);
#51 = CARTESIAN_POINT('',(0.,0.));
#52 = VECTOR('',#53,1.);
#53 = DIRECTION('',(1.,0.));
#54 = ( GEOMETRIC_REPRESENTATION_CONTEXT(2) 
PARAMETRIC_REPRESENTATION_CONTEXT() REPRESENTATION_CONTEXT('2D SPACE',''
  ) );
#55 = ORIENTED_EDGE('',*,*,#56,.T.);
#56 = EDGE_CURVE('',#22,#57,#59,.T.);
#57 = VERTEX_POINT('',#58);
#58 = CARTESIAN_POINT('',(189.5,56.1,-15.75));
#59 = SURFACE_CURVE('',#60,(#64,#71),.PCURVE_S1.);
#60 = LINE('',#61,#62);
#61 = CARTESIAN_POINT('',(189.5,31.9,-15.75));
#62 = VECTOR('',#63,1.);
#63 = DIRECTION('',(-0.,1.,0.));
#64 = PCURVE('',#32,#65);
#65 = DEFINITIONAL_REPRESENTATION('',(#66),#70);
#66 = LINE('',#67,#68);
#67 = CARTESIAN_POINT('',(0.,0.));
#68 = VECTOR('',#69,1.);
#69 = DIRECTION('',(0.,-1.));
#70 = ( GEOMETRIC_REPRESENTATION_CONTEXT(2) 
PARAMETRIC_REPRESENTATION_CONTEXT() REPRESENTATION_CONTEXT('2D SPACE',''
  ) );
#71 = PCURVE('',#72,#77);
#72 = PLANE('',#73);
#73 = AXIS2_PLACEMENT_3D('',#74,#75,#76);
#74 = CARTESIAN_POINT('',(189.5,31.9,-15.75));
#75 = DIRECTION('',(0.,0.,1.));
#76 = DIRECTION('',(1.,0.,-0.));
#77 = DEFINITIONAL_REPRESENTATION('',(#78),#82);
#78 = LINE('',#79,#80);
#79 = CARTESIAN_POINT('',(0.,0.));
#80 = VECTOR('',#81,1.);
#81 = DIRECTION('',(0.,1.));
#82 = ( GEOMETRIC_REPRESENTATION_CONTEXT(2) 
PARAMETRIC_REPRESENTATION_CONTEXT() REPRESENTATION_CONTEXT('2D SPACE',''
  ) );
#83 = ORIENTED_EDGE('',*,*,#84,.T.);
#84 = EDGE_CURVE('',#57,#85,#87,.T.);
#85 = VERTEX_POINT('',#86);
#86 = CARTESIAN_POINT('',(189.5,56.1,26.55));
#87 = SURFACE_CURVE('',#88,(#92,#99),.PCURVE_S1.);
#88 = LINE('',#89,#90);
#89 = CARTESIAN_POINT('',(189.5,56.1,-15.75));
#90 = VECTOR('',#91,1.);
#91 = DIRECTION('',(0.,0.,1.));
#92 = PCURVE('',#32,#93);
#93 = DEFINITIONAL_REPRESENTATION('',(#94),#98);
#94 = LINE('',#95,#96);
#95 = CARTESIAN_POINT('',(0.,-24.2));
#96 = VECTOR('',#97,1.);
#97 = DIRECTION('',(1.,0.));
#98 = ( GEOMETRIC_REPRESENTATION_CONTEXT(2) 
PARAMETRIC_REPRESENTATION_CONTEXT() REPRESENTATION_CONTEXT('2D SPACE',''
  ) );
#99 = PCURVE('',#100,#105);
#100 = PLANE('',#101);
#101 = AXIS2_PLACEMENT_3D('',#102,#103,#104);
#102 = CARTESIAN_POINT('',(189.5,56.1,-15.75));
#103 = DIRECTION('',(-0.,1.,0.));
#104 = DIRECTION('',(0.,0.,1.));
#105 = DEFINITIONAL_REPRESENTATION('',(#106),#110);
#106 = LINE('',#107,#108);
#107 = CARTESIAN_POINT('',(0.,0.));
#108 = VECTOR('',#109,1.);
#109 = DIRECTION('',(1.,0.));
#110 = ( GEOMETRIC_REPRESENTATION_CONTEXT(2) 
PARAMETRIC_REPRESENTATION_CONTEXT() REPRESENTATION_CONTEXT('2D SPACE',''
  ) );
#111 = ORIENTED_EDGE('',*,*,#112,.F.);
#112 = EDGE_CURVE('',#24,#85,#113,.T.);
#113 = SURFACE_CURVE('',#114,(#118,#125),.PCURVE_S1.);
#114 = LINE('',#115,#116);
#115 = CARTESIAN_POINT('',(189.5,31.9,26.55));
#116 = VECTOR('',#117,1.);
#117 = DIRECTION('',(-0.,1.,0.));
#118 = PCURVE('',#32,#119);
#119 = DEFINITIONAL_REPRESENTATION('',(#120),#124);
#120 = LINE('',#121,#122);
#121 = CARTESIAN_POINT('',(42.3,0.));
#122 = VECTOR('',#123,1.);
#123 = DIRECTION('',(0.,-1.));
#124 = ( GEOMETRIC_REPRESENTATION_CONTEXT(2) 
PARAMETRIC_REPRESENTATION_CONTEXT() REPRESENTATION_CONTEXT('2D SPACE',''
  ) );
#125 = PCURVE('',#126,#131);
#126 = PLANE('',#127);
#127 = AXIS2_PLACEMENT_3D('',#128,#129,#130);
#128 = CARTESIAN_POINT('',(189.5,31.9,26.55));
#129 = DIRECTION('',(0.,0.,1.));
#130 = DIRECTION('',(1.,0.,-0.));
#131 = DEFINITIONAL_REPRESENTATION('',(#132),#136);
#132 = LINE('',#133,#134);
#133 = CARTESIAN_POINT('',(0.,0.));
#134 = VECTOR('',#135,1.);
#135 = DIRECTION('',(0.,1.));
#136 = ( GEOMETRIC_REPRESENTATION_CONTEXT(2) 
PARAMETRIC_REPRESENTATION_CONTEXT() REPRESENTATION_CONTEXT('2D SPACE',''
  ) );
#137 = FACE_BOUND('',#138,.F.);
#138 = EDGE_LOOP('',(#139));
#139 = ORIENTED_EDGE('',*,*,#140,.F.);
#140 = EDGE_CURVE('',#141,#141,#143,.T.);
#141 = VERTEX_POINT('',#142);
#142 = CARTESIAN_POINT('',(189.5,44.,-7.7));
#143 = SURFACE_CURVE('',#144,(#149,#156),.PCURVE_S1.);
#144 = CIRCLE('',#145,0.8);
#145 = AXIS2_PLACEMENT_3D('',#146,#147,#148);
#146 = CARTESIAN_POINT('',(189.5,44.,-8.5));
#147 = DIRECTION('',(1.,0.,0.));
#148 = DIRECTION('',(-0.,0.,1.));
#149 = PCURVE('',#32,#150);
#150 = DEFINITIONAL_REPRESENTATION('',(#151),#155);
#151 = CIRCLE('',#152,0.8);
#152 = AXIS2_PLACEMENT_2D('',#153,#154);
#153 = CARTESIAN_POINT('',(7.25,-12.1));
#154 = DIRECTION('',(1.,0.));
#155 = ( GEOMETRIC_REPRESENTATION_CONTEXT(2) 
PARAMETRIC_REPRESENTATION_CONTEXT() REPRESENTATION_CONTEXT('2D SPACE',''
  ) );
#156 = PCURVE('',#157,#162);
#157 = CYLINDRICAL_SURFACE('',#158,0.8);
#158 = AXIS2_PLACEMENT_3D('',#159,#160,#161);
#159 = CARTESIAN_POINT('',(184.5,44.,-8.5));
#160 = DIRECTION('',(1.,0.,0.));
#161 = DIRECTION('',(-0.,0.,1.));
#162 = DEFINITIONAL_REPRESENTATION('',(#163),#167);
#163 = LINE('',#164,#165);
#164 = CARTESIAN_POINT('',(0.,5.));
#165 = VECTOR('',#166,1.);
#166 = DIRECTION('',(1.,0.));
#167 = ( GEOMETRIC_REPRESENTATION_CONTEXT(2) 
PARAMETRIC_REPRESENTATION_CONTEXT() REPRESENTATION_CONTEXT('2D SPACE',''
  ) );
#168 = FACE_BOUND('',#169,.F.);
#169 = EDGE_LOOP('',(#170));
#170 = ORIENTED_EDGE('',*,*,#171,.F.);
#171 = EDGE_CURVE('',#172,#172,#174,.T.);
#172 = VERTEX_POINT('',#173);
#173 = CARTESIAN_POINT('',(189.5,44.,20.1));
#174 = SURFACE_CURVE('',#175,(#180,#187),.PCURVE_S1.);
#175 = CIRCLE('',#176,0.8);
#176 = AXIS2_PLACEMENT_3D('',#177,#178,#179);
#177 = CARTESIAN_POINT('',(189.5,44.,19.3));
#178 = DIRECTION('',(1.,0.,0.));
#179 = DIRECTION('',(-0.,0.,1.));
#180 = PCURVE('',#32,#181);
#181 = DEFINITIONAL_REPRESENTATION('',(#182),#186);
#182 = CIRCLE('',#183,0.8);
#183 = AXIS2_PLACEMENT_2D('',#184,#185);
#184 = CARTESIAN_POINT('',(35.05,-12.1));
#185 = DIRECTION('',(1.,0.));
#186 = ( GEOMETRIC_REPRESENTATION_CONTEXT(2) 
PARAMETRIC_REPRESENTATION_CONTEXT() REPRESENTATION_CONTEXT('2D SPACE',''
  ) );
#187 = PCURVE('',#188,#193);
#188 = CYLINDRICAL_SURFACE('',#189,0.8);
#189 = AXIS2_PLACEMENT_3D('',#190,#191,#192);
#190 = CARTESIAN_POINT('',(184.5,44.,19.3));
#191 = DIRECTION('',(1.,0.,0.));
#192 = DIRECTION('',(-0.,0.,1.));
#193 = DEFINITIONAL_REPRESENTATION('',(#194),#198);
#194 = LINE('',#195,#196);
#195 = CARTESIAN_POINT('',(0.,5.));
#196 = VECTOR('',#197,1.);
#197 = DIRECTION('',(1.,0.));
#198 = ( GEOMETRIC_REPRESENTATION_CONTEXT(2) 
PARAMETRIC_REPRESENTATION_CONTEXT() REPRESENTATION_CONTEXT('2D SPACE',''
  ) );
#199 = FACE_BOUND('',#200,.F.);
#200 = EDGE_LOOP('',(#201,#229,#255,#281));
#201 = ORIENTED_EDGE('',*,*,#202,.T.);
#202 = EDGE_CURVE('',#203,#205,#207,.T.);
#203 = VERTEX_POINT('',#204);
#204 = CARTESIAN_POINT('',(189.5,50.3,-6.2));
#205 = VERTEX_POINT('',#206);
#206 = CARTESIAN_POINT('',(189.5,37.7,-6.2));
#207 = SURFACE_CURVE('',#208,(#212,#218),.PCURVE_S1.);
#208 = LINE('',#209,#210);
#209 = CARTESIAN_POINT('',(189.5,34.8,-6.2));
#210 = VECTOR('',#211,1.);
#211 = DIRECTION('',(0.,-1.,0.));
#212 = PCURVE('',#32,#213);
#213 = DEFINITIONAL_REPRESENTATION('',(#214),#217);
#214 = B_SPLINE_CURVE_WITH_KNOTS('',1,(#215,#216),.UNSPECIFIED.,.F.,.F.,
  (2,2),(-15.5,-2.9),.PIECEWISE_BEZIER_KNOTS.);
#215 = CARTESIAN_POINT('',(9.55,-18.4));
#216 = CARTESIAN_POINT('',(9.55,-5.8));
#217 = ( GEOMETRIC_REPRESENTATION_CONTEXT(2) 
PARAMETRIC_REPRESENTATION_CONTEXT() REPRESENTATION_CONTEXT('2D SPACE',''
  ) );
#218 = PCURVE('',#219,#224);
#219 = PLANE('',#220);
#220 = AXIS2_PLACEMENT_3D('',#221,#222,#223);
#221 = CARTESIAN_POINT('',(184.5,37.7,-6.2));
#222 = DIRECTION('',(0.,0.,1.));
#223 = DIRECTION('',(1.,0.,-0.));
#224 = DEFINITIONAL_REPRESENTATION('',(#225),#228);
#225 = B_SPLINE_CURVE_WITH_KNOTS('',1,(#226,#227),.UNSPECIFIED.,.F.,.F.,
  (2,2),(-15.5,-2.9),.PIECEWISE_BEZIER_KNOTS.);
#226 = CARTESIAN_POINT('',(5.,12.6));
#227 = CARTESIAN_POINT('',(5.,0.));
#228 = ( GEOMETRIC_REPRESENTATION_CONTEXT(2) 
PARAMETRIC_REPRESENTATION_CONTEXT() REPRESENTATION_CONTEXT('2D SPACE',''
  ) );
#229 = ORIENTED_EDGE('',*,*,#230,.T.);
#230 = EDGE_CURVE('',#205,#231,#233,.T.);
#231 = VERTEX_POINT('',#232);
#232 = CARTESIAN_POINT('',(189.5,37.7,17.));
#233 = SURFACE_CURVE('',#234,(#238,#244),.PCURVE_S1.);
#234 = LINE('',#235,#236);
#235 = CARTESIAN_POINT('',(189.5,37.7,-10.975));
#236 = VECTOR('',#237,1.);
#237 = DIRECTION('',(0.,0.,1.));
#238 = PCURVE('',#32,#239);
#239 = DEFINITIONAL_REPRESENTATION('',(#240),#243);
#240 = B_SPLINE_CURVE_WITH_KNOTS('',1,(#241,#242),.UNSPECIFIED.,.F.,.F.,
  (2,2),(4.775,27.975),.PIECEWISE_BEZIER_KNOTS.);
#241 = CARTESIAN_POINT('',(9.55,-5.8));
#242 = CARTESIAN_POINT('',(32.75,-5.8));
#243 = ( GEOMETRIC_REPRESENTATION_CONTEXT(2) 
PARAMETRIC_REPRESENTATION_CONTEXT() REPRESENTATION_CONTEXT('2D SPACE',''
  ) );
#244 = PCURVE('',#245,#250);
#245 = PLANE('',#246);
#246 = AXIS2_PLACEMENT_3D('',#247,#248,#249);
#247 = CARTESIAN_POINT('',(184.5,37.7,-6.2));
#248 = DIRECTION('',(-0.,1.,0.));
#249 = DIRECTION('',(0.,0.,1.));
#250 = DEFINITIONAL_REPRESENTATION('',(#251),#254);
#251 = B_SPLINE_CURVE_WITH_KNOTS('',1,(#252,#253),.UNSPECIFIED.,.F.,.F.,
  (2,2),(4.775,27.975),.PIECEWISE_BEZIER_KNOTS.);
#252 = CARTESIAN_POINT('',(0.,5.));
#253 = CARTESIAN_POINT('',(23.2,5.));
#254 = ( GEOMETRIC_REPRESENTATION_CONTEXT(2) 
PARAMETRIC_REPRESENTATION_CONTEXT() REPRESENTATION_CONTEXT('2D SPACE',''
  ) );
#255 = ORIENTED_EDGE('',*,*,#256,.F.);
#256 = EDGE_CURVE('',#257,#231,#259,.T.);
#257 = VERTEX_POINT('',#258);
#258 = CARTESIAN_POINT('',(189.5,50.3,17.));
#259 = SURFACE_CURVE('',#260,(#264,#270),.PCURVE_S1.);
#260 = LINE('',#261,#262);
#261 = CARTESIAN_POINT('',(189.5,34.8,17.));
#262 = VECTOR('',#263,1.);
#263 = DIRECTION('',(0.,-1.,0.));
#264 = PCURVE('',#32,#265);
#265 = DEFINITIONAL_REPRESENTATION('',(#266),#269);
#266 = B_SPLINE_CURVE_WITH_KNOTS('',1,(#267,#268),.UNSPECIFIED.,.F.,.F.,
  (2,2),(-15.5,-2.9),.PIECEWISE_BEZIER_KNOTS.);
#267 = CARTESIAN_POINT('',(32.75,-18.4));
#268 = CARTESIAN_POINT('',(32.75,-5.8));
#269 = ( GEOMETRIC_REPRESENTATION_CONTEXT(2) 
PARAMETRIC_REPRESENTATION_CONTEXT() REPRESENTATION_CONTEXT('2D SPACE',''
  ) );
#270 = PCURVE('',#271,#276);
#271 = PLANE('',#272);
#272 = AXIS2_PLACEMENT_3D('',#273,#274,#275);
#273 = CARTESIAN_POINT('',(184.5,37.7,17.));
#274 = DIRECTION('',(0.,0.,1.));
#275 = DIRECTION('',(1.,0.,-0.));
#276 = DEFINITIONAL_REPRESENTATION('',(#277),#280);
#277 = B_SPLINE_CURVE_WITH_KNOTS('',1,(#278,#279),.UNSPECIFIED.,.F.,.F.,
  (2,2),(-15.5,-2.9),.PIECEWISE_BEZIER_KNOTS.);
#278 = CARTESIAN_POINT('',(5.,12.6));
#279 = CARTESIAN_POINT('',(5.,0.));
#280 = ( GEOMETRIC_REPRESENTATION_CONTEXT(2) 
PARAMETRIC_REPRESENTATION_CONTEXT() REPRESENTATION_CONTEXT('2D SPACE',''
  ) );
#281 = ORIENTED_EDGE('',*,*,#282,.F.);
#282 = EDGE_CURVE('',#203,#257,#283,.T.);
#283 = SURFACE_CURVE('',#284,(#288,#294),.PCURVE_S1.);
#284 = LINE('',#285,#286);
#285 = CARTESIAN_POINT('',(189.5,50.3,-10.975));
#286 = VECTOR('',#287,1.);
#287 = DIRECTION('',(0.,0.,1.));
#288 = PCURVE('',#32,#289);
#289 = DEFINITIONAL_REPRESENTATION('',(#290),#293);
#290 = B_SPLINE_CURVE_WITH_KNOTS('',1,(#291,#292),.UNSPECIFIED.,.F.,.F.,
  (2,2),(4.775,27.975),.PIECEWISE_BEZIER_KNOTS.);
#291 = CARTESIAN_POINT('',(9.55,-18.4));
#292 = CARTESIAN_POINT('',(32.75,-18.4));
#293 = ( GEOMETRIC_REPRESENTATION_CONTEXT(2) 
PARAMETRIC_REPRESENTATION_CONTEXT() REPRESENTATION_CONTEXT('2D SPACE',''
  ) );
#294 = PCURVE('',#295,#300);
#295 = PLANE('',#296);
#296 = AXIS2_PLACEMENT_3D('',#297,#298,#299);
#297 = CARTESIAN_POINT('',(184.5,50.3,-6.2));
#298 = DIRECTION('',(-0.,1.,0.));
#299 = DIRECTION('',(0.,0.,1.));
#300 = DEFINITIONAL_REPRESENTATION('',(#301),#304);
#301 = B_SPLINE_CURVE_WITH_KNOTS('',1,(#302,#303),.UNSPECIFIED.,.F.,.F.,
  (2,2),(4.775,27.975),.PIECEWISE_BEZIER_KNOTS.);
#302 = CARTESIAN_POINT('',(0.,5.));
#303 = CARTESIAN_POINT('',(23.2,5.));
#304 = ( GEOMETRIC_REPRESENTATION_CONTEXT(2) 
PARAMETRIC_REPRESENTATION_CONTEXT() REPRESENTATION_CONTEXT('2D SPACE',''
  ) );
#305 = ADVANCED_FACE('',(#306),#44,.F.);
#306 = FACE_BOUND('',#307,.F.);
#307 = EDGE_LOOP('',(#308,#331,#332,#355));
#308 = ORIENTED_EDGE('',*,*,#309,.F.);
#309 = EDGE_CURVE('',#22,#310,#312,.T.);
#310 = VERTEX_POINT('',#311);
#311 = CARTESIAN_POINT('',(201.97474385254,31.9,-15.75));
#312 = SURFACE_CURVE('',#313,(#317,#324),.PCURVE_S1.);
#313 = LINE('',#314,#315);
#314 = CARTESIAN_POINT('',(189.5,31.9,-15.75));
#315 = VECTOR('',#316,1.);
#316 = DIRECTION('',(1.,0.,-0.));
#317 = PCURVE('',#44,#318);
#318 = DEFINITIONAL_REPRESENTATION('',(#319),#323);
#319 = LINE('',#320,#321);
#320 = CARTESIAN_POINT('',(0.,0.));
#321 = VECTOR('',#322,1.);
#322 = DIRECTION('',(0.,1.));
#323 = ( GEOMETRIC_REPRESENTATION_CONTEXT(2) 
PARAMETRIC_REPRESENTATION_CONTEXT() REPRESENTATION_CONTEXT('2D SPACE',''
  ) );
#324 = PCURVE('',#72,#325);
#325 = DEFINITIONAL_REPRESENTATION('',(#326),#330);
#326 = LINE('',#327,#328);
#327 = CARTESIAN_POINT('',(0.,0.));
#328 = VECTOR('',#329,1.);
#329 = DIRECTION('',(1.,0.));
#330 = ( GEOMETRIC_REPRESENTATION_CONTEXT(2) 
PARAMETRIC_REPRESENTATION_CONTEXT() REPRESENTATION_CONTEXT('2D SPACE',''
  ) );
#331 = ORIENTED_EDGE('',*,*,#21,.T.);
#332 = ORIENTED_EDGE('',*,*,#333,.T.);
#333 = EDGE_CURVE('',#24,#334,#336,.T.);
#334 = VERTEX_POINT('',#335);
#335 = CARTESIAN_POINT('',(197.37108977909,31.9,26.55));
#336 = SURFACE_CURVE('',#337,(#341,#348),.PCURVE_S1.);
#337 = LINE('',#338,#339);
#338 = CARTESIAN_POINT('',(189.5,31.9,26.55));
#339 = VECTOR('',#340,1.);
#340 = DIRECTION('',(1.,0.,-0.));
#341 = PCURVE('',#44,#342);
#342 = DEFINITIONAL_REPRESENTATION('',(#343),#347);
#343 = LINE('',#344,#345);
#344 = CARTESIAN_POINT('',(42.3,0.));
#345 = VECTOR('',#346,1.);
#346 = DIRECTION('',(0.,1.));
#347 = ( GEOMETRIC_REPRESENTATION_CONTEXT(2) 
PARAMETRIC_REPRESENTATION_CONTEXT() REPRESENTATION_CONTEXT('2D SPACE',''
  ) );
#348 = PCURVE('',#126,#349);
#349 = DEFINITIONAL_REPRESENTATION('',(#350),#354);
#350 = LINE('',#351,#352);
#351 = CARTESIAN_POINT('',(0.,0.));
#352 = VECTOR('',#353,1.);
#353 = DIRECTION('',(1.,0.));
#354 = ( GEOMETRIC_REPRESENTATION_CONTEXT(2) 
PARAMETRIC_REPRESENTATION_CONTEXT() REPRESENTATION_CONTEXT('2D SPACE',''
  ) );
#355 = ORIENTED_EDGE('',*,*,#356,.T.);
#356 = EDGE_CURVE('',#334,#310,#357,.T.);
#357 = SURFACE_CURVE('',#358,(#381,#407),.PCURVE_S1.);
#358 = B_SPLINE_CURVE_WITH_KNOTS('',6,(#359,#360,#361,#362,#363,#364,
    #365,#366,#367,#368,#369,#370,#371,#372,#373,#374,#375,#376,#377,
    #378,#379,#380),.UNSPECIFIED.,.F.,.F.,(7,5,5,5,7),(0.,0.222091224969
    ,0.352077910064,0.635474979527,1.),.UNSPECIFIED.);
#359 = CARTESIAN_POINT('',(197.37108977909,31.9,26.55));
#360 = CARTESIAN_POINT('',(198.14224338518,31.9,25.125468064004));
#361 = CARTESIAN_POINT('',(198.87220381405,31.9,23.678632906122));
#362 = CARTESIAN_POINT('',(199.5584693498,31.9,22.210068321629));
#363 = CARTESIAN_POINT('',(200.19845710522,31.9,20.720631134227));
#364 = CARTESIAN_POINT('',(200.78959235812,31.9,19.211500962458));
#365 = CARTESIAN_POINT('',(201.64542079165,31.9,16.790361358083));
#366 = CARTESIAN_POINT('',(201.94382605555,31.9,15.890269587754));
#367 = CARTESIAN_POINT('',(202.22417894338,31.9,14.984283895036));
#368 = CARTESIAN_POINT('',(202.48601201266,31.9,14.072760453622));
#369 = CARTESIAN_POINT('',(202.72888745807,31.9,13.156098196625));
#370 = CARTESIAN_POINT('',(203.43972525037,31.9,10.225999898822));
#371 = CARTESIAN_POINT('',(203.83508185393,31.9,8.194775695469));
#372 = CARTESIAN_POINT('',(204.13425321337,31.9,6.145964835084));
#373 = CARTESIAN_POINT('',(204.33414794896,31.9,4.084964298129));
#374 = CARTESIAN_POINT('',(204.43306898864,31.9,2.017703184991));
#375 = CARTESIAN_POINT('',(204.42848118202,31.9,-2.708060971144));
#376 = CARTESIAN_POINT('',(204.25891544613,31.9,-5.367067978224));
#377 = CARTESIAN_POINT('',(203.9223085581,31.9,-8.012140557116));
#378 = CARTESIAN_POINT('',(203.42351938,31.9,-10.63104965421));
#379 = CARTESIAN_POINT('',(202.77079228263,31.9,-13.213304838));
#380 = CARTESIAN_POINT('',(201.97474385254,31.9,-15.75));
#381 = PCURVE('',#44,#382);
#382 = DEFINITIONAL_REPRESENTATION('',(#383),#406);
#383 = B_SPLINE_CURVE_WITH_KNOTS('',6,(#384,#385,#386,#387,#388,#389,
    #390,#391,#392,#393,#394,#395,#396,#397,#398,#399,#400,#401,#402,
    #403,#404,#405),.UNSPECIFIED.,.F.,.F.,(7,5,5,5,7),(0.,0.222091224969
    ,0.352077910064,0.635474979527,1.),.UNSPECIFIED.);
#384 = CARTESIAN_POINT('',(42.3,7.87108977909));
#385 = CARTESIAN_POINT('',(40.875468064004,8.642243385183));
#386 = CARTESIAN_POINT('',(39.428632906122,9.372203814057));
#387 = CARTESIAN_POINT('',(37.960068321629,10.058469349802));
#388 = CARTESIAN_POINT('',(36.470631134227,10.698457105229));
#389 = CARTESIAN_POINT('',(34.961500962458,11.289592358122));
#390 = CARTESIAN_POINT('',(32.540361358083,12.145420791652));
#391 = CARTESIAN_POINT('',(31.640269587754,12.443826055552));
#392 = CARTESIAN_POINT('',(30.734283895036,12.724178943388));
#393 = CARTESIAN_POINT('',(29.822760453622,12.986012012661));
#394 = CARTESIAN_POINT('',(28.906098196625,13.228887458077));
#395 = CARTESIAN_POINT('',(25.975999898822,13.939725250371));
#396 = CARTESIAN_POINT('',(23.944775695469,14.335081853932));
#397 = CARTESIAN_POINT('',(21.895964835084,14.634253213375));
#398 = CARTESIAN_POINT('',(19.834964298129,14.834147948967));
#399 = CARTESIAN_POINT('',(17.767703184991,14.933068988644));
#400 = CARTESIAN_POINT('',(13.041939028856,14.928481182023));
#401 = CARTESIAN_POINT('',(10.382932021776,14.75891544613));
#402 = CARTESIAN_POINT('',(7.737859442884,14.422308558101));
#403 = CARTESIAN_POINT('',(5.118950345782,13.923519380003));
#404 = CARTESIAN_POINT('',(2.536695162,13.270792282638));
#405 = CARTESIAN_POINT('',(0.,12.474743852541));
#406 = ( GEOMETRIC_REPRESENTATION_CONTEXT(2) 
PARAMETRIC_REPRESENTATION_CONTEXT() REPRESENTATION_CONTEXT('2D SPACE',''
  ) );
#407 = PCURVE('',#408,#417);
#408 = SURFACE_OF_REVOLUTION('',#409,#414);
#409 = ELLIPSE('',#410,206.905,103.14);
#410 = AXIS2_PLACEMENT_3D('',#411,#412,#413);
#411 = CARTESIAN_POINT('',(0.,0.,0.));
#412 = DIRECTION('',(0.,-1.,0.));
#413 = DIRECTION('',(1.,0.,0.));
#414 = AXIS1_PLACEMENT('',#415,#416);
#415 = CARTESIAN_POINT('',(0.,0.,0.));
#416 = DIRECTION('',(0.,0.,1.));
#417 = DEFINITIONAL_REPRESENTATION('',(#418),#441);
#418 = B_SPLINE_CURVE_WITH_KNOTS('',6,(#419,#420,#421,#422,#423,#424,
    #425,#426,#427,#428,#429,#430,#431,#432,#433,#434,#435,#436,#437,
    #438,#439,#440),.UNSPECIFIED.,.F.,.F.,(7,5,5,5,7),(0.,0.222091224969
    ,0.352077910064,0.635474979527,1.),.UNSPECIFIED.);
#419 = CARTESIAN_POINT('',(0.160238792129,6.543533579285));
#420 = CARTESIAN_POINT('',(0.159623381066,6.529240266091));
#421 = CARTESIAN_POINT('',(0.159046467637,6.51478847822));
#422 = CARTESIAN_POINT('',(0.158508826316,6.500181431681));
#423 = CARTESIAN_POINT('',(0.158011328571,6.48542451374));
#424 = CARTESIAN_POINT('',(0.157554895322,6.470525537968));
#425 = CARTESIAN_POINT('',(0.156897851603,6.446698386399));
#426 = CARTESIAN_POINT('',(0.156669648757,6.437856478331));
#427 = CARTESIAN_POINT('',(0.156456004663,6.428971812787));
#428 = CARTESIAN_POINT('',(0.156257097773,6.420046887674));
#429 = CARTESIAN_POINT('',(0.156073098297,6.411084533465));
#430 = CARTESIAN_POINT('',(0.155535851632,6.382473580938));
#431 = CARTESIAN_POINT('',(0.155239114842,6.36269484068));
#432 = CARTESIAN_POINT('',(0.155015658741,6.342787678839));
#433 = CARTESIAN_POINT('',(0.154866712415,6.322791095331));
#434 = CARTESIAN_POINT('',(0.154793000387,6.302748070602));
#435 = CARTESIAN_POINT('',(0.154796419031,6.256929138119));
#436 = CARTESIAN_POINT('',(0.154922773246,6.23114819442));
#437 = CARTESIAN_POINT('',(0.155173608906,6.205471132142));
#438 = CARTESIAN_POINT('',(0.155546826785,6.179985684999));
#439 = CARTESIAN_POINT('',(0.15603922026,6.154766999519));
#440 = CARTESIAN_POINT('',(0.15664656516,6.129880446511));
#441 = ( GEOMETRIC_REPRESENTATION_CONTEXT(2) 
PARAMETRIC_REPRESENTATION_CONTEXT() REPRESENTATION_CONTEXT('2D SPACE',''
  ) );
#442 = ADVANCED_FACE('',(#443),#126,.T.);
#443 = FACE_BOUND('',#444,.T.);
#444 = EDGE_LOOP('',(#445,#468,#469,#470));
#445 = ORIENTED_EDGE('',*,*,#446,.F.);
#446 = EDGE_CURVE('',#85,#447,#449,.T.);
#447 = VERTEX_POINT('',#448);
#448 = CARTESIAN_POINT('',(191.90035716638,56.1,26.55));
#449 = SURFACE_CURVE('',#450,(#454,#461),.PCURVE_S1.);
#450 = LINE('',#451,#452);
#451 = CARTESIAN_POINT('',(189.5,56.1,26.55));
#452 = VECTOR('',#453,1.);
#453 = DIRECTION('',(1.,0.,-0.));
#454 = PCURVE('',#126,#455);
#455 = DEFINITIONAL_REPRESENTATION('',(#456),#460);
#456 = LINE('',#457,#458);
#457 = CARTESIAN_POINT('',(0.,24.2));
#458 = VECTOR('',#459,1.);
#459 = DIRECTION('',(1.,0.));
#460 = ( GEOMETRIC_REPRESENTATION_CONTEXT(2) 
PARAMETRIC_REPRESENTATION_CONTEXT() REPRESENTATION_CONTEXT('2D SPACE',''
  ) );
#461 = PCURVE('',#100,#462);
#462 = DEFINITIONAL_REPRESENTATION('',(#463),#467);
#463 = LINE('',#464,#465);
#464 = CARTESIAN_POINT('',(42.3,0.));
#465 = VECTOR('',#466,1.);
#466 = DIRECTION('',(0.,1.));
#467 = ( GEOMETRIC_REPRESENTATION_CONTEXT(2) 
PARAMETRIC_REPRESENTATION_CONTEXT() REPRESENTATION_CONTEXT('2D SPACE',''
  ) );
#468 = ORIENTED_EDGE('',*,*,#112,.F.);
#469 = ORIENTED_EDGE('',*,*,#333,.T.);
#470 = ORIENTED_EDGE('',*,*,#471,.F.);
#471 = EDGE_CURVE('',#447,#334,#472,.T.);
#472 = SURFACE_CURVE('',#473,(#479,#488),.PCURVE_S1.);
#473 = B_SPLINE_CURVE_WITH_KNOTS('',4,(#474,#475,#476,#477,#478),
  .UNSPECIFIED.,.F.,.F.,(5,5),(0.,1.),.PIECEWISE_BEZIER_KNOTS.);
#474 = CARTESIAN_POINT('',(191.90035716638,56.1,26.55));
#475 = CARTESIAN_POINT('',(193.6419114389,50.142693637758,26.55));
#476 = CARTESIAN_POINT('',(195.1368847733,44.113294508588,26.55));
#477 = CARTESIAN_POINT('',(196.38079435972,38.02713749604,26.55));
#478 = CARTESIAN_POINT('',(197.37108977909,31.9,26.55));
#479 = PCURVE('',#126,#480);
#480 = DEFINITIONAL_REPRESENTATION('',(#481),#487);
#481 = B_SPLINE_CURVE_WITH_KNOTS('',4,(#482,#483,#484,#485,#486),
  .UNSPECIFIED.,.F.,.F.,(5,5),(0.,1.),.PIECEWISE_BEZIER_KNOTS.);
#482 = CARTESIAN_POINT('',(2.400357166383,24.2));
#483 = CARTESIAN_POINT('',(4.141911438906,18.242693637758));
#484 = CARTESIAN_POINT('',(5.636884773305,12.213294508588));
#485 = CARTESIAN_POINT('',(6.880794359723,6.12713749604));
#486 = CARTESIAN_POINT('',(7.87108977909,0.));
#487 = ( GEOMETRIC_REPRESENTATION_CONTEXT(2) 
PARAMETRIC_REPRESENTATION_CONTEXT() REPRESENTATION_CONTEXT('2D SPACE',''
  ) );
#488 = PCURVE('',#408,#489);
#489 = DEFINITIONAL_REPRESENTATION('',(#490),#496);
#490 = B_SPLINE_CURVE_WITH_KNOTS('',4,(#491,#492,#493,#494,#495),
  .UNSPECIFIED.,.F.,.F.,(5,5),(0.,1.),.PIECEWISE_BEZIER_KNOTS.);
#491 = CARTESIAN_POINT('',(0.284413818735,6.543533579285));
#492 = CARTESIAN_POINT('',(0.253370070562,6.543533579285));
#493 = CARTESIAN_POINT('',(0.222326306978,6.543533579285));
#494 = CARTESIAN_POINT('',(0.191282535683,6.543533579285));
#495 = CARTESIAN_POINT('',(0.160238792129,6.543533579285));
#496 = ( GEOMETRIC_REPRESENTATION_CONTEXT(2) 
PARAMETRIC_REPRESENTATION_CONTEXT() REPRESENTATION_CONTEXT('2D SPACE',''
  ) );
#497 = ADVANCED_FACE('',(#498),#72,.F.);
#498 = FACE_BOUND('',#499,.F.);
#499 = EDGE_LOOP('',(#500,#523,#524,#525));
#500 = ORIENTED_EDGE('',*,*,#501,.F.);
#501 = EDGE_CURVE('',#57,#502,#504,.T.);
#502 = VERTEX_POINT('',#503);
#503 = CARTESIAN_POINT('',(196.63213662649,56.1,-15.75));
#504 = SURFACE_CURVE('',#505,(#509,#516),.PCURVE_S1.);
#505 = LINE('',#506,#507);
#506 = CARTESIAN_POINT('',(189.5,56.1,-15.75));
#507 = VECTOR('',#508,1.);
#508 = DIRECTION('',(1.,0.,-0.));
#509 = PCURVE('',#72,#510);
#510 = DEFINITIONAL_REPRESENTATION('',(#511),#515);
#511 = LINE('',#512,#513);
#512 = CARTESIAN_POINT('',(0.,24.2));
#513 = VECTOR('',#514,1.);
#514 = DIRECTION('',(1.,0.));
#515 = ( GEOMETRIC_REPRESENTATION_CONTEXT(2) 
PARAMETRIC_REPRESENTATION_CONTEXT() REPRESENTATION_CONTEXT('2D SPACE',''
  ) );
#516 = PCURVE('',#100,#517);
#517 = DEFINITIONAL_REPRESENTATION('',(#518),#522);
#518 = LINE('',#519,#520);
#519 = CARTESIAN_POINT('',(0.,0.));
#520 = VECTOR('',#521,1.);
#521 = DIRECTION('',(0.,1.));
#522 = ( GEOMETRIC_REPRESENTATION_CONTEXT(2) 
PARAMETRIC_REPRESENTATION_CONTEXT() REPRESENTATION_CONTEXT('2D SPACE',''
  ) );
#523 = ORIENTED_EDGE('',*,*,#56,.F.);
#524 = ORIENTED_EDGE('',*,*,#309,.T.);
#525 = ORIENTED_EDGE('',*,*,#526,.F.);
#526 = EDGE_CURVE('',#502,#310,#527,.T.);
#527 = SURFACE_CURVE('',#528,(#534,#543),.PCURVE_S1.);
#528 = B_SPLINE_CURVE_WITH_KNOTS('',4,(#529,#530,#531,#532,#533),
  .UNSPECIFIED.,.F.,.F.,(5,5),(0.,1.),.PIECEWISE_BEZIER_KNOTS.);
#529 = CARTESIAN_POINT('',(196.63213662649,56.1,-15.75));
#530 = CARTESIAN_POINT('',(198.33300444131,50.138408688976,-15.75));
#531 = CARTESIAN_POINT('',(199.79287892751,44.108052454714,-15.75));
#532 = CARTESIAN_POINT('',(201.00758354744,38.023572253496,-15.75));
#533 = CARTESIAN_POINT('',(201.97474385254,31.9,-15.75));
#534 = PCURVE('',#72,#535);
#535 = DEFINITIONAL_REPRESENTATION('',(#536),#542);
#536 = B_SPLINE_CURVE_WITH_KNOTS('',4,(#537,#538,#539,#540,#541),
  .UNSPECIFIED.,.F.,.F.,(5,5),(0.,1.),.PIECEWISE_BEZIER_KNOTS.);
#537 = CARTESIAN_POINT('',(7.132136626493,24.2));
#538 = CARTESIAN_POINT('',(8.833004441318,18.238408688976));
#539 = CARTESIAN_POINT('',(10.292878927514,12.208052454714));
#540 = CARTESIAN_POINT('',(11.507583547443,6.123572253496));
#541 = CARTESIAN_POINT('',(12.474743852541,0.));
#542 = ( GEOMETRIC_REPRESENTATION_CONTEXT(2) 
PARAMETRIC_REPRESENTATION_CONTEXT() REPRESENTATION_CONTEXT('2D SPACE',''
  ) );
#543 = PCURVE('',#408,#544);
#544 = DEFINITIONAL_REPRESENTATION('',(#545),#551);
#545 = B_SPLINE_CURVE_WITH_KNOTS('',4,(#546,#547,#548,#549,#550),
  .UNSPECIFIED.,.F.,.F.,(5,5),(0.,1.),.PIECEWISE_BEZIER_KNOTS.);
#546 = CARTESIAN_POINT('',(0.27792060233,6.129880446511));
#547 = CARTESIAN_POINT('',(0.247602102957,6.129880446511));
#548 = CARTESIAN_POINT('',(0.217283581909,6.129880446511));
#549 = CARTESIAN_POINT('',(0.186965070022,6.129880446511));
#550 = CARTESIAN_POINT('',(0.15664656516,6.129880446511));
#551 = ( GEOMETRIC_REPRESENTATION_CONTEXT(2) 
PARAMETRIC_REPRESENTATION_CONTEXT() REPRESENTATION_CONTEXT('2D SPACE',''
  ) );
#552 = ADVANCED_FACE('',(#553),#100,.T.);
#553 = FACE_BOUND('',#554,.T.);
#554 = EDGE_LOOP('',(#555,#556,#557,#558));
#555 = ORIENTED_EDGE('',*,*,#501,.F.);
#556 = ORIENTED_EDGE('',*,*,#84,.T.);
#557 = ORIENTED_EDGE('',*,*,#446,.T.);
#558 = ORIENTED_EDGE('',*,*,#559,.T.);
#559 = EDGE_CURVE('',#447,#502,#560,.T.);
#560 = SURFACE_CURVE('',#561,(#584,#610),.PCURVE_S1.);
#561 = B_SPLINE_CURVE_WITH_KNOTS('',6,(#562,#563,#564,#565,#566,#567,
    #568,#569,#570,#571,#572,#573,#574,#575,#576,#577,#578,#579,#580,
    #581,#582,#583),.UNSPECIFIED.,.F.,.F.,(7,5,5,5,7),(0.,0.226256735667
    ,0.35622161553,0.631787933106,1.),.UNSPECIFIED.);
#562 = CARTESIAN_POINT('',(191.90035716638,56.1,26.55));
#563 = CARTESIAN_POINT('',(192.70457172384,56.1,25.105573424202));
#564 = CARTESIAN_POINT('',(193.46562188425,56.1,23.63711018686));
#565 = CARTESIAN_POINT('',(194.18072965498,56.1,22.145176607712));
#566 = CARTESIAN_POINT('',(194.84700550144,56.1,20.630661686127));
#567 = CARTESIAN_POINT('',(195.46155288357,56.1,19.094824780144));
#568 = CARTESIAN_POINT('',(196.34335910097,56.1,16.645900267209));
#569 = CARTESIAN_POINT('',(196.64710995116,56.1,15.745955938311));
#570 = CARTESIAN_POINT('',(196.93237204274,56.1,14.839866535923));
#571 = CARTESIAN_POINT('',(197.1986462008,56.1,13.928002183969));
#572 = CARTESIAN_POINT('',(197.44546438581,56.1,13.010779663559));
#573 = CARTESIAN_POINT('',(198.15357786356,56.1,10.133495145492));
#574 = CARTESIAN_POINT('',(198.54541326508,56.1,8.156169958976));
#575 = CARTESIAN_POINT('',(198.84375425513,56.1,6.1614166585));
#576 = CARTESIAN_POINT('',(199.04553374729,56.1,4.154461160042));
#577 = CARTESIAN_POINT('',(199.14903116859,56.1,2.141060443033));
#578 = CARTESIAN_POINT('',(199.16115458957,56.1,-2.562918145814));
#579 = CARTESIAN_POINT('',(198.9925678422,56.1,-5.254317006187));
#580 = CARTESIAN_POINT('',(198.64821981842,56.1,-7.931080620447));
#581 = CARTESIAN_POINT('',(198.13348320259,56.1,-10.57988122307));
#582 = CARTESIAN_POINT('',(197.45752925014,56.1,-13.18937013698));
#583 = CARTESIAN_POINT('',(196.63213662649,56.1,-15.75));
#584 = PCURVE('',#100,#585);
#585 = DEFINITIONAL_REPRESENTATION('',(#586),#609);
#586 = B_SPLINE_CURVE_WITH_KNOTS('',6,(#587,#588,#589,#590,#591,#592,
    #593,#594,#595,#596,#597,#598,#599,#600,#601,#602,#603,#604,#605,
    #606,#607,#608),.UNSPECIFIED.,.F.,.F.,(7,5,5,5,7),(0.,0.226256735667
    ,0.35622161553,0.631787933106,1.),.UNSPECIFIED.);
#587 = CARTESIAN_POINT('',(42.3,2.400357166383));
#588 = CARTESIAN_POINT('',(40.855573424202,3.204571723848));
#589 = CARTESIAN_POINT('',(39.38711018686,3.965621884258));
#590 = CARTESIAN_POINT('',(37.895176607712,4.68072965498));
#591 = CARTESIAN_POINT('',(36.380661686127,5.347005501441));
#592 = CARTESIAN_POINT('',(34.844824780144,5.961552883573));
#593 = CARTESIAN_POINT('',(32.395900267209,6.843359100975));
#594 = CARTESIAN_POINT('',(31.495955938311,7.147109951169));
#595 = CARTESIAN_POINT('',(30.589866535923,7.43237204274));
#596 = CARTESIAN_POINT('',(29.678002183969,7.698646200807));
#597 = CARTESIAN_POINT('',(28.760779663559,7.945464385816));
#598 = CARTESIAN_POINT('',(25.883495145492,8.653577863566));
#599 = CARTESIAN_POINT('',(23.906169958976,9.045413265085));
#600 = CARTESIAN_POINT('',(21.9114166585,9.343754255135));
#601 = CARTESIAN_POINT('',(19.904461160042,9.545533747295));
#602 = CARTESIAN_POINT('',(17.891060443033,9.649031168597));
#603 = CARTESIAN_POINT('',(13.187081854186,9.661154589578));
#604 = CARTESIAN_POINT('',(10.495682993813,9.492567842203));
#605 = CARTESIAN_POINT('',(7.818919379553,9.148219818427));
#606 = CARTESIAN_POINT('',(5.170118776927,8.633483202598));
#607 = CARTESIAN_POINT('',(2.560629863015,7.957529250144));
#608 = CARTESIAN_POINT('',(0.,7.132136626493));
#609 = ( GEOMETRIC_REPRESENTATION_CONTEXT(2) 
PARAMETRIC_REPRESENTATION_CONTEXT() REPRESENTATION_CONTEXT('2D SPACE',''
  ) );
#610 = PCURVE('',#408,#611);
#611 = DEFINITIONAL_REPRESENTATION('',(#612),#635);
#612 = B_SPLINE_CURVE_WITH_KNOTS('',6,(#613,#614,#615,#616,#617,#618,
    #619,#620,#621,#622,#623,#624,#625,#626,#627,#628,#629,#630,#631,
    #632,#633,#634),.UNSPECIFIED.,.F.,.F.,(7,5,5,5,7),(0.,0.226256735667
    ,0.35622161553,0.631787933106,1.),.UNSPECIFIED.);
#613 = CARTESIAN_POINT('',(0.284413818735,6.543533579285));
#614 = CARTESIAN_POINT('',(0.283285144752,6.529040649423));
#615 = CARTESIAN_POINT('',(0.282227508071,6.514373689018));
#616 = CARTESIAN_POINT('',(0.281242526125,6.499535923822));
#617 = CARTESIAN_POINT('',(0.280332019545,6.484533080406));
#618 = CARTESIAN_POINT('',(0.279497911981,6.469373688218));
#619 = CARTESIAN_POINT('',(0.278307935689,6.445279050391));
#620 = CARTESIAN_POINT('',(0.27789961188,6.436440622131));
#621 = CARTESIAN_POINT('',(0.27751747732,6.427556839107));
#622 = CARTESIAN_POINT('',(0.277161883789,6.418630349263));
#623 = CARTESIAN_POINT('',(0.276833166558,6.409664166542));
#624 = CARTESIAN_POINT('',(0.27589229323,6.381573671997));
#625 = CARTESIAN_POINT('',(0.275375116407,6.362320945753));
#626 = CARTESIAN_POINT('',(0.274983182857,6.342938822913));
#627 = CARTESIAN_POINT('',(0.274718732438,6.323465727909));
#628 = CARTESIAN_POINT('',(0.274583103311,6.303944101198));
#629 = CARTESIAN_POINT('',(0.274567216134,6.258336362343));
#630 = CARTESIAN_POINT('',(0.274788143556,6.232242735652));
#631 = CARTESIAN_POINT('',(0.27523932189,6.206260060242));
#632 = CARTESIAN_POINT('',(0.275916502539,6.180485501586));
#633 = CARTESIAN_POINT('',(0.27681314077,6.155001813782));
#634 = CARTESIAN_POINT('',(0.27792060233,6.129880446511));
#635 = ( GEOMETRIC_REPRESENTATION_CONTEXT(2) 
PARAMETRIC_REPRESENTATION_CONTEXT() REPRESENTATION_CONTEXT('2D SPACE',''
  ) );
#636 = ADVANCED_FACE('',(#637),#157,.F.);
#637 = FACE_BOUND('',#638,.F.);
#638 = EDGE_LOOP('',(#639,#668,#689,#690));
#639 = ORIENTED_EDGE('',*,*,#640,.F.);
#640 = EDGE_CURVE('',#641,#641,#643,.T.);
#641 = VERTEX_POINT('',#642);
#642 = CARTESIAN_POINT('',(192.5,44.,-7.7));
#643 = SURFACE_CURVE('',#644,(#649,#656),.PCURVE_S1.);
#644 = CIRCLE('',#645,0.8);
#645 = AXIS2_PLACEMENT_3D('',#646,#647,#648);
#646 = CARTESIAN_POINT('',(192.5,44.,-8.5));
#647 = DIRECTION('',(1.,0.,0.));
#648 = DIRECTION('',(-0.,0.,1.));
#649 = PCURVE('',#157,#650);
#650 = DEFINITIONAL_REPRESENTATION('',(#651),#655);
#651 = LINE('',#652,#653);
#652 = CARTESIAN_POINT('',(0.,8.));
#653 = VECTOR('',#654,1.);
#654 = DIRECTION('',(1.,0.));
#655 = ( GEOMETRIC_REPRESENTATION_CONTEXT(2) 
PARAMETRIC_REPRESENTATION_CONTEXT() REPRESENTATION_CONTEXT('2D SPACE',''
  ) );
#656 = PCURVE('',#657,#662);
#657 = PLANE('',#658);
#658 = AXIS2_PLACEMENT_3D('',#659,#660,#661);
#659 = CARTESIAN_POINT('',(192.5,33.9,-13.75));
#660 = DIRECTION('',(1.,0.,-0.));
#661 = DIRECTION('',(0.,0.,1.));
#662 = DEFINITIONAL_REPRESENTATION('',(#663),#667);
#663 = CIRCLE('',#664,0.8);
#664 = AXIS2_PLACEMENT_2D('',#665,#666);
#665 = CARTESIAN_POINT('',(5.25,-10.1));
#666 = DIRECTION('',(1.,0.));
#667 = ( GEOMETRIC_REPRESENTATION_CONTEXT(2) 
PARAMETRIC_REPRESENTATION_CONTEXT() REPRESENTATION_CONTEXT('2D SPACE',''
  ) );
#668 = ORIENTED_EDGE('',*,*,#669,.F.);
#669 = EDGE_CURVE('',#141,#641,#670,.T.);
#670 = SEAM_CURVE('',#671,(#675,#682),.PCURVE_S1.);
#671 = LINE('',#672,#673);
#672 = CARTESIAN_POINT('',(184.5,44.,-7.7));
#673 = VECTOR('',#674,1.);
#674 = DIRECTION('',(1.,0.,0.));
#675 = PCURVE('',#157,#676);
#676 = DEFINITIONAL_REPRESENTATION('',(#677),#681);
#677 = LINE('',#678,#679);
#678 = CARTESIAN_POINT('',(6.28318530718,-0.));
#679 = VECTOR('',#680,1.);
#680 = DIRECTION('',(0.,1.));
#681 = ( GEOMETRIC_REPRESENTATION_CONTEXT(2) 
PARAMETRIC_REPRESENTATION_CONTEXT() REPRESENTATION_CONTEXT('2D SPACE',''
  ) );
#682 = PCURVE('',#157,#683);
#683 = DEFINITIONAL_REPRESENTATION('',(#684),#688);
#684 = LINE('',#685,#686);
#685 = CARTESIAN_POINT('',(0.,-0.));
#686 = VECTOR('',#687,1.);
#687 = DIRECTION('',(0.,1.));
#688 = ( GEOMETRIC_REPRESENTATION_CONTEXT(2) 
PARAMETRIC_REPRESENTATION_CONTEXT() REPRESENTATION_CONTEXT('2D SPACE',''
  ) );
#689 = ORIENTED_EDGE('',*,*,#140,.T.);
#690 = ORIENTED_EDGE('',*,*,#669,.T.);
#691 = ADVANCED_FACE('',(#692),#188,.F.);
#692 = FACE_BOUND('',#693,.F.);
#693 = EDGE_LOOP('',(#694,#718,#739,#740));
#694 = ORIENTED_EDGE('',*,*,#695,.F.);
#695 = EDGE_CURVE('',#696,#696,#698,.T.);
#696 = VERTEX_POINT('',#697);
#697 = CARTESIAN_POINT('',(192.5,44.,20.1));
#698 = SURFACE_CURVE('',#699,(#704,#711),.PCURVE_S1.);
#699 = CIRCLE('',#700,0.8);
#700 = AXIS2_PLACEMENT_3D('',#701,#702,#703);
#701 = CARTESIAN_POINT('',(192.5,44.,19.3));
#702 = DIRECTION('',(1.,0.,0.));
#703 = DIRECTION('',(-0.,0.,1.));
#704 = PCURVE('',#188,#705);
#705 = DEFINITIONAL_REPRESENTATION('',(#706),#710);
#706 = LINE('',#707,#708);
#707 = CARTESIAN_POINT('',(0.,8.));
#708 = VECTOR('',#709,1.);
#709 = DIRECTION('',(1.,0.));
#710 = ( GEOMETRIC_REPRESENTATION_CONTEXT(2) 
PARAMETRIC_REPRESENTATION_CONTEXT() REPRESENTATION_CONTEXT('2D SPACE',''
  ) );
#711 = PCURVE('',#657,#712);
#712 = DEFINITIONAL_REPRESENTATION('',(#713),#717);
#713 = CIRCLE('',#714,0.8);
#714 = AXIS2_PLACEMENT_2D('',#715,#716);
#715 = CARTESIAN_POINT('',(33.05,-10.1));
#716 = DIRECTION('',(1.,0.));
#717 = ( GEOMETRIC_REPRESENTATION_CONTEXT(2) 
PARAMETRIC_REPRESENTATION_CONTEXT() REPRESENTATION_CONTEXT('2D SPACE',''
  ) );
#718 = ORIENTED_EDGE('',*,*,#719,.F.);
#719 = EDGE_CURVE('',#172,#696,#720,.T.);
#720 = SEAM_CURVE('',#721,(#725,#732),.PCURVE_S1.);
#721 = LINE('',#722,#723);
#722 = CARTESIAN_POINT('',(184.5,44.,20.1));
#723 = VECTOR('',#724,1.);
#724 = DIRECTION('',(1.,0.,0.));
#725 = PCURVE('',#188,#726);
#726 = DEFINITIONAL_REPRESENTATION('',(#727),#731);
#727 = LINE('',#728,#729);
#728 = CARTESIAN_POINT('',(6.28318530718,-0.));
#729 = VECTOR('',#730,1.);
#730 = DIRECTION('',(0.,1.));
#731 = ( GEOMETRIC_REPRESENTATION_CONTEXT(2) 
PARAMETRIC_REPRESENTATION_CONTEXT() REPRESENTATION_CONTEXT('2D SPACE',''
  ) );
#732 = PCURVE('',#188,#733);
#733 = DEFINITIONAL_REPRESENTATION('',(#734),#738);
#734 = LINE('',#735,#736);
#735 = CARTESIAN_POINT('',(0.,-0.));
#736 = VECTOR('',#737,1.);
#737 = DIRECTION('',(0.,1.));
#738 = ( GEOMETRIC_REPRESENTATION_CONTEXT(2) 
PARAMETRIC_REPRESENTATION_CONTEXT() REPRESENTATION_CONTEXT('2D SPACE',''
  ) );
#739 = ORIENTED_EDGE('',*,*,#171,.T.);
#740 = ORIENTED_EDGE('',*,*,#719,.T.);
#741 = ADVANCED_FACE('',(#742),#219,.T.);
#742 = FACE_BOUND('',#743,.T.);
#743 = EDGE_LOOP('',(#744,#767,#768,#791));
#744 = ORIENTED_EDGE('',*,*,#745,.F.);
#745 = EDGE_CURVE('',#203,#746,#748,.T.);
#746 = VERTEX_POINT('',#747);
#747 = CARTESIAN_POINT('',(192.5,50.3,-6.2));
#748 = SURFACE_CURVE('',#749,(#753,#760),.PCURVE_S1.);
#749 = LINE('',#750,#751);
#750 = CARTESIAN_POINT('',(184.5,50.3,-6.2));
#751 = VECTOR('',#752,1.);
#752 = DIRECTION('',(1.,0.,-0.));
#753 = PCURVE('',#219,#754);
#754 = DEFINITIONAL_REPRESENTATION('',(#755),#759);
#755 = LINE('',#756,#757);
#756 = CARTESIAN_POINT('',(0.,12.6));
#757 = VECTOR('',#758,1.);
#758 = DIRECTION('',(1.,0.));
#759 = ( GEOMETRIC_REPRESENTATION_CONTEXT(2) 
PARAMETRIC_REPRESENTATION_CONTEXT() REPRESENTATION_CONTEXT('2D SPACE',''
  ) );
#760 = PCURVE('',#295,#761);
#761 = DEFINITIONAL_REPRESENTATION('',(#762),#766);
#762 = LINE('',#763,#764);
#763 = CARTESIAN_POINT('',(0.,0.));
#764 = VECTOR('',#765,1.);
#765 = DIRECTION('',(0.,1.));
#766 = ( GEOMETRIC_REPRESENTATION_CONTEXT(2) 
PARAMETRIC_REPRESENTATION_CONTEXT() REPRESENTATION_CONTEXT('2D SPACE',''
  ) );
#767 = ORIENTED_EDGE('',*,*,#202,.T.);
#768 = ORIENTED_EDGE('',*,*,#769,.T.);
#769 = EDGE_CURVE('',#205,#770,#772,.T.);
#770 = VERTEX_POINT('',#771);
#771 = CARTESIAN_POINT('',(192.5,37.7,-6.2));
#772 = SURFACE_CURVE('',#773,(#777,#784),.PCURVE_S1.);
#773 = LINE('',#774,#775);
#774 = CARTESIAN_POINT('',(184.5,37.7,-6.2));
#775 = VECTOR('',#776,1.);
#776 = DIRECTION('',(1.,0.,-0.));
#777 = PCURVE('',#219,#778);
#778 = DEFINITIONAL_REPRESENTATION('',(#779),#783);
#779 = LINE('',#780,#781);
#780 = CARTESIAN_POINT('',(0.,0.));
#781 = VECTOR('',#782,1.);
#782 = DIRECTION('',(1.,0.));
#783 = ( GEOMETRIC_REPRESENTATION_CONTEXT(2) 
PARAMETRIC_REPRESENTATION_CONTEXT() REPRESENTATION_CONTEXT('2D SPACE',''
  ) );
#784 = PCURVE('',#245,#785);
#785 = DEFINITIONAL_REPRESENTATION('',(#786),#790);
#786 = LINE('',#787,#788);
#787 = CARTESIAN_POINT('',(0.,0.));
#788 = VECTOR('',#789,1.);
#789 = DIRECTION('',(0.,1.));
#790 = ( GEOMETRIC_REPRESENTATION_CONTEXT(2) 
PARAMETRIC_REPRESENTATION_CONTEXT() REPRESENTATION_CONTEXT('2D SPACE',''
  ) );
#791 = ORIENTED_EDGE('',*,*,#792,.F.);
#792 = EDGE_CURVE('',#746,#770,#793,.T.);
#793 = SURFACE_CURVE('',#794,(#798,#804),.PCURVE_S1.);
#794 = LINE('',#795,#796);
#795 = CARTESIAN_POINT('',(192.5,35.8,-6.2));
#796 = VECTOR('',#797,1.);
#797 = DIRECTION('',(0.,-1.,0.));
#798 = PCURVE('',#219,#799);
#799 = DEFINITIONAL_REPRESENTATION('',(#800),#803);
#800 = B_SPLINE_CURVE_WITH_KNOTS('',1,(#801,#802),.UNSPECIFIED.,.F.,.F.,
  (2,2),(-14.5,-1.9),.PIECEWISE_BEZIER_KNOTS.);
#801 = CARTESIAN_POINT('',(8.,12.6));
#802 = CARTESIAN_POINT('',(8.,0.));
#803 = ( GEOMETRIC_REPRESENTATION_CONTEXT(2) 
PARAMETRIC_REPRESENTATION_CONTEXT() REPRESENTATION_CONTEXT('2D SPACE',''
  ) );
#804 = PCURVE('',#657,#805);
#805 = DEFINITIONAL_REPRESENTATION('',(#806),#809);
#806 = B_SPLINE_CURVE_WITH_KNOTS('',1,(#807,#808),.UNSPECIFIED.,.F.,.F.,
  (2,2),(-14.5,-1.9),.PIECEWISE_BEZIER_KNOTS.);
#807 = CARTESIAN_POINT('',(7.55,-16.4));
#808 = CARTESIAN_POINT('',(7.55,-3.8));
#809 = ( GEOMETRIC_REPRESENTATION_CONTEXT(2) 
PARAMETRIC_REPRESENTATION_CONTEXT() REPRESENTATION_CONTEXT('2D SPACE',''
  ) );
#810 = ADVANCED_FACE('',(#811),#295,.F.);
#811 = FACE_BOUND('',#812,.F.);
#812 = EDGE_LOOP('',(#813,#814,#815,#838));
#813 = ORIENTED_EDGE('',*,*,#745,.F.);
#814 = ORIENTED_EDGE('',*,*,#282,.T.);
#815 = ORIENTED_EDGE('',*,*,#816,.T.);
#816 = EDGE_CURVE('',#257,#817,#819,.T.);
#817 = VERTEX_POINT('',#818);
#818 = CARTESIAN_POINT('',(192.5,50.3,17.));
#819 = SURFACE_CURVE('',#820,(#824,#831),.PCURVE_S1.);
#820 = LINE('',#821,#822);
#821 = CARTESIAN_POINT('',(184.5,50.3,17.));
#822 = VECTOR('',#823,1.);
#823 = DIRECTION('',(1.,0.,-0.));
#824 = PCURVE('',#295,#825);
#825 = DEFINITIONAL_REPRESENTATION('',(#826),#830);
#826 = LINE('',#827,#828);
#827 = CARTESIAN_POINT('',(23.2,0.));
#828 = VECTOR('',#829,1.);
#829 = DIRECTION('',(0.,1.));
#830 = ( GEOMETRIC_REPRESENTATION_CONTEXT(2) 
PARAMETRIC_REPRESENTATION_CONTEXT() REPRESENTATION_CONTEXT('2D SPACE',''
  ) );
#831 = PCURVE('',#271,#832);
#832 = DEFINITIONAL_REPRESENTATION('',(#833),#837);
#833 = LINE('',#834,#835);
#834 = CARTESIAN_POINT('',(0.,12.6));
#835 = VECTOR('',#836,1.);
#836 = DIRECTION('',(1.,0.));
#837 = ( GEOMETRIC_REPRESENTATION_CONTEXT(2) 
PARAMETRIC_REPRESENTATION_CONTEXT() REPRESENTATION_CONTEXT('2D SPACE',''
  ) );
#838 = ORIENTED_EDGE('',*,*,#839,.F.);
#839 = EDGE_CURVE('',#746,#817,#840,.T.);
#840 = SURFACE_CURVE('',#841,(#845,#851),.PCURVE_S1.);
#841 = LINE('',#842,#843);
#842 = CARTESIAN_POINT('',(192.5,50.3,-9.975));
#843 = VECTOR('',#844,1.);
#844 = DIRECTION('',(0.,0.,1.));
#845 = PCURVE('',#295,#846);
#846 = DEFINITIONAL_REPRESENTATION('',(#847),#850);
#847 = B_SPLINE_CURVE_WITH_KNOTS('',1,(#848,#849),.UNSPECIFIED.,.F.,.F.,
  (2,2),(3.775,26.975),.PIECEWISE_BEZIER_KNOTS.);
#848 = CARTESIAN_POINT('',(0.,8.));
#849 = CARTESIAN_POINT('',(23.2,8.));
#850 = ( GEOMETRIC_REPRESENTATION_CONTEXT(2) 
PARAMETRIC_REPRESENTATION_CONTEXT() REPRESENTATION_CONTEXT('2D SPACE',''
  ) );
#851 = PCURVE('',#657,#852);
#852 = DEFINITIONAL_REPRESENTATION('',(#853),#856);
#853 = B_SPLINE_CURVE_WITH_KNOTS('',1,(#854,#855),.UNSPECIFIED.,.F.,.F.,
  (2,2),(3.775,26.975),.PIECEWISE_BEZIER_KNOTS.);
#854 = CARTESIAN_POINT('',(7.55,-16.4));
#855 = CARTESIAN_POINT('',(30.75,-16.4));
#856 = ( GEOMETRIC_REPRESENTATION_CONTEXT(2) 
PARAMETRIC_REPRESENTATION_CONTEXT() REPRESENTATION_CONTEXT('2D SPACE',''
  ) );
#857 = ADVANCED_FACE('',(#858),#245,.T.);
#858 = FACE_BOUND('',#859,.T.);
#859 = EDGE_LOOP('',(#860,#861,#862,#885));
#860 = ORIENTED_EDGE('',*,*,#769,.F.);
#861 = ORIENTED_EDGE('',*,*,#230,.T.);
#862 = ORIENTED_EDGE('',*,*,#863,.T.);
#863 = EDGE_CURVE('',#231,#864,#866,.T.);
#864 = VERTEX_POINT('',#865);
#865 = CARTESIAN_POINT('',(192.5,37.7,17.));
#866 = SURFACE_CURVE('',#867,(#871,#878),.PCURVE_S1.);
#867 = LINE('',#868,#869);
#868 = CARTESIAN_POINT('',(184.5,37.7,17.));
#869 = VECTOR('',#870,1.);
#870 = DIRECTION('',(1.,0.,-0.));
#871 = PCURVE('',#245,#872);
#872 = DEFINITIONAL_REPRESENTATION('',(#873),#877);
#873 = LINE('',#874,#875);
#874 = CARTESIAN_POINT('',(23.2,0.));
#875 = VECTOR('',#876,1.);
#876 = DIRECTION('',(0.,1.));
#877 = ( GEOMETRIC_REPRESENTATION_CONTEXT(2) 
PARAMETRIC_REPRESENTATION_CONTEXT() REPRESENTATION_CONTEXT('2D SPACE',''
  ) );
#878 = PCURVE('',#271,#879);
#879 = DEFINITIONAL_REPRESENTATION('',(#880),#884);
#880 = LINE('',#881,#882);
#881 = CARTESIAN_POINT('',(0.,0.));
#882 = VECTOR('',#883,1.);
#883 = DIRECTION('',(1.,0.));
#884 = ( GEOMETRIC_REPRESENTATION_CONTEXT(2) 
PARAMETRIC_REPRESENTATION_CONTEXT() REPRESENTATION_CONTEXT('2D SPACE',''
  ) );
#885 = ORIENTED_EDGE('',*,*,#886,.F.);
#886 = EDGE_CURVE('',#770,#864,#887,.T.);
#887 = SURFACE_CURVE('',#888,(#892,#898),.PCURVE_S1.);
#888 = LINE('',#889,#890);
#889 = CARTESIAN_POINT('',(192.5,37.7,-9.975));
#890 = VECTOR('',#891,1.);
#891 = DIRECTION('',(0.,0.,1.));
#892 = PCURVE('',#245,#893);
#893 = DEFINITIONAL_REPRESENTATION('',(#894),#897);
#894 = B_SPLINE_CURVE_WITH_KNOTS('',1,(#895,#896),.UNSPECIFIED.,.F.,.F.,
  (2,2),(3.775,26.975),.PIECEWISE_BEZIER_KNOTS.);
#895 = CARTESIAN_POINT('',(0.,8.));
#896 = CARTESIAN_POINT('',(23.2,8.));
#897 = ( GEOMETRIC_REPRESENTATION_CONTEXT(2) 
PARAMETRIC_REPRESENTATION_CONTEXT() REPRESENTATION_CONTEXT('2D SPACE',''
  ) );
#898 = PCURVE('',#657,#899);
#899 = DEFINITIONAL_REPRESENTATION('',(#900),#903);
#900 = B_SPLINE_CURVE_WITH_KNOTS('',1,(#901,#902),.UNSPECIFIED.,.F.,.F.,
  (2,2),(3.775,26.975),.PIECEWISE_BEZIER_KNOTS.);
#901 = CARTESIAN_POINT('',(7.55,-3.8));
#902 = CARTESIAN_POINT('',(30.75,-3.8));
#903 = ( GEOMETRIC_REPRESENTATION_CONTEXT(2) 
PARAMETRIC_REPRESENTATION_CONTEXT() REPRESENTATION_CONTEXT('2D SPACE',''
  ) );
#904 = ADVANCED_FACE('',(#905),#271,.F.);
#905 = FACE_BOUND('',#906,.F.);
#906 = EDGE_LOOP('',(#907,#908,#909,#910));
#907 = ORIENTED_EDGE('',*,*,#816,.F.);
#908 = ORIENTED_EDGE('',*,*,#256,.T.);
#909 = ORIENTED_EDGE('',*,*,#863,.T.);
#910 = ORIENTED_EDGE('',*,*,#911,.F.);
#911 = EDGE_CURVE('',#817,#864,#912,.T.);
#912 = SURFACE_CURVE('',#913,(#917,#923),.PCURVE_S1.);
#913 = LINE('',#914,#915);
#914 = CARTESIAN_POINT('',(192.5,35.8,17.));
#915 = VECTOR('',#916,1.);
#916 = DIRECTION('',(0.,-1.,0.));
#917 = PCURVE('',#271,#918);
#918 = DEFINITIONAL_REPRESENTATION('',(#919),#922);
#919 = B_SPLINE_CURVE_WITH_KNOTS('',1,(#920,#921),.UNSPECIFIED.,.F.,.F.,
  (2,2),(-14.5,-1.9),.PIECEWISE_BEZIER_KNOTS.);
#920 = CARTESIAN_POINT('',(8.,12.6));
#921 = CARTESIAN_POINT('',(8.,0.));
#922 = ( GEOMETRIC_REPRESENTATION_CONTEXT(2) 
PARAMETRIC_REPRESENTATION_CONTEXT() REPRESENTATION_CONTEXT('2D SPACE',''
  ) );
#923 = PCURVE('',#657,#924);
#924 = DEFINITIONAL_REPRESENTATION('',(#925),#928);
#925 = B_SPLINE_CURVE_WITH_KNOTS('',1,(#926,#927),.UNSPECIFIED.,.F.,.F.,
  (2,2),(-14.5,-1.9),.PIECEWISE_BEZIER_KNOTS.);
#926 = CARTESIAN_POINT('',(30.75,-16.4));
#927 = CARTESIAN_POINT('',(30.75,-3.8));
#928 = ( GEOMETRIC_REPRESENTATION_CONTEXT(2) 
PARAMETRIC_REPRESENTATION_CONTEXT() REPRESENTATION_CONTEXT('2D SPACE',''
  ) );
#929 = ADVANCED_FACE('',(#930,#936),#408,.T.);
#930 = FACE_BOUND('',#931,.T.);
#931 = EDGE_LOOP('',(#932,#933,#934,#935));
#932 = ORIENTED_EDGE('',*,*,#471,.T.);
#933 = ORIENTED_EDGE('',*,*,#356,.T.);
#934 = ORIENTED_EDGE('',*,*,#526,.F.);
#935 = ORIENTED_EDGE('',*,*,#559,.F.);
#936 = FACE_BOUND('',#937,.T.);
#937 = EDGE_LOOP('',(#938,#983,#1053,#1096));
#938 = ORIENTED_EDGE('',*,*,#939,.T.);
#939 = EDGE_CURVE('',#940,#942,#944,.T.);
#940 = VERTEX_POINT('',#941);
#941 = CARTESIAN_POINT('',(197.7928952612,54.1,-13.75));
#942 = VERTEX_POINT('',#943);
#943 = CARTESIAN_POINT('',(202.23656794905,33.9,-13.75));
#944 = SURFACE_CURVE('',#945,(#954,#966),.PCURVE_S1.);
#945 = B_SPLINE_CURVE_WITH_KNOTS('',4,(#946,#947,#948,#949,#950,#951,
    #952,#953),.UNSPECIFIED.,.F.,.F.,(5,3,5),(0.,0.500419589728,1.),
  .UNSPECIFIED.);
#946 = CARTESIAN_POINT('',(197.7928952612,54.1,-13.75));
#947 = CARTESIAN_POINT('',(198.47585049253,51.603074080644,-13.75));
#948 = CARTESIAN_POINT('',(199.1167776756,49.094652642834,-13.75));
#949 = CARTESIAN_POINT('',(199.71538650515,46.575797103282,-13.75));
#950 = CARTESIAN_POINT('',(200.826562222,41.523606935237,-13.75));
#951 = CARTESIAN_POINT('',(201.33927174538,38.990303535461,-13.75));
#952 = CARTESIAN_POINT('',(201.80933398931,36.448741288162,-13.75));
#953 = CARTESIAN_POINT('',(202.23656794905,33.9,-13.75));
#954 = PCURVE('',#408,#955);
#955 = DEFINITIONAL_REPRESENTATION('',(#956),#965);
#956 = B_SPLINE_CURVE_WITH_KNOTS('',4,(#957,#958,#959,#960,#961,#962,
    #963,#964),.UNSPECIFIED.,.F.,.F.,(5,3,5),(0.,0.500419589728,1.),
  .UNSPECIFIED.);
#957 = CARTESIAN_POINT('',(0.266988276328,6.149473283561));
#958 = CARTESIAN_POINT('',(0.254364334925,6.149473283561));
#959 = CARTESIAN_POINT('',(0.241740392135,6.149473283561));
#960 = CARTESIAN_POINT('',(0.229116451325,6.149473283561));
#961 = CARTESIAN_POINT('',(0.203889738256,6.149473283561));
#962 = CARTESIAN_POINT('',(0.191286966336,6.149473283561));
#963 = CARTESIAN_POINT('',(0.178684194812,6.149473283561));
#964 = CARTESIAN_POINT('',(0.166081423147,6.149473283561));
#965 = ( GEOMETRIC_REPRESENTATION_CONTEXT(2) 
PARAMETRIC_REPRESENTATION_CONTEXT() REPRESENTATION_CONTEXT('2D SPACE',''
  ) );
#966 = PCURVE('',#967,#972);
#967 = PLANE('',#968);
#968 = AXIS2_PLACEMENT_3D('',#969,#970,#971);
#969 = CARTESIAN_POINT('',(192.5,33.9,-13.75));
#970 = DIRECTION('',(0.,0.,1.));
#971 = DIRECTION('',(1.,0.,-0.));
#972 = DEFINITIONAL_REPRESENTATION('',(#973),#982);
#973 = B_SPLINE_CURVE_WITH_KNOTS('',4,(#974,#975,#976,#977,#978,#979,
    #980,#981),.UNSPECIFIED.,.F.,.F.,(5,3,5),(0.,0.500419589728,1.),
  .UNSPECIFIED.);
#974 = CARTESIAN_POINT('',(5.292895261209,20.2));
#975 = CARTESIAN_POINT('',(5.975850492531,17.703074080644));
#976 = CARTESIAN_POINT('',(6.616777675601,15.194652642834));
#977 = CARTESIAN_POINT('',(7.21538650515,12.675797103282));
#978 = CARTESIAN_POINT('',(8.326562222007,7.623606935237));
#979 = CARTESIAN_POINT('',(8.839271745383,5.090303535461));
#980 = CARTESIAN_POINT('',(9.309333989315,2.548741288162));
#981 = CARTESIAN_POINT('',(9.736567949052,0.));
#982 = ( GEOMETRIC_REPRESENTATION_CONTEXT(2) 
PARAMETRIC_REPRESENTATION_CONTEXT() REPRESENTATION_CONTEXT('2D SPACE',''
  ) );
#983 = ORIENTED_EDGE('',*,*,#984,.T.);
#984 = EDGE_CURVE('',#942,#985,#987,.T.);
#985 = VERTEX_POINT('',#986);
#986 = CARTESIAN_POINT('',(198.07833816152,33.9,24.55));
#987 = SURFACE_CURVE('',#988,(#1006,#1027),.PCURVE_S1.);
#988 = B_SPLINE_CURVE_WITH_KNOTS('',6,(#989,#990,#991,#992,#993,#994,
    #995,#996,#997,#998,#999,#1000,#1001,#1002,#1003,#1004,#1005),
  .UNSPECIFIED.,.F.,.F.,(7,5,5,7),(0.,0.353423948661,0.77793840083,1.),
  .UNSPECIFIED.);
#989 = CARTESIAN_POINT('',(202.23656794905,33.9,-13.75));
#990 = CARTESIAN_POINT('',(202.84947245926,33.9,-11.50992743015));
#991 = CARTESIAN_POINT('',(203.3489053691,33.9,-9.238501863978));
#992 = CARTESIAN_POINT('',(203.72833527248,33.9,-6.942263655911));
#993 = CARTESIAN_POINT('',(203.98286271519,33.9,-4.628617217815));
#994 = CARTESIAN_POINT('',(204.1097182841,33.9,-2.305897097959));
#995 = CARTESIAN_POINT('',(204.1080511932,33.9,2.806130974956));
#996 = CARTESIAN_POINT('',(203.92302662288,33.9,5.596183278808));
#997 = CARTESIAN_POINT('',(203.55377624798,33.9,8.370147372267));
#998 = CARTESIAN_POINT('',(203.00621821592,33.9,11.113959062626));
#999 = CARTESIAN_POINT('',(202.29027251418,33.9,13.815722571029));
#1000 = CARTESIAN_POINT('',(200.96257149426,33.9,17.851591483589));
#1001 = CARTESIAN_POINT('',(200.46389957929,33.9,19.223639126685));
#1002 = CARTESIAN_POINT('',(199.92427532459,33.9,20.580389540812));
#1003 = CARTESIAN_POINT('',(199.34554906761,33.9,21.92084556891));
#1004 = CARTESIAN_POINT('',(198.72961544359,33.9,23.244238982016));
#1005 = CARTESIAN_POINT('',(198.07833816152,33.9,24.55));
#1006 = PCURVE('',#408,#1007);
#1007 = DEFINITIONAL_REPRESENTATION('',(#1008),#1026);
#1008 = B_SPLINE_CURVE_WITH_KNOTS('',6,(#1009,#1010,#1011,#1012,#1013,
    #1014,#1015,#1016,#1017,#1018,#1019,#1020,#1021,#1022,#1023,#1024,
    #1025),.UNSPECIFIED.,.F.,.F.,(7,5,5,7),(0.,0.353423948661,
    0.77793840083,1.),.UNSPECIFIED.);
#1009 = CARTESIAN_POINT('',(0.166081423034,6.149473283561));
#1010 = CARTESIAN_POINT('',(0.165587296129,6.171387651045));
#1011 = CARTESIAN_POINT('',(0.165188146172,6.193531221819));
#1012 = CARTESIAN_POINT('',(0.16488676775,6.215855917542));
#1013 = CARTESIAN_POINT('',(0.164685218076,6.238308371135));
#1014 = CARTESIAN_POINT('',(0.164584763763,6.260828344529));
#1015 = CARTESIAN_POINT('',(0.164586083894,6.310392317175));
#1016 = CARTESIAN_POINT('',(0.164732601771,6.337443574707));
#1017 = CARTESIAN_POINT('',(0.165025002525,6.364374611153));
#1018 = CARTESIAN_POINT('',(0.165460554578,6.391084700079));
#1019 = CARTESIAN_POINT('',(0.166035168524,6.417488690434));
#1020 = CARTESIAN_POINT('',(0.167114040167,6.457127062135));
#1021 = CARTESIAN_POINT('',(0.167521211725,6.470638620423));
#1022 = CARTESIAN_POINT('',(0.167964325345,6.48403943699));
#1023 = CARTESIAN_POINT('',(0.168442658585,6.497322735786));
#1024 = CARTESIAN_POINT('',(0.168955504514,6.510483502845));
#1025 = CARTESIAN_POINT('',(0.16950221038,6.523518219985));
#1026 = ( GEOMETRIC_REPRESENTATION_CONTEXT(2) 
PARAMETRIC_REPRESENTATION_CONTEXT() REPRESENTATION_CONTEXT('2D SPACE',''
  ) );
#1027 = PCURVE('',#1028,#1033);
#1028 = PLANE('',#1029);
#1029 = AXIS2_PLACEMENT_3D('',#1030,#1031,#1032);
#1030 = CARTESIAN_POINT('',(192.5,33.9,-13.75));
#1031 = DIRECTION('',(-0.,1.,0.));
#1032 = DIRECTION('',(0.,0.,1.));
#1033 = DEFINITIONAL_REPRESENTATION('',(#1034),#1052);
#1034 = B_SPLINE_CURVE_WITH_KNOTS('',6,(#1035,#1036,#1037,#1038,#1039,
    #1040,#1041,#1042,#1043,#1044,#1045,#1046,#1047,#1048,#1049,#1050,
    #1051),.UNSPECIFIED.,.F.,.F.,(7,5,5,7),(0.,0.353423948661,
    0.77793840083,1.),.UNSPECIFIED.);
#1035 = CARTESIAN_POINT('',(0.,9.736567949052));
#1036 = CARTESIAN_POINT('',(2.240072569843,10.34947245926));
#1037 = CARTESIAN_POINT('',(4.511498136022,10.848905369101));
#1038 = CARTESIAN_POINT('',(6.807736344089,11.228335272487));
#1039 = CARTESIAN_POINT('',(9.121382782185,11.48286271519));
#1040 = CARTESIAN_POINT('',(11.444102902041,11.609718284101));
#1041 = CARTESIAN_POINT('',(16.556130974956,11.6080511932));
#1042 = CARTESIAN_POINT('',(19.346183278808,11.423026622882));
#1043 = CARTESIAN_POINT('',(22.120147372267,11.05377624798));
#1044 = CARTESIAN_POINT('',(24.863959062626,10.506218215928));
#1045 = CARTESIAN_POINT('',(27.565722571029,9.790272514181));
#1046 = CARTESIAN_POINT('',(31.601591483589,8.462571494262));
#1047 = CARTESIAN_POINT('',(32.973639126685,7.963899579293));
#1048 = CARTESIAN_POINT('',(34.330389540812,7.424275324599));
#1049 = CARTESIAN_POINT('',(35.67084556891,6.845549067616));
#1050 = CARTESIAN_POINT('',(36.994238982016,6.229615443597));
#1051 = CARTESIAN_POINT('',(38.3,5.578338161526));
#1052 = ( GEOMETRIC_REPRESENTATION_CONTEXT(2) 
PARAMETRIC_REPRESENTATION_CONTEXT() REPRESENTATION_CONTEXT('2D SPACE',''
  ) );
#1053 = ORIENTED_EDGE('',*,*,#1054,.F.);
#1054 = EDGE_CURVE('',#1055,#985,#1057,.T.);
#1055 = VERTEX_POINT('',#1056);
#1056 = CARTESIAN_POINT('',(193.53921579057,54.1,24.55));
#1057 = SURFACE_CURVE('',#1058,(#1067,#1079),.PCURVE_S1.);
#1058 = B_SPLINE_CURVE_WITH_KNOTS('',4,(#1059,#1060,#1061,#1062,#1063,
    #1064,#1065,#1066),.UNSPECIFIED.,.F.,.F.,(5,3,5),(0.,0.500079901099,
    1.),.UNSPECIFIED.);
#1059 = CARTESIAN_POINT('',(193.53921579057,54.1,24.55));
#1060 = CARTESIAN_POINT('',(194.23634161346,51.606077915159,24.55));
#1061 = CARTESIAN_POINT('',(194.89061896219,49.100178320597,24.55));
#1062 = CARTESIAN_POINT('',(195.50173907906,46.583405818713,24.55));
#1063 = CARTESIAN_POINT('',(196.63698052197,41.531160432666,24.55));
#1064 = CARTESIAN_POINT('',(197.16112962152,38.995693633437,24.55));
#1065 = CARTESIAN_POINT('',(197.64164659889,36.451597015587,24.55));
#1066 = CARTESIAN_POINT('',(198.07833816152,33.9,24.55));
#1067 = PCURVE('',#408,#1068);
#1068 = DEFINITIONAL_REPRESENTATION('',(#1069),#1078);
#1069 = B_SPLINE_CURVE_WITH_KNOTS('',4,(#1070,#1071,#1072,#1073,#1074,
    #1075,#1076,#1077),.UNSPECIFIED.,.F.,.F.,(5,3,5),(0.,0.500079901099,
    1.),.UNSPECIFIED.);
#1070 = CARTESIAN_POINT('',(0.272572738174,6.523518219985));
#1071 = CARTESIAN_POINT('',(0.259686863469,6.523518219985));
#1072 = CARTESIAN_POINT('',(0.24680098743,6.523518219985));
#1073 = CARTESIAN_POINT('',(0.233915113269,6.523518219985));
#1074 = CARTESIAN_POINT('',(0.208147481581,6.523518219985));
#1075 = CARTESIAN_POINT('',(0.195265724023,6.523518219985));
#1076 = CARTESIAN_POINT('',(0.182383967722,6.523518219985));
#1077 = CARTESIAN_POINT('',(0.169502210739,6.523518219985));
#1078 = ( GEOMETRIC_REPRESENTATION_CONTEXT(2) 
PARAMETRIC_REPRESENTATION_CONTEXT() REPRESENTATION_CONTEXT('2D SPACE',''
  ) );
#1079 = PCURVE('',#1080,#1085);
#1080 = PLANE('',#1081);
#1081 = AXIS2_PLACEMENT_3D('',#1082,#1083,#1084);
#1082 = CARTESIAN_POINT('',(192.5,33.9,24.55));
#1083 = DIRECTION('',(0.,0.,1.));
#1084 = DIRECTION('',(1.,0.,-0.));
#1085 = DEFINITIONAL_REPRESENTATION('',(#1086),#1095);
#1086 = B_SPLINE_CURVE_WITH_KNOTS('',4,(#1087,#1088,#1089,#1090,#1091,
    #1092,#1093,#1094),.UNSPECIFIED.,.F.,.F.,(5,3,5),(0.,0.500079901099,
    1.),.UNSPECIFIED.);
#1087 = CARTESIAN_POINT('',(1.039215790577,20.2));
#1088 = CARTESIAN_POINT('',(1.736341613462,17.706077915159));
#1089 = CARTESIAN_POINT('',(2.390618962194,15.200178320597));
#1090 = CARTESIAN_POINT('',(3.001739079069,12.683405818713));
#1091 = CARTESIAN_POINT('',(4.136980521971,7.631160432666));
#1092 = CARTESIAN_POINT('',(4.661129621528,5.095693633437));
#1093 = CARTESIAN_POINT('',(5.141646598895,2.551597015587));
#1094 = CARTESIAN_POINT('',(5.578338161526,0.));
#1095 = ( GEOMETRIC_REPRESENTATION_CONTEXT(2) 
PARAMETRIC_REPRESENTATION_CONTEXT() REPRESENTATION_CONTEXT('2D SPACE',''
  ) );
#1096 = ORIENTED_EDGE('',*,*,#1097,.F.);
#1097 = EDGE_CURVE('',#940,#1055,#1098,.T.);
#1098 = SURFACE_CURVE('',#1099,(#1117,#1138),.PCURVE_S1.);
#1099 = B_SPLINE_CURVE_WITH_KNOTS('',6,(#1100,#1101,#1102,#1103,#1104,
    #1105,#1106,#1107,#1108,#1109,#1110,#1111,#1112,#1113,#1114,#1115,
    #1116),.UNSPECIFIED.,.F.,.F.,(7,5,5,7),(0.,0.353162705863,
    0.776326534256,1.),.UNSPECIFIED.);
#1100 = CARTESIAN_POINT('',(197.7928952612,54.1,-13.75));
#1101 = CARTESIAN_POINT('',(198.41891564405,54.1,-11.51226453032));
#1102 = CARTESIAN_POINT('',(198.92943387917,54.1,-9.241882767375));
#1103 = CARTESIAN_POINT('',(199.31751697301,54.1,-6.945607029252));
#1104 = CARTESIAN_POINT('',(199.57793899345,54.1,-4.631125100423));
#1105 = CARTESIAN_POINT('',(199.70773016036,54.1,-2.307134679726));
#1106 = CARTESIAN_POINT('',(199.70602645262,54.1,2.800821746079));
#1107 = CARTESIAN_POINT('',(199.51764176335,54.1,5.585581850771));
#1108 = CARTESIAN_POINT('',(199.14168089425,54.1,8.353602216499));
#1109 = CARTESIAN_POINT('',(198.58442919845,54.1,11.09032785899));
#1110 = CARTESIAN_POINT('',(197.85635371182,54.1,13.783524842616));
#1111 = CARTESIAN_POINT('',(196.50255991689,54.1,17.818237085147));
#1112 = CARTESIAN_POINT('',(195.99032920169,54.1,19.198627574566));
#1113 = CARTESIAN_POINT('',(195.4358739645,54.1,20.562908095486));
#1114 = CARTESIAN_POINT('',(194.8411881426,54.1,21.91004823639));
#1115 = CARTESIAN_POINT('',(194.20830549447,54.1,23.239267373478));
#1116 = CARTESIAN_POINT('',(193.53921579057,54.1,24.55));
#1117 = PCURVE('',#408,#1118);
#1118 = DEFINITIONAL_REPRESENTATION('',(#1119),#1137);
#1119 = B_SPLINE_CURVE_WITH_KNOTS('',6,(#1120,#1121,#1122,#1123,#1124,
    #1125,#1126,#1127,#1128,#1129,#1130,#1131,#1132,#1133,#1134,#1135,
    #1136),.UNSPECIFIED.,.F.,.F.,(7,5,5,7),(0.,0.353162705863,
    0.776326534256,1.),.UNSPECIFIED.);
#1120 = CARTESIAN_POINT('',(0.266988275764,6.149473283561));
#1121 = CARTESIAN_POINT('',(0.266182838487,6.171364787468));
#1122 = CARTESIAN_POINT('',(0.265531697975,6.193498308484));
#1123 = CARTESIAN_POINT('',(0.265039765668,6.21582346895));
#1124 = CARTESIAN_POINT('',(0.264710669806,6.238284056001));
#1125 = CARTESIAN_POINT('',(0.264546647889,6.260816345481));
#1126 = CARTESIAN_POINT('',(0.264548800921,6.31034084123));
#1127 = CARTESIAN_POINT('',(0.26478687092,6.337340787399));
#1128 = CARTESIAN_POINT('',(0.265261984037,6.364213992251));
#1129 = CARTESIAN_POINT('',(0.265969365663,6.39085476863));
#1130 = CARTESIAN_POINT('',(0.266901872792,6.417174219341));
#1131 = CARTESIAN_POINT('',(0.268657212144,6.456798562607));
#1132 = CARTESIAN_POINT('',(0.26932459351,6.470391519722));
#1133 = CARTESIAN_POINT('',(0.27005111238,6.48386615152));
#1134 = CARTESIAN_POINT('',(0.27083547202,6.497215332881));
#1135 = CARTESIAN_POINT('',(0.271676403952,6.510433873923));
#1136 = CARTESIAN_POINT('',(0.272572737638,6.523518219985));
#1137 = ( GEOMETRIC_REPRESENTATION_CONTEXT(2) 
PARAMETRIC_REPRESENTATION_CONTEXT() REPRESENTATION_CONTEXT('2D SPACE',''
  ) );
#1138 = PCURVE('',#1139,#1144);
#1139 = PLANE('',#1140);
#1140 = AXIS2_PLACEMENT_3D('',#1141,#1142,#1143);
#1141 = CARTESIAN_POINT('',(192.5,54.1,-13.75));
#1142 = DIRECTION('',(-0.,1.,0.));
#1143 = DIRECTION('',(0.,0.,1.));
#1144 = DEFINITIONAL_REPRESENTATION('',(#1145),#1163);
#1145 = B_SPLINE_CURVE_WITH_KNOTS('',6,(#1146,#1147,#1148,#1149,#1150,
    #1151,#1152,#1153,#1154,#1155,#1156,#1157,#1158,#1159,#1160,#1161,
    #1162),.UNSPECIFIED.,.F.,.F.,(7,5,5,7),(0.,0.353162705863,
    0.776326534256,1.),.UNSPECIFIED.);
#1146 = CARTESIAN_POINT('',(0.,5.292895261209));
#1147 = CARTESIAN_POINT('',(2.237735469678,5.918915644056));
#1148 = CARTESIAN_POINT('',(4.508117232625,6.429433879174));
#1149 = CARTESIAN_POINT('',(6.804392970748,6.817516973019));
#1150 = CARTESIAN_POINT('',(9.118874899577,7.077938993452));
#1151 = CARTESIAN_POINT('',(11.442865320274,7.207730160361));
#1152 = CARTESIAN_POINT('',(16.550821746079,7.206026452625));
#1153 = CARTESIAN_POINT('',(19.335581850771,7.017641763356));
#1154 = CARTESIAN_POINT('',(22.103602216499,6.641680894257));
#1155 = CARTESIAN_POINT('',(24.84032785899,6.084429198455));
#1156 = CARTESIAN_POINT('',(27.533524842616,5.356353711828));
#1157 = CARTESIAN_POINT('',(31.568237085147,4.002559916892));
#1158 = CARTESIAN_POINT('',(32.948627574566,3.490329201695));
#1159 = CARTESIAN_POINT('',(34.312908095486,2.935873964504));
#1160 = CARTESIAN_POINT('',(35.66004823639,2.341188142602));
#1161 = CARTESIAN_POINT('',(36.989267373478,1.708305494472));
#1162 = CARTESIAN_POINT('',(38.3,1.039215790577));
#1163 = ( GEOMETRIC_REPRESENTATION_CONTEXT(2) 
PARAMETRIC_REPRESENTATION_CONTEXT() REPRESENTATION_CONTEXT('2D SPACE',''
  ) );
#1164 = ADVANCED_FACE('',(#1165,#1259,#1262,#1265),#657,.T.);
#1165 = FACE_BOUND('',#1166,.T.);
#1166 = EDGE_LOOP('',(#1167,#1192,#1215,#1238));
#1167 = ORIENTED_EDGE('',*,*,#1168,.F.);
#1168 = EDGE_CURVE('',#1169,#1171,#1173,.T.);
#1169 = VERTEX_POINT('',#1170);
#1170 = CARTESIAN_POINT('',(192.5,33.9,-13.75));
#1171 = VERTEX_POINT('',#1172);
#1172 = CARTESIAN_POINT('',(192.5,33.9,24.55));
#1173 = SURFACE_CURVE('',#1174,(#1178,#1185),.PCURVE_S1.);
#1174 = LINE('',#1175,#1176);
#1175 = CARTESIAN_POINT('',(192.5,33.9,-13.75));
#1176 = VECTOR('',#1177,1.);
#1177 = DIRECTION('',(0.,0.,1.));
#1178 = PCURVE('',#657,#1179);
#1179 = DEFINITIONAL_REPRESENTATION('',(#1180),#1184);
#1180 = LINE('',#1181,#1182);
#1181 = CARTESIAN_POINT('',(0.,0.));
#1182 = VECTOR('',#1183,1.);
#1183 = DIRECTION('',(1.,0.));
#1184 = ( GEOMETRIC_REPRESENTATION_CONTEXT(2) 
PARAMETRIC_REPRESENTATION_CONTEXT() REPRESENTATION_CONTEXT('2D SPACE',''
  ) );
#1185 = PCURVE('',#1028,#1186);
#1186 = DEFINITIONAL_REPRESENTATION('',(#1187),#1191);
#1187 = LINE('',#1188,#1189);
#1188 = CARTESIAN_POINT('',(0.,0.));
#1189 = VECTOR('',#1190,1.);
#1190 = DIRECTION('',(1.,0.));
#1191 = ( GEOMETRIC_REPRESENTATION_CONTEXT(2) 
PARAMETRIC_REPRESENTATION_CONTEXT() REPRESENTATION_CONTEXT('2D SPACE',''
  ) );
#1192 = ORIENTED_EDGE('',*,*,#1193,.T.);
#1193 = EDGE_CURVE('',#1169,#1194,#1196,.T.);
#1194 = VERTEX_POINT('',#1195);
#1195 = CARTESIAN_POINT('',(192.5,54.1,-13.75));
#1196 = SURFACE_CURVE('',#1197,(#1201,#1208),.PCURVE_S1.);
#1197 = LINE('',#1198,#1199);
#1198 = CARTESIAN_POINT('',(192.5,33.9,-13.75));
#1199 = VECTOR('',#1200,1.);
#1200 = DIRECTION('',(-0.,1.,0.));
#1201 = PCURVE('',#657,#1202);
#1202 = DEFINITIONAL_REPRESENTATION('',(#1203),#1207);
#1203 = LINE('',#1204,#1205);
#1204 = CARTESIAN_POINT('',(0.,0.));
#1205 = VECTOR('',#1206,1.);
#1206 = DIRECTION('',(0.,-1.));
#1207 = ( GEOMETRIC_REPRESENTATION_CONTEXT(2) 
PARAMETRIC_REPRESENTATION_CONTEXT() REPRESENTATION_CONTEXT('2D SPACE',''
  ) );
#1208 = PCURVE('',#967,#1209);
#1209 = DEFINITIONAL_REPRESENTATION('',(#1210),#1214);
#1210 = LINE('',#1211,#1212);
#1211 = CARTESIAN_POINT('',(0.,0.));
#1212 = VECTOR('',#1213,1.);
#1213 = DIRECTION('',(0.,1.));
#1214 = ( GEOMETRIC_REPRESENTATION_CONTEXT(2) 
PARAMETRIC_REPRESENTATION_CONTEXT() REPRESENTATION_CONTEXT('2D SPACE',''
  ) );
#1215 = ORIENTED_EDGE('',*,*,#1216,.T.);
#1216 = EDGE_CURVE('',#1194,#1217,#1219,.T.);
#1217 = VERTEX_POINT('',#1218);
#1218 = CARTESIAN_POINT('',(192.5,54.1,24.55));
#1219 = SURFACE_CURVE('',#1220,(#1224,#1231),.PCURVE_S1.);
#1220 = LINE('',#1221,#1222);
#1221 = CARTESIAN_POINT('',(192.5,54.1,-13.75));
#1222 = VECTOR('',#1223,1.);
#1223 = DIRECTION('',(0.,0.,1.));
#1224 = PCURVE('',#657,#1225);
#1225 = DEFINITIONAL_REPRESENTATION('',(#1226),#1230);
#1226 = LINE('',#1227,#1228);
#1227 = CARTESIAN_POINT('',(0.,-20.2));
#1228 = VECTOR('',#1229,1.);
#1229 = DIRECTION('',(1.,0.));
#1230 = ( GEOMETRIC_REPRESENTATION_CONTEXT(2) 
PARAMETRIC_REPRESENTATION_CONTEXT() REPRESENTATION_CONTEXT('2D SPACE',''
  ) );
#1231 = PCURVE('',#1139,#1232);
#1232 = DEFINITIONAL_REPRESENTATION('',(#1233),#1237);
#1233 = LINE('',#1234,#1235);
#1234 = CARTESIAN_POINT('',(0.,0.));
#1235 = VECTOR('',#1236,1.);
#1236 = DIRECTION('',(1.,0.));
#1237 = ( GEOMETRIC_REPRESENTATION_CONTEXT(2) 
PARAMETRIC_REPRESENTATION_CONTEXT() REPRESENTATION_CONTEXT('2D SPACE',''
  ) );
#1238 = ORIENTED_EDGE('',*,*,#1239,.F.);
#1239 = EDGE_CURVE('',#1171,#1217,#1240,.T.);
#1240 = SURFACE_CURVE('',#1241,(#1245,#1252),.PCURVE_S1.);
#1241 = LINE('',#1242,#1243);
#1242 = CARTESIAN_POINT('',(192.5,33.9,24.55));
#1243 = VECTOR('',#1244,1.);
#1244 = DIRECTION('',(-0.,1.,0.));
#1245 = PCURVE('',#657,#1246);
#1246 = DEFINITIONAL_REPRESENTATION('',(#1247),#1251);
#1247 = LINE('',#1248,#1249);
#1248 = CARTESIAN_POINT('',(38.3,0.));
#1249 = VECTOR('',#1250,1.);
#1250 = DIRECTION('',(0.,-1.));
#1251 = ( GEOMETRIC_REPRESENTATION_CONTEXT(2) 
PARAMETRIC_REPRESENTATION_CONTEXT() REPRESENTATION_CONTEXT('2D SPACE',''
  ) );
#1252 = PCURVE('',#1080,#1253);
#1253 = DEFINITIONAL_REPRESENTATION('',(#1254),#1258);
#1254 = LINE('',#1255,#1256);
#1255 = CARTESIAN_POINT('',(0.,0.));
#1256 = VECTOR('',#1257,1.);
#1257 = DIRECTION('',(0.,1.));
#1258 = ( GEOMETRIC_REPRESENTATION_CONTEXT(2) 
PARAMETRIC_REPRESENTATION_CONTEXT() REPRESENTATION_CONTEXT('2D SPACE',''
  ) );
#1259 = FACE_BOUND('',#1260,.T.);
#1260 = EDGE_LOOP('',(#1261));
#1261 = ORIENTED_EDGE('',*,*,#640,.F.);
#1262 = FACE_BOUND('',#1263,.T.);
#1263 = EDGE_LOOP('',(#1264));
#1264 = ORIENTED_EDGE('',*,*,#695,.F.);
#1265 = FACE_BOUND('',#1266,.T.);
#1266 = EDGE_LOOP('',(#1267,#1268,#1269,#1270));
#1267 = ORIENTED_EDGE('',*,*,#792,.T.);
#1268 = ORIENTED_EDGE('',*,*,#886,.T.);
#1269 = ORIENTED_EDGE('',*,*,#911,.F.);
#1270 = ORIENTED_EDGE('',*,*,#839,.F.);
#1271 = ADVANCED_FACE('',(#1272),#967,.T.);
#1272 = FACE_BOUND('',#1273,.T.);
#1273 = EDGE_LOOP('',(#1274,#1295,#1296,#1317));
#1274 = ORIENTED_EDGE('',*,*,#1275,.F.);
#1275 = EDGE_CURVE('',#1194,#940,#1276,.T.);
#1276 = SURFACE_CURVE('',#1277,(#1281,#1288),.PCURVE_S1.);
#1277 = LINE('',#1278,#1279);
#1278 = CARTESIAN_POINT('',(192.5,54.1,-13.75));
#1279 = VECTOR('',#1280,1.);
#1280 = DIRECTION('',(1.,0.,-0.));
#1281 = PCURVE('',#967,#1282);
#1282 = DEFINITIONAL_REPRESENTATION('',(#1283),#1287);
#1283 = LINE('',#1284,#1285);
#1284 = CARTESIAN_POINT('',(0.,20.2));
#1285 = VECTOR('',#1286,1.);
#1286 = DIRECTION('',(1.,0.));
#1287 = ( GEOMETRIC_REPRESENTATION_CONTEXT(2) 
PARAMETRIC_REPRESENTATION_CONTEXT() REPRESENTATION_CONTEXT('2D SPACE',''
  ) );
#1288 = PCURVE('',#1139,#1289);
#1289 = DEFINITIONAL_REPRESENTATION('',(#1290),#1294);
#1290 = LINE('',#1291,#1292);
#1291 = CARTESIAN_POINT('',(0.,0.));
#1292 = VECTOR('',#1293,1.);
#1293 = DIRECTION('',(0.,1.));
#1294 = ( GEOMETRIC_REPRESENTATION_CONTEXT(2) 
PARAMETRIC_REPRESENTATION_CONTEXT() REPRESENTATION_CONTEXT('2D SPACE',''
  ) );
#1295 = ORIENTED_EDGE('',*,*,#1193,.F.);
#1296 = ORIENTED_EDGE('',*,*,#1297,.T.);
#1297 = EDGE_CURVE('',#1169,#942,#1298,.T.);
#1298 = SURFACE_CURVE('',#1299,(#1303,#1310),.PCURVE_S1.);
#1299 = LINE('',#1300,#1301);
#1300 = CARTESIAN_POINT('',(192.5,33.9,-13.75));
#1301 = VECTOR('',#1302,1.);
#1302 = DIRECTION('',(1.,0.,-0.));
#1303 = PCURVE('',#967,#1304);
#1304 = DEFINITIONAL_REPRESENTATION('',(#1305),#1309);
#1305 = LINE('',#1306,#1307);
#1306 = CARTESIAN_POINT('',(0.,0.));
#1307 = VECTOR('',#1308,1.);
#1308 = DIRECTION('',(1.,0.));
#1309 = ( GEOMETRIC_REPRESENTATION_CONTEXT(2) 
PARAMETRIC_REPRESENTATION_CONTEXT() REPRESENTATION_CONTEXT('2D SPACE',''
  ) );
#1310 = PCURVE('',#1028,#1311);
#1311 = DEFINITIONAL_REPRESENTATION('',(#1312),#1316);
#1312 = LINE('',#1313,#1314);
#1313 = CARTESIAN_POINT('',(0.,0.));
#1314 = VECTOR('',#1315,1.);
#1315 = DIRECTION('',(0.,1.));
#1316 = ( GEOMETRIC_REPRESENTATION_CONTEXT(2) 
PARAMETRIC_REPRESENTATION_CONTEXT() REPRESENTATION_CONTEXT('2D SPACE',''
  ) );
#1317 = ORIENTED_EDGE('',*,*,#939,.F.);
#1318 = ADVANCED_FACE('',(#1319),#1139,.F.);
#1319 = FACE_BOUND('',#1320,.F.);
#1320 = EDGE_LOOP('',(#1321,#1322,#1323,#1344));
#1321 = ORIENTED_EDGE('',*,*,#1275,.F.);
#1322 = ORIENTED_EDGE('',*,*,#1216,.T.);
#1323 = ORIENTED_EDGE('',*,*,#1324,.T.);
#1324 = EDGE_CURVE('',#1217,#1055,#1325,.T.);
#1325 = SURFACE_CURVE('',#1326,(#1330,#1337),.PCURVE_S1.);
#1326 = LINE('',#1327,#1328);
#1327 = CARTESIAN_POINT('',(192.5,54.1,24.55));
#1328 = VECTOR('',#1329,1.);
#1329 = DIRECTION('',(1.,0.,-0.));
#1330 = PCURVE('',#1139,#1331);
#1331 = DEFINITIONAL_REPRESENTATION('',(#1332),#1336);
#1332 = LINE('',#1333,#1334);
#1333 = CARTESIAN_POINT('',(38.3,0.));
#1334 = VECTOR('',#1335,1.);
#1335 = DIRECTION('',(0.,1.));
#1336 = ( GEOMETRIC_REPRESENTATION_CONTEXT(2) 
PARAMETRIC_REPRESENTATION_CONTEXT() REPRESENTATION_CONTEXT('2D SPACE',''
  ) );
#1337 = PCURVE('',#1080,#1338);
#1338 = DEFINITIONAL_REPRESENTATION('',(#1339),#1343);
#1339 = LINE('',#1340,#1341);
#1340 = CARTESIAN_POINT('',(0.,20.2));
#1341 = VECTOR('',#1342,1.);
#1342 = DIRECTION('',(1.,0.));
#1343 = ( GEOMETRIC_REPRESENTATION_CONTEXT(2) 
PARAMETRIC_REPRESENTATION_CONTEXT() REPRESENTATION_CONTEXT('2D SPACE',''
  ) );
#1344 = ORIENTED_EDGE('',*,*,#1097,.F.);
#1345 = ADVANCED_FACE('',(#1346),#1080,.F.);
#1346 = FACE_BOUND('',#1347,.F.);
#1347 = EDGE_LOOP('',(#1348,#1349,#1350,#1371));
#1348 = ORIENTED_EDGE('',*,*,#1324,.F.);
#1349 = ORIENTED_EDGE('',*,*,#1239,.F.);
#1350 = ORIENTED_EDGE('',*,*,#1351,.T.);
#1351 = EDGE_CURVE('',#1171,#985,#1352,.T.);
#1352 = SURFACE_CURVE('',#1353,(#1357,#1364),.PCURVE_S1.);
#1353 = LINE('',#1354,#1355);
#1354 = CARTESIAN_POINT('',(192.5,33.9,24.55));
#1355 = VECTOR('',#1356,1.);
#1356 = DIRECTION('',(1.,0.,-0.));
#1357 = PCURVE('',#1080,#1358);
#1358 = DEFINITIONAL_REPRESENTATION('',(#1359),#1363);
#1359 = LINE('',#1360,#1361);
#1360 = CARTESIAN_POINT('',(0.,0.));
#1361 = VECTOR('',#1362,1.);
#1362 = DIRECTION('',(1.,0.));
#1363 = ( GEOMETRIC_REPRESENTATION_CONTEXT(2) 
PARAMETRIC_REPRESENTATION_CONTEXT() REPRESENTATION_CONTEXT('2D SPACE',''
  ) );
#1364 = PCURVE('',#1028,#1365);
#1365 = DEFINITIONAL_REPRESENTATION('',(#1366),#1370);
#1366 = LINE('',#1367,#1368);
#1367 = CARTESIAN_POINT('',(38.3,0.));
#1368 = VECTOR('',#1369,1.);
#1369 = DIRECTION('',(0.,1.));
#1370 = ( GEOMETRIC_REPRESENTATION_CONTEXT(2) 
PARAMETRIC_REPRESENTATION_CONTEXT() REPRESENTATION_CONTEXT('2D SPACE',''
  ) );
#1371 = ORIENTED_EDGE('',*,*,#1054,.F.);
#1372 = ADVANCED_FACE('',(#1373),#1028,.T.);
#1373 = FACE_BOUND('',#1374,.T.);
#1374 = EDGE_LOOP('',(#1375,#1376,#1377,#1378));
#1375 = ORIENTED_EDGE('',*,*,#1297,.F.);
#1376 = ORIENTED_EDGE('',*,*,#1168,.T.);
#1377 = ORIENTED_EDGE('',*,*,#1351,.T.);
#1378 = ORIENTED_EDGE('',*,*,#984,.F.);
#1379 = ( GEOMETRIC_REPRESENTATION_CONTEXT(3) 
GLOBAL_UNCERTAINTY_ASSIGNED_CONTEXT((#1383)) 
GLOBAL_UNIT_ASSIGNED_CONTEXT((#1380,#1381,#1382)) REPRESENTATION_CONTEXT
('Context #1','3D Context with UNIT and UNCERTAINTY') );
#1380 = ( LENGTH_UNIT() NAMED_UNIT(*) SI_UNIT(.MILLI.,.METRE.) );
#1381 = ( NAMED_UNIT(*) PLANE_ANGLE_UNIT() SI_UNIT($,.RADIAN.) );
#1382 = ( NAMED_UNIT(*) SI_UNIT($,.STERADIAN.) SOLID_ANGLE_UNIT() );
#1383 = UNCERTAINTY_MEASURE_WITH_UNIT(LENGTH_MEASURE(1.E-06),#1380,
  'distance_accuracy_value','confusion accuracy');
#1384 = PRODUCT_RELATED_PRODUCT_CATEGORY('part',$,(#7));
ENDSEC;
END-ISO-10303-21;
