ISO-10303-21;
HEADER;
FILE_DESCRIPTION(('Open CASCADE Model'),'2;1');
FILE_NAME('Open CASCADE Shape Model','2026-09-27T06:11:06',('Author'),(
    'Open CASCADE'),'Open CASCADE STEP processor 7.9','Open CASCADE 7.9'
  ,'Unknown');
FILE_SCHEMA(('AUTOMOTIVE_DESIGN { 1 0 10303 214 1 1 1 1 }'));
ENDSEC;
DATA;
#1 = APPLICATION_PROTOCOL_DEFINITION('international standard',
  'automotive_design',2000,#2);
#2 = APPLICATION_CONTEXT(
  'core data for automotive mechanical design processes');
#3 = SHAPE_DEFINITION_REPRESENTATION(#4,#10);
#4 = PRODUCT_DEFINITION_SHAPE('','',#5);
#5 = PRODUCT_DEFINITION('design','',#6,#9);
#6 = PRODUCT_DEFINITION_FORMATION('','',#7);
#7 = PRODUCT('Open CASCADE STEP translator 7.9 5',
  'Open CASCADE STEP translator 7.9 5','',(#8));
#8 = PRODUCT_CONTEXT('',#2,'mechanical');
#9 = PRODUCT_DEFINITION_CONTEXT('part definition',#2,'design');
#10 = ADVANCED_BREP_SHAPE_REPRESENTATION('',(#11,#15),#1406);
#11 = AXIS2_PLACEMENT_3D('',#12,#13,#14);
#12 = CARTESIAN_POINT('',(0.,0.,0.));
#13 = DIRECTION('',(0.,0.,1.));
#14 = DIRECTION('',(1.,0.,-0.));
#15 = MANIFOLD_SOLID_BREP('',#16);
#16 = CLOSED_SHELL('',(#17,#343,#420,#497,#597,#920,#926,#976,#1026,
    #1095,#1142,#1189,#1214,#1320,#1346,#1373,#1400));
#17 = ADVANCED_FACE('',(#18,#175,#206,#237),#32,.F.);
#18 = FACE_BOUND('',#19,.F.);
#19 = EDGE_LOOP('',(#20,#55,#83,#111,#149));
#20 = ORIENTED_EDGE('',*,*,#21,.F.);
#21 = EDGE_CURVE('',#22,#24,#26,.T.);
#22 = VERTEX_POINT('',#23);
#23 = CARTESIAN_POINT('',(189.5,23.9,8.218778419338));
#24 = VERTEX_POINT('',#25);
#25 = CARTESIAN_POINT('',(189.5,48.1,8.218778419338));
#26 = SURFACE_CURVE('',#27,(#31,#43),.PCURVE_S1.);
#27 = LINE('',#28,#29);
#28 = CARTESIAN_POINT('',(189.5,23.9,8.218778419338));
#29 = VECTOR('',#30,1.);
#30 = DIRECTION('',(-0.,1.,0.));
#31 = PCURVE('',#32,#37);
#32 = PLANE('',#33);
#33 = AXIS2_PLACEMENT_3D('',#34,#35,#36);
#34 = CARTESIAN_POINT('',(189.5,23.9,-34.08122158066));
#35 = DIRECTION('',(1.,0.,-0.));
#36 = DIRECTION('',(0.,0.,1.));
#37 = DEFINITIONAL_REPRESENTATION('',(#38),#42);
#38 = LINE('',#39,#40);
#39 = CARTESIAN_POINT('',(42.3,0.));
#40 = VECTOR('',#41,1.);
#41 = DIRECTION('',(0.,-1.));
#42 = ( GEOMETRIC_REPRESENTATION_CONTEXT(2) 
PARAMETRIC_REPRESENTATION_CONTEXT() REPRESENTATION_CONTEXT('2D SPACE',''
  ) );
#43 = PCURVE('',#44,#49);
#44 = PLANE('',#45);
#45 = AXIS2_PLACEMENT_3D('',#46,#47,#48);
#46 = CARTESIAN_POINT('',(189.5,23.9,8.218778419338));
#47 = DIRECTION('',(0.,0.,1.));
#48 = DIRECTION('',(1.,0.,-0.));
#49 = DEFINITIONAL_REPRESENTATION('',(#50),#54);
#50 = LINE('',#51,#52);
#51 = CARTESIAN_POINT('',(0.,0.));
#52 = VECTOR('',#53,1.);
#53 = DIRECTION('',(0.,1.));
#54 = ( GEOMETRIC_REPRESENTATION_CONTEXT(2) 
PARAMETRIC_REPRESENTATION_CONTEXT() REPRESENTATION_CONTEXT('2D SPACE',''
  ) );
#55 = ORIENTED_EDGE('',*,*,#56,.F.);
#56 = EDGE_CURVE('',#57,#22,#59,.T.);
#57 = VERTEX_POINT('',#58);
#58 = CARTESIAN_POINT('',(189.5,23.9,-34.08122158066));
#59 = SURFACE_CURVE('',#60,(#64,#71),.PCURVE_S1.);
#60 = LINE('',#61,#62);
#61 = CARTESIAN_POINT('',(189.5,23.9,-34.08122158066));
#62 = VECTOR('',#63,1.);
#63 = DIRECTION('',(0.,0.,1.));
#64 = PCURVE('',#32,#65);
#65 = DEFINITIONAL_REPRESENTATION('',(#66),#70);
#66 = LINE('',#67,#68);
#67 = CARTESIAN_POINT('',(0.,0.));
#68 = VECTOR('',#69,1.);
#69 = DIRECTION('',(1.,0.));
#70 = ( GEOMETRIC_REPRESENTATION_CONTEXT(2) 
PARAMETRIC_REPRESENTATION_CONTEXT() REPRESENTATION_CONTEXT('2D SPACE',''
  ) );
#71 = PCURVE('',#72,#77);
#72 = PLANE('',#73);
#73 = AXIS2_PLACEMENT_3D('',#74,#75,#76);
#74 = CARTESIAN_POINT('',(189.5,23.9,-34.08122158066));
#75 = DIRECTION('',(-0.,1.,0.));
#76 = DIRECTION('',(0.,0.,1.));
#77 = DEFINITIONAL_REPRESENTATION('',(#78),#82);
#78 = LINE('',#79,#80);
#79 = CARTESIAN_POINT('',(0.,0.));
#80 = VECTOR('',#81,1.);
#81 = DIRECTION('',(1.,0.));
#82 = ( GEOMETRIC_REPRESENTATION_CONTEXT(2) 
PARAMETRIC_REPRESENTATION_CONTEXT() REPRESENTATION_CONTEXT('2D SPACE',''
  ) );
#83 = ORIENTED_EDGE('',*,*,#84,.T.);
#84 = EDGE_CURVE('',#57,#85,#87,.T.);
#85 = VERTEX_POINT('',#86);
#86 = CARTESIAN_POINT('',(189.5,47.171108910707,-34.08122158066));
#87 = SURFACE_CURVE('',#88,(#92,#99),.PCURVE_S1.);
#88 = LINE('',#89,#90);
#89 = CARTESIAN_POINT('',(189.5,23.9,-34.08122158066));
#90 = VECTOR('',#91,1.);
#91 = DIRECTION('',(-0.,1.,0.));
#92 = PCURVE('',#32,#93);
#93 = DEFINITIONAL_REPRESENTATION('',(#94),#98);
#94 = LINE('',#95,#96);
#95 = CARTESIAN_POINT('',(0.,0.));
#96 = VECTOR('',#97,1.);
#97 = DIRECTION('',(0.,-1.));
#98 = ( GEOMETRIC_REPRESENTATION_CONTEXT(2) 
PARAMETRIC_REPRESENTATION_CONTEXT() REPRESENTATION_CONTEXT('2D SPACE',''
  ) );
#99 = PCURVE('',#100,#105);
#100 = PLANE('',#101);
#101 = AXIS2_PLACEMENT_3D('',#102,#103,#104);
#102 = CARTESIAN_POINT('',(189.5,23.9,-34.08122158066));
#103 = DIRECTION('',(0.,0.,1.));
#104 = DIRECTION('',(1.,0.,-0.));
#105 = DEFINITIONAL_REPRESENTATION('',(#106),#110);
#106 = LINE('',#107,#108);
#107 = CARTESIAN_POINT('',(0.,0.));
#108 = VECTOR('',#109,1.);
#109 = DIRECTION('',(0.,1.));
#110 = ( GEOMETRIC_REPRESENTATION_CONTEXT(2) 
PARAMETRIC_REPRESENTATION_CONTEXT() REPRESENTATION_CONTEXT('2D SPACE',''
  ) );
#111 = ORIENTED_EDGE('',*,*,#112,.F.);
#112 = EDGE_CURVE('',#113,#85,#115,.T.);
#113 = VERTEX_POINT('',#114);
#114 = CARTESIAN_POINT('',(189.5,48.1,-33.75705856006));
#115 = SURFACE_CURVE('',#116,(#122,#131),.PCURVE_S1.);
#116 = B_SPLINE_CURVE_WITH_KNOTS('',3,(#117,#118,#119,#120,#121),
  .UNSPECIFIED.,.F.,.F.,(4,1,4),(0.,0.70767947666,1.),.UNSPECIFIED.);
#117 = CARTESIAN_POINT('',(189.5,48.1,-33.75705856006));
#118 = CARTESIAN_POINT('',(189.5,47.881611248412,-33.83438411179));
#119 = CARTESIAN_POINT('',(189.5,47.571581057054,-33.94303316929));
#120 = CARTESIAN_POINT('',(189.5,47.261825384232,-34.0500212372));
#121 = CARTESIAN_POINT('',(189.5,47.171108910707,-34.08122158066));
#122 = PCURVE('',#32,#123);
#123 = DEFINITIONAL_REPRESENTATION('',(#124),#130);
#124 = B_SPLINE_CURVE_WITH_KNOTS('',3,(#125,#126,#127,#128,#129),
  .UNSPECIFIED.,.F.,.F.,(4,1,4),(0.,0.70767947666,1.),.UNSPECIFIED.);
#125 = CARTESIAN_POINT('',(0.324163020597,-24.2));
#126 = CARTESIAN_POINT('',(0.246837468866,-23.98161124841));
#127 = CARTESIAN_POINT('',(0.138188411371,-23.67158105705));
#128 = CARTESIAN_POINT('',(3.120034345569E-02,-23.36182538423));
#129 = CARTESIAN_POINT('',(0.,-23.2711089107));
#130 = ( GEOMETRIC_REPRESENTATION_CONTEXT(2) 
PARAMETRIC_REPRESENTATION_CONTEXT() REPRESENTATION_CONTEXT('2D SPACE',''
  ) );
#131 = PCURVE('',#132,#141);
#132 = SURFACE_OF_REVOLUTION('',#133,#138);
#133 = ELLIPSE('',#134,206.905,103.14);
#134 = AXIS2_PLACEMENT_3D('',#135,#136,#137);
#135 = CARTESIAN_POINT('',(0.,0.,0.));
#136 = DIRECTION('',(0.,-1.,0.));
#137 = DIRECTION('',(1.,0.,0.));
#138 = AXIS1_PLACEMENT('',#139,#140);
#139 = CARTESIAN_POINT('',(0.,0.,0.));
#140 = DIRECTION('',(0.,0.,1.));
#141 = DEFINITIONAL_REPRESENTATION('',(#142),#148);
#142 = B_SPLINE_CURVE_WITH_KNOTS('',3,(#143,#144,#145,#146,#147),
  .UNSPECIFIED.,.F.,.F.,(4,1,4),(0.,0.70767947666,1.),.UNSPECIFIED.);
#143 = CARTESIAN_POINT('',(0.248576216146,5.949747342017));
#144 = CARTESIAN_POINT('',(0.24749352412,5.948953928463));
#145 = CARTESIAN_POINT('',(0.245955240452,5.947838650051));
#146 = CARTESIAN_POINT('',(0.244416538301,5.946739789556));
#147 = CARTESIAN_POINT('',(0.24396575535,5.946419281251));
#148 = ( GEOMETRIC_REPRESENTATION_CONTEXT(2) 
PARAMETRIC_REPRESENTATION_CONTEXT() REPRESENTATION_CONTEXT('2D SPACE',''
  ) );
#149 = ORIENTED_EDGE('',*,*,#150,.T.);
#150 = EDGE_CURVE('',#113,#24,#151,.T.);
#151 = SURFACE_CURVE('',#152,(#156,#163),.PCURVE_S1.);
#152 = LINE('',#153,#154);
#153 = CARTESIAN_POINT('',(189.5,48.1,-34.08122158066));
#154 = VECTOR('',#155,1.);
#155 = DIRECTION('',(0.,0.,1.));
#156 = PCURVE('',#32,#157);
#157 = DEFINITIONAL_REPRESENTATION('',(#158),#162);
#158 = LINE('',#159,#160);
#159 = CARTESIAN_POINT('',(0.,-24.2));
#160 = VECTOR('',#161,1.);
#161 = DIRECTION('',(1.,0.));
#162 = ( GEOMETRIC_REPRESENTATION_CONTEXT(2) 
PARAMETRIC_REPRESENTATION_CONTEXT() REPRESENTATION_CONTEXT('2D SPACE',''
  ) );
#163 = PCURVE('',#164,#169);
#164 = PLANE('',#165);
#165 = AXIS2_PLACEMENT_3D('',#166,#167,#168);
#166 = CARTESIAN_POINT('',(189.5,48.1,-34.08122158066));
#167 = DIRECTION('',(-0.,1.,0.));
#168 = DIRECTION('',(0.,0.,1.));
#169 = DEFINITIONAL_REPRESENTATION('',(#170),#174);
#170 = LINE('',#171,#172);
#171 = CARTESIAN_POINT('',(0.,0.));
#172 = VECTOR('',#173,1.);
#173 = DIRECTION('',(1.,0.));
#174 = ( GEOMETRIC_REPRESENTATION_CONTEXT(2) 
PARAMETRIC_REPRESENTATION_CONTEXT() REPRESENTATION_CONTEXT('2D SPACE',''
  ) );
#175 = FACE_BOUND('',#176,.F.);
#176 = EDGE_LOOP('',(#177));
#177 = ORIENTED_EDGE('',*,*,#178,.F.);
#178 = EDGE_CURVE('',#179,#179,#181,.T.);
#179 = VERTEX_POINT('',#180);
#180 = CARTESIAN_POINT('',(189.5,36.,-26.03122158066));
#181 = SURFACE_CURVE('',#182,(#187,#194),.PCURVE_S1.);
#182 = CIRCLE('',#183,0.8);
#183 = AXIS2_PLACEMENT_3D('',#184,#185,#186);
#184 = CARTESIAN_POINT('',(189.5,36.,-26.83122158066));
#185 = DIRECTION('',(1.,0.,0.));
#186 = DIRECTION('',(-0.,0.,1.));
#187 = PCURVE('',#32,#188);
#188 = DEFINITIONAL_REPRESENTATION('',(#189),#193);
#189 = CIRCLE('',#190,0.8);
#190 = AXIS2_PLACEMENT_2D('',#191,#192);
#191 = CARTESIAN_POINT('',(7.25,-12.1));
#192 = DIRECTION('',(1.,0.));
#193 = ( GEOMETRIC_REPRESENTATION_CONTEXT(2) 
PARAMETRIC_REPRESENTATION_CONTEXT() REPRESENTATION_CONTEXT('2D SPACE',''
  ) );
#194 = PCURVE('',#195,#200);
#195 = CYLINDRICAL_SURFACE('',#196,0.8);
#196 = AXIS2_PLACEMENT_3D('',#197,#198,#199);
#197 = CARTESIAN_POINT('',(184.5,36.,-26.83122158066));
#198 = DIRECTION('',(1.,0.,0.));
#199 = DIRECTION('',(-0.,0.,1.));
#200 = DEFINITIONAL_REPRESENTATION('',(#201),#205);
#201 = LINE('',#202,#203);
#202 = CARTESIAN_POINT('',(0.,5.));
#203 = VECTOR('',#204,1.);
#204 = DIRECTION('',(1.,0.));
#205 = ( GEOMETRIC_REPRESENTATION_CONTEXT(2) 
PARAMETRIC_REPRESENTATION_CONTEXT() REPRESENTATION_CONTEXT('2D SPACE',''
  ) );
#206 = FACE_BOUND('',#207,.F.);
#207 = EDGE_LOOP('',(#208));
#208 = ORIENTED_EDGE('',*,*,#209,.F.);
#209 = EDGE_CURVE('',#210,#210,#212,.T.);
#210 = VERTEX_POINT('',#211);
#211 = CARTESIAN_POINT('',(189.5,36.,1.768778419338));
#212 = SURFACE_CURVE('',#213,(#218,#225),.PCURVE_S1.);
#213 = CIRCLE('',#214,0.8);
#214 = AXIS2_PLACEMENT_3D('',#215,#216,#217);
#215 = CARTESIAN_POINT('',(189.5,36.,0.968778419338));
#216 = DIRECTION('',(1.,0.,0.));
#217 = DIRECTION('',(-0.,0.,1.));
#218 = PCURVE('',#32,#219);
#219 = DEFINITIONAL_REPRESENTATION('',(#220),#224);
#220 = CIRCLE('',#221,0.8);
#221 = AXIS2_PLACEMENT_2D('',#222,#223);
#222 = CARTESIAN_POINT('',(35.05,-12.1));
#223 = DIRECTION('',(1.,0.));
#224 = ( GEOMETRIC_REPRESENTATION_CONTEXT(2) 
PARAMETRIC_REPRESENTATION_CONTEXT() REPRESENTATION_CONTEXT('2D SPACE',''
  ) );
#225 = PCURVE('',#226,#231);
#226 = CYLINDRICAL_SURFACE('',#227,0.8);
#227 = AXIS2_PLACEMENT_3D('',#228,#229,#230);
#228 = CARTESIAN_POINT('',(184.5,36.,0.968778419338));
#229 = DIRECTION('',(1.,0.,0.));
#230 = DIRECTION('',(-0.,0.,1.));
#231 = DEFINITIONAL_REPRESENTATION('',(#232),#236);
#232 = LINE('',#233,#234);
#233 = CARTESIAN_POINT('',(0.,5.));
#234 = VECTOR('',#235,1.);
#235 = DIRECTION('',(1.,0.));
#236 = ( GEOMETRIC_REPRESENTATION_CONTEXT(2) 
PARAMETRIC_REPRESENTATION_CONTEXT() REPRESENTATION_CONTEXT('2D SPACE',''
  ) );
#237 = FACE_BOUND('',#238,.F.);
#238 = EDGE_LOOP('',(#239,#267,#293,#319));
#239 = ORIENTED_EDGE('',*,*,#240,.T.);
#240 = EDGE_CURVE('',#241,#243,#245,.T.);
#241 = VERTEX_POINT('',#242);
#242 = CARTESIAN_POINT('',(189.5,42.3,-24.53122158066));
#243 = VERTEX_POINT('',#244);
#244 = CARTESIAN_POINT('',(189.5,29.7,-24.53122158066));
#245 = SURFACE_CURVE('',#246,(#250,#256),.PCURVE_S1.);
#246 = LINE('',#247,#248);
#247 = CARTESIAN_POINT('',(189.5,26.8,-24.53122158066));
#248 = VECTOR('',#249,1.);
#249 = DIRECTION('',(0.,-1.,0.));
#250 = PCURVE('',#32,#251);
#251 = DEFINITIONAL_REPRESENTATION('',(#252),#255);
#252 = B_SPLINE_CURVE_WITH_KNOTS('',1,(#253,#254),.UNSPECIFIED.,.F.,.F.,
  (2,2),(-15.5,-2.9),.PIECEWISE_BEZIER_KNOTS.);
#253 = CARTESIAN_POINT('',(9.55,-18.4));
#254 = CARTESIAN_POINT('',(9.55,-5.8));
#255 = ( GEOMETRIC_REPRESENTATION_CONTEXT(2) 
PARAMETRIC_REPRESENTATION_CONTEXT() REPRESENTATION_CONTEXT('2D SPACE',''
  ) );
#256 = PCURVE('',#257,#262);
#257 = PLANE('',#258);
#258 = AXIS2_PLACEMENT_3D('',#259,#260,#261);
#259 = CARTESIAN_POINT('',(184.5,29.7,-24.53122158066));
#260 = DIRECTION('',(0.,0.,1.));
#261 = DIRECTION('',(1.,0.,-0.));
#262 = DEFINITIONAL_REPRESENTATION('',(#263),#266);
#263 = B_SPLINE_CURVE_WITH_KNOTS('',1,(#264,#265),.UNSPECIFIED.,.F.,.F.,
  (2,2),(-15.5,-2.9),.PIECEWISE_BEZIER_KNOTS.);
#264 = CARTESIAN_POINT('',(5.,12.6));
#265 = CARTESIAN_POINT('',(5.,0.));
#266 = ( GEOMETRIC_REPRESENTATION_CONTEXT(2) 
PARAMETRIC_REPRESENTATION_CONTEXT() REPRESENTATION_CONTEXT('2D SPACE',''
  ) );
#267 = ORIENTED_EDGE('',*,*,#268,.T.);
#268 = EDGE_CURVE('',#243,#269,#271,.T.);
#269 = VERTEX_POINT('',#270);
#270 = CARTESIAN_POINT('',(189.5,29.7,-1.331221580662));
#271 = SURFACE_CURVE('',#272,(#276,#282),.PCURVE_S1.);
#272 = LINE('',#273,#274);
#273 = CARTESIAN_POINT('',(189.5,29.7,-29.30622158066));
#274 = VECTOR('',#275,1.);
#275 = DIRECTION('',(0.,0.,1.));
#276 = PCURVE('',#32,#277);
#277 = DEFINITIONAL_REPRESENTATION('',(#278),#281);
#278 = B_SPLINE_CURVE_WITH_KNOTS('',1,(#279,#280),.UNSPECIFIED.,.F.,.F.,
  (2,2),(4.775,27.975),.PIECEWISE_BEZIER_KNOTS.);
#279 = CARTESIAN_POINT('',(9.55,-5.8));
#280 = CARTESIAN_POINT('',(32.75,-5.8));
#281 = ( GEOMETRIC_REPRESENTATION_CONTEXT(2) 
PARAMETRIC_REPRESENTATION_CONTEXT() REPRESENTATION_CONTEXT('2D SPACE',''
  ) );
#282 = PCURVE('',#283,#288);
#283 = PLANE('',#284);
#284 = AXIS2_PLACEMENT_3D('',#285,#286,#287);
#285 = CARTESIAN_POINT('',(184.5,29.7,-24.53122158066));
#286 = DIRECTION('',(-0.,1.,0.));
#287 = DIRECTION('',(0.,0.,1.));
#288 = DEFINITIONAL_REPRESENTATION('',(#289),#292);
#289 = B_SPLINE_CURVE_WITH_KNOTS('',1,(#290,#291),.UNSPECIFIED.,.F.,.F.,
  (2,2),(4.775,27.975),.PIECEWISE_BEZIER_KNOTS.);
#290 = CARTESIAN_POINT('',(0.,5.));
#291 = CARTESIAN_POINT('',(23.2,5.));
#292 = ( GEOMETRIC_REPRESENTATION_CONTEXT(2) 
PARAMETRIC_REPRESENTATION_CONTEXT() REPRESENTATION_CONTEXT('2D SPACE',''
  ) );
#293 = ORIENTED_EDGE('',*,*,#294,.F.);
#294 = EDGE_CURVE('',#295,#269,#297,.T.);
#295 = VERTEX_POINT('',#296);
#296 = CARTESIAN_POINT('',(189.5,42.3,-1.331221580662));
#297 = SURFACE_CURVE('',#298,(#302,#308),.PCURVE_S1.);
#298 = LINE('',#299,#300);
#299 = CARTESIAN_POINT('',(189.5,26.8,-1.331221580662));
#300 = VECTOR('',#301,1.);
#301 = DIRECTION('',(0.,-1.,0.));
#302 = PCURVE('',#32,#303);
#303 = DEFINITIONAL_REPRESENTATION('',(#304),#307);
#304 = B_SPLINE_CURVE_WITH_KNOTS('',1,(#305,#306),.UNSPECIFIED.,.F.,.F.,
  (2,2),(-15.5,-2.9),.PIECEWISE_BEZIER_KNOTS.);
#305 = CARTESIAN_POINT('',(32.75,-18.4));
#306 = CARTESIAN_POINT('',(32.75,-5.8));
#307 = ( GEOMETRIC_REPRESENTATION_CONTEXT(2) 
PARAMETRIC_REPRESENTATION_CONTEXT() REPRESENTATION_CONTEXT('2D SPACE',''
  ) );
#308 = PCURVE('',#309,#314);
#309 = PLANE('',#310);
#310 = AXIS2_PLACEMENT_3D('',#311,#312,#313);
#311 = CARTESIAN_POINT('',(184.5,29.7,-1.331221580662));
#312 = DIRECTION('',(0.,0.,1.));
#313 = DIRECTION('',(1.,0.,-0.));
#314 = DEFINITIONAL_REPRESENTATION('',(#315),#318);
#315 = B_SPLINE_CURVE_WITH_KNOTS('',1,(#316,#317),.UNSPECIFIED.,.F.,.F.,
  (2,2),(-15.5,-2.9),.PIECEWISE_BEZIER_KNOTS.);
#316 = CARTESIAN_POINT('',(5.,12.6));
#317 = CARTESIAN_POINT('',(5.,0.));
#318 = ( GEOMETRIC_REPRESENTATION_CONTEXT(2) 
PARAMETRIC_REPRESENTATION_CONTEXT() REPRESENTATION_CONTEXT('2D SPACE',''
  ) );
#319 = ORIENTED_EDGE('',*,*,#320,.F.);
#320 = EDGE_CURVE('',#241,#295,#321,.T.);
#321 = SURFACE_CURVE('',#322,(#326,#332),.PCURVE_S1.);
#322 = LINE('',#323,#324);
#323 = CARTESIAN_POINT('',(189.5,42.3,-29.30622158066));
#324 = VECTOR('',#325,1.);
#325 = DIRECTION('',(0.,0.,1.));
#326 = PCURVE('',#32,#327);
#327 = DEFINITIONAL_REPRESENTATION('',(#328),#331);
#328 = B_SPLINE_CURVE_WITH_KNOTS('',1,(#329,#330),.UNSPECIFIED.,.F.,.F.,
  (2,2),(4.775,27.975),.PIECEWISE_BEZIER_KNOTS.);
#329 = CARTESIAN_POINT('',(9.55,-18.4));
#330 = CARTESIAN_POINT('',(32.75,-18.4));
#331 = ( GEOMETRIC_REPRESENTATION_CONTEXT(2) 
PARAMETRIC_REPRESENTATION_CONTEXT() REPRESENTATION_CONTEXT('2D SPACE',''
  ) );
#332 = PCURVE('',#333,#338);
#333 = PLANE('',#334);
#334 = AXIS2_PLACEMENT_3D('',#335,#336,#337);
#335 = CARTESIAN_POINT('',(184.5,42.3,-24.53122158066));
#336 = DIRECTION('',(-0.,1.,0.));
#337 = DIRECTION('',(0.,0.,1.));
#338 = DEFINITIONAL_REPRESENTATION('',(#339),#342);
#339 = B_SPLINE_CURVE_WITH_KNOTS('',1,(#340,#341),.UNSPECIFIED.,.F.,.F.,
  (2,2),(4.775,27.975),.PIECEWISE_BEZIER_KNOTS.);
#340 = CARTESIAN_POINT('',(0.,5.));
#341 = CARTESIAN_POINT('',(23.2,5.));
#342 = ( GEOMETRIC_REPRESENTATION_CONTEXT(2) 
PARAMETRIC_REPRESENTATION_CONTEXT() REPRESENTATION_CONTEXT('2D SPACE',''
  ) );
#343 = ADVANCED_FACE('',(#344),#44,.T.);
#344 = FACE_BOUND('',#345,.T.);
#345 = EDGE_LOOP('',(#346,#369,#370,#393));
#346 = ORIENTED_EDGE('',*,*,#347,.F.);
#347 = EDGE_CURVE('',#24,#348,#350,.T.);
#348 = VERTEX_POINT('',#349);
#349 = CARTESIAN_POINT('',(200.55980647412,48.1,8.218778419338));
#350 = SURFACE_CURVE('',#351,(#355,#362),.PCURVE_S1.);
#351 = LINE('',#352,#353);
#352 = CARTESIAN_POINT('',(189.5,48.1,8.218778419338));
#353 = VECTOR('',#354,1.);
#354 = DIRECTION('',(1.,0.,-0.));
#355 = PCURVE('',#44,#356);
#356 = DEFINITIONAL_REPRESENTATION('',(#357),#361);
#357 = LINE('',#358,#359);
#358 = CARTESIAN_POINT('',(0.,24.2));
#359 = VECTOR('',#360,1.);
#360 = DIRECTION('',(1.,0.));
#361 = ( GEOMETRIC_REPRESENTATION_CONTEXT(2) 
PARAMETRIC_REPRESENTATION_CONTEXT() REPRESENTATION_CONTEXT('2D SPACE',''
  ) );
#362 = PCURVE('',#164,#363);
#363 = DEFINITIONAL_REPRESENTATION('',(#364),#368);
#364 = LINE('',#365,#366);
#365 = CARTESIAN_POINT('',(42.3,0.));
#366 = VECTOR('',#367,1.);
#367 = DIRECTION('',(0.,1.));
#368 = ( GEOMETRIC_REPRESENTATION_CONTEXT(2) 
PARAMETRIC_REPRESENTATION_CONTEXT() REPRESENTATION_CONTEXT('2D SPACE',''
  ) );
#369 = ORIENTED_EDGE('',*,*,#21,.F.);
#370 = ORIENTED_EDGE('',*,*,#371,.T.);
#371 = EDGE_CURVE('',#22,#372,#374,.T.);
#372 = VERTEX_POINT('',#373);
#373 = CARTESIAN_POINT('',(204.85759925601,23.9,8.218778419338));
#374 = SURFACE_CURVE('',#375,(#379,#386),.PCURVE_S1.);
#375 = LINE('',#376,#377);
#376 = CARTESIAN_POINT('',(189.5,23.9,8.218778419338));
#377 = VECTOR('',#378,1.);
#378 = DIRECTION('',(1.,0.,-0.));
#379 = PCURVE('',#44,#380);
#380 = DEFINITIONAL_REPRESENTATION('',(#381),#385);
#381 = LINE('',#382,#383);
#382 = CARTESIAN_POINT('',(0.,0.));
#383 = VECTOR('',#384,1.);
#384 = DIRECTION('',(1.,0.));
#385 = ( GEOMETRIC_REPRESENTATION_CONTEXT(2) 
PARAMETRIC_REPRESENTATION_CONTEXT() REPRESENTATION_CONTEXT('2D SPACE',''
  ) );
#386 = PCURVE('',#72,#387);
#387 = DEFINITIONAL_REPRESENTATION('',(#388),#392);
#388 = LINE('',#389,#390);
#389 = CARTESIAN_POINT('',(42.3,0.));
#390 = VECTOR('',#391,1.);
#391 = DIRECTION('',(0.,1.));
#392 = ( GEOMETRIC_REPRESENTATION_CONTEXT(2) 
PARAMETRIC_REPRESENTATION_CONTEXT() REPRESENTATION_CONTEXT('2D SPACE',''
  ) );
#393 = ORIENTED_EDGE('',*,*,#394,.F.);
#394 = EDGE_CURVE('',#348,#372,#395,.T.);
#395 = SURFACE_CURVE('',#396,(#402,#411),.PCURVE_S1.);
#396 = B_SPLINE_CURVE_WITH_KNOTS('',4,(#397,#398,#399,#400,#401),
  .UNSPECIFIED.,.F.,.F.,(5,5),(0.,1.),.PIECEWISE_BEZIER_KNOTS.);
#397 = CARTESIAN_POINT('',(200.55980647412,48.1,8.218778419338));
#398 = CARTESIAN_POINT('',(201.99368673522,42.121231857098,
    8.218778419338));
#399 = CARTESIAN_POINT('',(203.18992938107,36.085463334301,
    8.218778419338));
#400 = CARTESIAN_POINT('',(204.1451306981,30.006886958899,8.218778419338
    ));
#401 = CARTESIAN_POINT('',(204.85759925601,23.9,8.218778419338));
#402 = PCURVE('',#44,#403);
#403 = DEFINITIONAL_REPRESENTATION('',(#404),#410);
#404 = B_SPLINE_CURVE_WITH_KNOTS('',4,(#405,#406,#407,#408,#409),
  .UNSPECIFIED.,.F.,.F.,(5,5),(0.,1.),.PIECEWISE_BEZIER_KNOTS.);
#405 = CARTESIAN_POINT('',(11.05980647412,24.2));
#406 = CARTESIAN_POINT('',(12.493686735222,18.221231857098));
#407 = CARTESIAN_POINT('',(13.689929381079,12.185463334301));
#408 = CARTESIAN_POINT('',(14.645130698107,6.106886958899));
#409 = CARTESIAN_POINT('',(15.357599256012,0.));
#410 = ( GEOMETRIC_REPRESENTATION_CONTEXT(2) 
PARAMETRIC_REPRESENTATION_CONTEXT() REPRESENTATION_CONTEXT('2D SPACE',''
  ) );
#411 = PCURVE('',#132,#412);
#412 = DEFINITIONAL_REPRESENTATION('',(#413),#419);
#413 = B_SPLINE_CURVE_WITH_KNOTS('',4,(#414,#415,#416,#417,#418),
  .UNSPECIFIED.,.F.,.F.,(5,5),(0.,1.),.PIECEWISE_BEZIER_KNOTS.);
#414 = CARTESIAN_POINT('',(0.235383014964,6.362955535077));
#415 = CARTESIAN_POINT('',(0.205572614526,6.362955535077));
#416 = CARTESIAN_POINT('',(0.175762192874,6.362955535077));
#417 = CARTESIAN_POINT('',(0.145951770363,6.362955535077));
#418 = CARTESIAN_POINT('',(0.116141370451,6.362955535077));
#419 = ( GEOMETRIC_REPRESENTATION_CONTEXT(2) 
PARAMETRIC_REPRESENTATION_CONTEXT() REPRESENTATION_CONTEXT('2D SPACE',''
  ) );
#420 = ADVANCED_FACE('',(#421),#164,.T.);
#421 = FACE_BOUND('',#422,.T.);
#422 = EDGE_LOOP('',(#423,#495,#496));
#423 = ORIENTED_EDGE('',*,*,#424,.T.);
#424 = EDGE_CURVE('',#348,#113,#425,.T.);
#425 = SURFACE_CURVE('',#426,(#447,#471),.PCURVE_S1.);
#426 = B_SPLINE_CURVE_WITH_KNOTS('',7,(#427,#428,#429,#430,#431,#432,
    #433,#434,#435,#436,#437,#438,#439,#440,#441,#442,#443,#444,#445,
    #446),.UNSPECIFIED.,.F.,.F.,(8,6,6,8),(0.,0.185899304323,
    0.682523758154,1.),.UNSPECIFIED.);
#427 = CARTESIAN_POINT('',(200.55980647412,48.1,8.218778419338));
#428 = CARTESIAN_POINT('',(200.75249038331,48.1,7.050370851509));
#429 = CARTESIAN_POINT('',(200.91385503849,48.1,5.876780148081));
#430 = CARTESIAN_POINT('',(201.04335580834,48.1,4.698981868789));
#431 = CARTESIAN_POINT('',(201.14057153745,48.1,3.51798524031));
#432 = CARTESIAN_POINT('',(201.20521363252,48.1,2.334833865487));
#433 = CARTESIAN_POINT('',(201.23713514862,48.1,1.15060643255));
#434 = CARTESIAN_POINT('',(201.23421532683,48.1,-3.197108235838));
#435 = CARTESIAN_POINT('',(200.9985988643,48.1,-6.361561916531));
#436 = CARTESIAN_POINT('',(200.52924844102,48.1,-9.503549371194));
#437 = CARTESIAN_POINT('',(199.83457674748,48.1,-12.60392222077));
#438 = CARTESIAN_POINT('',(198.92850296669,48.1,-15.6471263132));
#439 = CARTESIAN_POINT('',(197.82836357919,48.1,-18.62077429646));
#440 = CARTESIAN_POINT('',(195.738183153,48.1,-23.36569323125));
#441 = CARTESIAN_POINT('',(194.85129768881,48.1,-25.18439686147));
#442 = CARTESIAN_POINT('',(193.89725614582,48.1,-26.96954572692));
#443 = CARTESIAN_POINT('',(192.88072955216,48.1,-28.71989613231));
#444 = CARTESIAN_POINT('',(191.80624649329,48.1,-30.43472455062));
#445 = CARTESIAN_POINT('',(190.67804905016,48.1,-32.11374562721));
#446 = CARTESIAN_POINT('',(189.5,48.1,-33.75705856006));
#447 = PCURVE('',#164,#448);
#448 = DEFINITIONAL_REPRESENTATION('',(#449),#470);
#449 = B_SPLINE_CURVE_WITH_KNOTS('',7,(#450,#451,#452,#453,#454,#455,
    #456,#457,#458,#459,#460,#461,#462,#463,#464,#465,#466,#467,#468,
    #469),.UNSPECIFIED.,.F.,.F.,(8,6,6,8),(0.,0.185899304323,
    0.682523758154,1.),.UNSPECIFIED.);
#450 = CARTESIAN_POINT('',(42.3,11.05980647412));
#451 = CARTESIAN_POINT('',(41.131592432171,11.252490383316));
#452 = CARTESIAN_POINT('',(39.958001728743,11.41385503849));
#453 = CARTESIAN_POINT('',(38.780203449451,11.543355808345));
#454 = CARTESIAN_POINT('',(37.599206820972,11.640571537458));
#455 = CARTESIAN_POINT('',(36.416055446149,11.705213632525));
#456 = CARTESIAN_POINT('',(35.231828013213,11.73713514862));
#457 = CARTESIAN_POINT('',(30.884113344824,11.734215326838));
#458 = CARTESIAN_POINT('',(27.719659664132,11.498598864305));
#459 = CARTESIAN_POINT('',(24.577672209468,11.02924844102));
#460 = CARTESIAN_POINT('',(21.47729935989,10.334576747482));
#461 = CARTESIAN_POINT('',(18.434095267453,9.428502966692));
#462 = CARTESIAN_POINT('',(15.460447284195,8.328363579191));
#463 = CARTESIAN_POINT('',(10.715528349406,6.238183153008));
#464 = CARTESIAN_POINT('',(8.896824719183,5.351297688817));
#465 = CARTESIAN_POINT('',(7.111675853733,4.39725614582));
#466 = CARTESIAN_POINT('',(5.361325448352,3.380729552166));
#467 = CARTESIAN_POINT('',(3.646497030039,2.306246493291));
#468 = CARTESIAN_POINT('',(1.967475953452,1.178049050169));
#469 = CARTESIAN_POINT('',(0.324163020597,0.));
#470 = ( GEOMETRIC_REPRESENTATION_CONTEXT(2) 
PARAMETRIC_REPRESENTATION_CONTEXT() REPRESENTATION_CONTEXT('2D SPACE',''
  ) );
#471 = PCURVE('',#132,#472);
#472 = DEFINITIONAL_REPRESENTATION('',(#473),#494);
#473 = B_SPLINE_CURVE_WITH_KNOTS('',7,(#474,#475,#476,#477,#478,#479,
    #480,#481,#482,#483,#484,#485,#486,#487,#488,#489,#490,#491,#492,
    #493),.UNSPECIFIED.,.F.,.F.,(8,6,6,8),(0.,0.185899304323,
    0.682523758154,1.),.UNSPECIFIED.);
#474 = CARTESIAN_POINT('',(0.235383014964,6.362955535077));
#475 = CARTESIAN_POINT('',(0.235165136136,6.351591031418));
#476 = CARTESIAN_POINT('',(0.234983133925,6.340188158741));
#477 = CARTESIAN_POINT('',(0.234837351159,6.328754156524));
#478 = CARTESIAN_POINT('',(0.2347280539,6.317296466158));
#479 = CARTESIAN_POINT('',(0.234655425148,6.305822778401));
#480 = CARTESIAN_POINT('',(0.234619558549,6.294341080834));
#481 = CARTESIAN_POINT('',(0.234622839196,6.252187552631));
#482 = CARTESIAN_POINT('',(0.234887573287,6.221506044983));
#483 = CARTESIAN_POINT('',(0.235414943754,6.190994870721));
#484 = CARTESIAN_POINT('',(0.236199165772,6.160792437044));
#485 = CARTESIAN_POINT('',(0.237231850726,6.131009272152));
#486 = CARTESIAN_POINT('',(0.238502787207,6.101734454847));
#487 = CARTESIAN_POINT('',(0.240958111189,6.054694961843));
#488 = CARTESIAN_POINT('',(0.242008672672,6.036581223115));
#489 = CARTESIAN_POINT('',(0.243149775233,6.018710097944));
#490 = CARTESIAN_POINT('',(0.244379029045,6.001089098879));
#491 = CARTESIAN_POINT('',(0.245694291868,5.98372189279));
#492 = CARTESIAN_POINT('',(0.247093787127,5.966608867415));
#493 = CARTESIAN_POINT('',(0.248576216146,5.949747342017));
#494 = ( GEOMETRIC_REPRESENTATION_CONTEXT(2) 
PARAMETRIC_REPRESENTATION_CONTEXT() REPRESENTATION_CONTEXT('2D SPACE',''
  ) );
#495 = ORIENTED_EDGE('',*,*,#150,.T.);
#496 = ORIENTED_EDGE('',*,*,#347,.T.);
#497 = ADVANCED_FACE('',(#498),#72,.F.);
#498 = FACE_BOUND('',#499,.F.);
#499 = EDGE_LOOP('',(#500,#523,#524,#525));
#500 = ORIENTED_EDGE('',*,*,#501,.F.);
#501 = EDGE_CURVE('',#57,#502,#504,.T.);
#502 = VERTEX_POINT('',#503);
#503 = CARTESIAN_POINT('',(193.81474019244,23.9,-34.08122158066));
#504 = SURFACE_CURVE('',#505,(#509,#516),.PCURVE_S1.);
#505 = LINE('',#506,#507);
#506 = CARTESIAN_POINT('',(189.5,23.9,-34.08122158066));
#507 = VECTOR('',#508,1.);
#508 = DIRECTION('',(1.,0.,-0.));
#509 = PCURVE('',#72,#510);
#510 = DEFINITIONAL_REPRESENTATION('',(#511),#515);
#511 = LINE('',#512,#513);
#512 = CARTESIAN_POINT('',(0.,0.));
#513 = VECTOR('',#514,1.);
#514 = DIRECTION('',(0.,1.));
#515 = ( GEOMETRIC_REPRESENTATION_CONTEXT(2) 
PARAMETRIC_REPRESENTATION_CONTEXT() REPRESENTATION_CONTEXT('2D SPACE',''
  ) );
#516 = PCURVE('',#100,#517);
#517 = DEFINITIONAL_REPRESENTATION('',(#518),#522);
#518 = LINE('',#519,#520);
#519 = CARTESIAN_POINT('',(0.,0.));
#520 = VECTOR('',#521,1.);
#521 = DIRECTION('',(1.,0.));
#522 = ( GEOMETRIC_REPRESENTATION_CONTEXT(2) 
PARAMETRIC_REPRESENTATION_CONTEXT() REPRESENTATION_CONTEXT('2D SPACE',''
  ) );
#523 = ORIENTED_EDGE('',*,*,#56,.T.);
#524 = ORIENTED_EDGE('',*,*,#371,.T.);
#525 = ORIENTED_EDGE('',*,*,#526,.T.);
#526 = EDGE_CURVE('',#372,#502,#527,.T.);
#527 = SURFACE_CURVE('',#528,(#549,#573),.PCURVE_S1.);
#528 = B_SPLINE_CURVE_WITH_KNOTS('',7,(#529,#530,#531,#532,#533,#534,
    #535,#536,#537,#538,#539,#540,#541,#542,#543,#544,#545,#546,#547,
    #548),.UNSPECIFIED.,.F.,.F.,(8,6,6,8),(0.,0.186537583038,
    0.687265742599,1.),.UNSPECIFIED.);
#529 = CARTESIAN_POINT('',(204.85759925601,23.9,8.218778419338));
#530 = CARTESIAN_POINT('',(205.04821389601,23.9,7.038149701927));
#531 = CARTESIAN_POINT('',(205.20749567964,23.9,5.852444662382));
#532 = CARTESIAN_POINT('',(205.33491648521,23.9,4.662631473997));
#533 = CARTESIAN_POINT('',(205.43006977532,23.9,3.469710309276));
#534 = CARTESIAN_POINT('',(205.49267913102,23.9,2.274713985615));
#535 = CARTESIAN_POINT('',(205.52260678608,23.9,1.078708610988));
#536 = CARTESIAN_POINT('',(205.51249468619,23.9,-3.327432886095));
#537 = CARTESIAN_POINT('',(205.26970096966,23.9,-6.538192465157));
#538 = CARTESIAN_POINT('',(204.79135788478,23.9,-9.726085929972));
#539 = CARTESIAN_POINT('',(204.08593363786,23.9,-12.87194451536));
#540 = CARTESIAN_POINT('',(203.16737367588,23.9,-15.96018559034));
#541 = CARTESIAN_POINT('',(202.05302679569,23.9,-18.97838827889));
#542 = CARTESIAN_POINT('',(199.95573883062,23.9,-23.7522698868));
#543 = CARTESIAN_POINT('',(199.08026489673,23.9,-25.55713587461));
#544 = CARTESIAN_POINT('',(198.13993117943,23.9,-27.3297893817));
#545 = CARTESIAN_POINT('',(197.13910406528,23.9,-29.06903927596));
#546 = CARTESIAN_POINT('',(196.08202645354,23.9,-30.77417312463));
#547 = CARTESIAN_POINT('',(194.97268800506,23.9,-32.44488394339));
#548 = CARTESIAN_POINT('',(193.81474019244,23.9,-34.08122158066));
#549 = PCURVE('',#72,#550);
#550 = DEFINITIONAL_REPRESENTATION('',(#551),#572);
#551 = B_SPLINE_CURVE_WITH_KNOTS('',7,(#552,#553,#554,#555,#556,#557,
    #558,#559,#560,#561,#562,#563,#564,#565,#566,#567,#568,#569,#570,
    #571),.UNSPECIFIED.,.F.,.F.,(8,6,6,8),(0.,0.186537583038,
    0.687265742599,1.),.UNSPECIFIED.);
#552 = CARTESIAN_POINT('',(42.3,15.357599256011));
#553 = CARTESIAN_POINT('',(41.119371282589,15.548213896018));
#554 = CARTESIAN_POINT('',(39.933666243044,15.707495679647));
#555 = CARTESIAN_POINT('',(38.743853054659,15.834916485219));
#556 = CARTESIAN_POINT('',(37.550931889938,15.930069775322));
#557 = CARTESIAN_POINT('',(36.355935566277,15.992679131023));
#558 = CARTESIAN_POINT('',(35.15993019165,16.022606786085));
#559 = CARTESIAN_POINT('',(30.753788694567,16.012494686195));
#560 = CARTESIAN_POINT('',(27.543029115505,15.769700969666));
#561 = CARTESIAN_POINT('',(24.35513565069,15.291357884788));
#562 = CARTESIAN_POINT('',(21.209277065298,14.585933637862));
#563 = CARTESIAN_POINT('',(18.121035990321,13.667373675889));
#564 = CARTESIAN_POINT('',(15.102833301769,12.553026795692));
#565 = CARTESIAN_POINT('',(10.328951693853,10.455738830627));
#566 = CARTESIAN_POINT('',(8.524085706048,9.580264896733));
#567 = CARTESIAN_POINT('',(6.751432198961,8.639931179439));
#568 = CARTESIAN_POINT('',(5.012182304694,7.639104065284));
#569 = CARTESIAN_POINT('',(3.307048456032,6.58202645354));
#570 = CARTESIAN_POINT('',(1.636337637273,5.472688005066));
#571 = CARTESIAN_POINT('',(0.,4.314740192447));
#572 = ( GEOMETRIC_REPRESENTATION_CONTEXT(2) 
PARAMETRIC_REPRESENTATION_CONTEXT() REPRESENTATION_CONTEXT('2D SPACE',''
  ) );
#573 = PCURVE('',#132,#574);
#574 = DEFINITIONAL_REPRESENTATION('',(#575),#596);
#575 = B_SPLINE_CURVE_WITH_KNOTS('',7,(#576,#577,#578,#579,#580,#581,
    #582,#583,#584,#585,#586,#587,#588,#589,#590,#591,#592,#593,#594,
    #595),.UNSPECIFIED.,.F.,.F.,(8,6,6,8),(0.,0.186537583038,
    0.687265742599,1.),.UNSPECIFIED.);
#576 = CARTESIAN_POINT('',(0.116141370451,6.362955535077));
#577 = CARTESIAN_POINT('',(0.116034273117,6.351472162538));
#578 = CARTESIAN_POINT('',(0.115945009761,6.339951713213));
#579 = CARTESIAN_POINT('',(0.115873739973,6.328401275198));
#580 = CARTESIAN_POINT('',(0.115820587105,6.316828123696));
#581 = CARTESIAN_POINT('',(0.115785635384,6.3052397679));
#582 = CARTESIAN_POINT('',(0.115768927016,6.293643997871));
#583 = CARTESIAN_POINT('',(0.115774572457,6.250923963529));
#584 = CARTESIAN_POINT('',(0.115910121361,6.219792548888));
#585 = CARTESIAN_POINT('',(0.116177211471,6.188832298613));
#586 = CARTESIAN_POINT('',(0.116573034785,6.158179771564));
#587 = CARTESIAN_POINT('',(0.117093567907,6.127943916037));
#588 = CARTESIAN_POINT('',(0.117733943821,6.09821249506));
#589 = CARTESIAN_POINT('',(0.118960199803,6.050845253983));
#590 = CARTESIAN_POINT('',(0.119476433749,6.032852943361));
#591 = CARTESIAN_POINT('',(0.120036363786,6.015089877175));
#592 = CARTESIAN_POINT('',(0.12063894594,5.997563020344));
#593 = CARTESIAN_POINT('',(0.121283252862,5.980275819503));
#594 = CARTESIAN_POINT('',(0.121968526664,5.963228705297));
#595 = CARTESIAN_POINT('',(0.122694229795,5.946419281251));
#596 = ( GEOMETRIC_REPRESENTATION_CONTEXT(2) 
PARAMETRIC_REPRESENTATION_CONTEXT() REPRESENTATION_CONTEXT('2D SPACE',''
  ) );
#597 = ADVANCED_FACE('',(#598,#631),#132,.T.);
#598 = FACE_BOUND('',#599,.T.);
#599 = EDGE_LOOP('',(#600,#601,#602,#603,#604));
#600 = ORIENTED_EDGE('',*,*,#112,.F.);
#601 = ORIENTED_EDGE('',*,*,#424,.F.);
#602 = ORIENTED_EDGE('',*,*,#394,.T.);
#603 = ORIENTED_EDGE('',*,*,#526,.T.);
#604 = ORIENTED_EDGE('',*,*,#605,.F.);
#605 = EDGE_CURVE('',#85,#502,#606,.T.);
#606 = SURFACE_CURVE('',#607,(#613,#622),.PCURVE_S1.);
#607 = B_SPLINE_CURVE_WITH_KNOTS('',4,(#608,#609,#610,#611,#612),
  .UNSPECIFIED.,.F.,.F.,(5,5),(0.,1.),.PIECEWISE_BEZIER_KNOTS.);
#608 = CARTESIAN_POINT('',(189.5,47.171108910707,-34.08122158066));
#609 = CARTESIAN_POINT('',(190.93012769759,41.425871943598,
    -34.08122158066));
#610 = CARTESIAN_POINT('',(192.12801236345,35.622817413965,
    -34.08122158066));
#611 = CARTESIAN_POINT('',(193.09014312087,29.776049923486,
    -34.08122158066));
#612 = CARTESIAN_POINT('',(193.81474019244,23.9,-34.08122158066));
#613 = PCURVE('',#132,#614);
#614 = DEFINITIONAL_REPRESENTATION('',(#615),#621);
#615 = B_SPLINE_CURVE_WITH_KNOTS('',4,(#616,#617,#618,#619,#620),
  .UNSPECIFIED.,.F.,.F.,(5,5),(0.,1.),.PIECEWISE_BEZIER_KNOTS.);
#616 = CARTESIAN_POINT('',(0.24396575535,5.946419281251));
#617 = CARTESIAN_POINT('',(0.213647882172,5.946419281251));
#618 = CARTESIAN_POINT('',(0.183329994029,5.946419281251));
#619 = CARTESIAN_POINT('',(0.153012098899,5.946419281251));
#620 = CARTESIAN_POINT('',(0.122694229795,5.946419281251));
#621 = ( GEOMETRIC_REPRESENTATION_CONTEXT(2) 
PARAMETRIC_REPRESENTATION_CONTEXT() REPRESENTATION_CONTEXT('2D SPACE',''
  ) );
#622 = PCURVE('',#100,#623);
#623 = DEFINITIONAL_REPRESENTATION('',(#624),#630);
#624 = B_SPLINE_CURVE_WITH_KNOTS('',4,(#625,#626,#627,#628,#629),
  .UNSPECIFIED.,.F.,.F.,(5,5),(0.,1.),.PIECEWISE_BEZIER_KNOTS.);
#625 = CARTESIAN_POINT('',(0.,23.271108910707));
#626 = CARTESIAN_POINT('',(1.43012769759,17.525871943598));
#627 = CARTESIAN_POINT('',(2.628012363459,11.722817413965));
#628 = CARTESIAN_POINT('',(3.590143120873,5.876049923486));
#629 = CARTESIAN_POINT('',(4.314740192447,0.));
#630 = ( GEOMETRIC_REPRESENTATION_CONTEXT(2) 
PARAMETRIC_REPRESENTATION_CONTEXT() REPRESENTATION_CONTEXT('2D SPACE',''
  ) );
#631 = FACE_BOUND('',#632,.T.);
#632 = EDGE_LOOP('',(#633,#672,#715,#794,#837));
#633 = ORIENTED_EDGE('',*,*,#634,.F.);
#634 = EDGE_CURVE('',#635,#637,#639,.T.);
#635 = VERTEX_POINT('',#636);
#636 = CARTESIAN_POINT('',(192.5,40.145053613873,-32.08122158066));
#637 = VERTEX_POINT('',#638);
#638 = CARTESIAN_POINT('',(192.5,46.1,-30.02637397554));
#639 = SURFACE_CURVE('',#640,(#647,#657),.PCURVE_S1.);
#640 = B_SPLINE_CURVE_WITH_KNOTS('',5,(#641,#642,#643,#644,#645,#646),
  .UNSPECIFIED.,.F.,.F.,(6,6),(0.,1.),.PIECEWISE_BEZIER_KNOTS.);
#641 = CARTESIAN_POINT('',(192.5,40.145053613873,-32.08122158066));
#642 = CARTESIAN_POINT('',(192.5,41.348333399086,-31.70705926165));
#643 = CARTESIAN_POINT('',(192.5,42.546088077993,-31.31514172091));
#644 = CARTESIAN_POINT('',(192.5,43.737756814769,-30.90486455174));
#645 = CARTESIAN_POINT('',(192.5,44.922663267478,-30.4755442553));
#646 = CARTESIAN_POINT('',(192.5,46.1,-30.02637397554));
#647 = PCURVE('',#132,#648);
#648 = DEFINITIONAL_REPRESENTATION('',(#649),#656);
#649 = B_SPLINE_CURVE_WITH_KNOTS('',5,(#650,#651,#652,#653,#654,#655),
  .UNSPECIFIED.,.F.,.F.,(6,6),(0.,1.),.PIECEWISE_BEZIER_KNOTS.);
#650 = CARTESIAN_POINT('',(0.205598945017,5.966892518751));
#651 = CARTESIAN_POINT('',(0.211589223942,5.970709576693));
#652 = CARTESIAN_POINT('',(0.217533288896,5.974701805955));
#653 = CARTESIAN_POINT('',(0.223427912893,5.978874393913));
#654 = CARTESIAN_POINT('',(0.229269434715,5.983233234853));
#655 = CARTESIAN_POINT('',(0.235053734764,5.987785363886));
#656 = ( GEOMETRIC_REPRESENTATION_CONTEXT(2) 
PARAMETRIC_REPRESENTATION_CONTEXT() REPRESENTATION_CONTEXT('2D SPACE',''
  ) );
#657 = PCURVE('',#658,#663);
#658 = PLANE('',#659);
#659 = AXIS2_PLACEMENT_3D('',#660,#661,#662);
#660 = CARTESIAN_POINT('',(192.5,25.9,-32.08122158066));
#661 = DIRECTION('',(1.,0.,-0.));
#662 = DIRECTION('',(0.,0.,1.));
#663 = DEFINITIONAL_REPRESENTATION('',(#664),#671);
#664 = B_SPLINE_CURVE_WITH_KNOTS('',5,(#665,#666,#667,#668,#669,#670),
  .UNSPECIFIED.,.F.,.F.,(6,6),(0.,1.),.PIECEWISE_BEZIER_KNOTS.);
#665 = CARTESIAN_POINT('',(0.,-14.24505361387));
#666 = CARTESIAN_POINT('',(0.374162319012,-15.44833339908));
#667 = CARTESIAN_POINT('',(0.766079859748,-16.64608807799));
#668 = CARTESIAN_POINT('',(1.176357028918,-17.83775681476));
#669 = CARTESIAN_POINT('',(1.605677325357,-19.02266326747));
#670 = CARTESIAN_POINT('',(2.054847605118,-20.2));
#671 = ( GEOMETRIC_REPRESENTATION_CONTEXT(2) 
PARAMETRIC_REPRESENTATION_CONTEXT() REPRESENTATION_CONTEXT('2D SPACE',''
  ) );
#672 = ORIENTED_EDGE('',*,*,#673,.T.);
#673 = EDGE_CURVE('',#635,#674,#676,.T.);
#674 = VERTEX_POINT('',#675);
#675 = CARTESIAN_POINT('',(194.92835948024,25.9,-32.08122158066));
#676 = SURFACE_CURVE('',#677,(#686,#698),.PCURVE_S1.);
#677 = B_SPLINE_CURVE_WITH_KNOTS('',4,(#678,#679,#680,#681,#682,#683,
    #684,#685),.UNSPECIFIED.,.F.,.F.,(5,3,5),(0.,0.499393654719,1.),
  .UNSPECIFIED.);
#678 = CARTESIAN_POINT('',(192.5,40.145053613873,-32.08122158066));
#679 = CARTESIAN_POINT('',(192.86840214748,38.378524315591,
    -32.08122158066));
#680 = CARTESIAN_POINT('',(193.21518957374,36.60748734544,
    -32.08122158066));
#681 = CARTESIAN_POINT('',(193.5402795356,34.832339468441,
    -32.08122158066));
#682 = CARTESIAN_POINT('',(194.14766484595,31.270301318775,
    -32.08122158066));
#683 = CARTESIAN_POINT('',(194.42985436293,29.483392972232,
    -32.08122158066));
#684 = CARTESIAN_POINT('',(194.69010383187,27.69315763124,
    -32.08122158066));
#685 = CARTESIAN_POINT('',(194.92835948024,25.9,-32.08122158066));
#686 = PCURVE('',#132,#687);
#687 = DEFINITIONAL_REPRESENTATION('',(#688),#697);
#688 = B_SPLINE_CURVE_WITH_KNOTS('',4,(#689,#690,#691,#692,#693,#694,
    #695,#696),.UNSPECIFIED.,.F.,.F.,(5,3,5),(0.,0.499393654719,1.),
  .UNSPECIFIED.);
#689 = CARTESIAN_POINT('',(0.205598945017,5.966892518751));
#690 = CARTESIAN_POINT('',(0.196422169441,5.966892518751));
#691 = CARTESIAN_POINT('',(0.187245393843,5.966892518751));
#692 = CARTESIAN_POINT('',(0.178068618244,5.966892518751));
#693 = CARTESIAN_POINT('',(0.159692782891,5.966892518751));
#694 = CARTESIAN_POINT('',(0.150493723,5.966892518751));
#695 = CARTESIAN_POINT('',(0.141294663359,5.966892518751));
#696 = CARTESIAN_POINT('',(0.132095603581,5.966892518751));
#697 = ( GEOMETRIC_REPRESENTATION_CONTEXT(2) 
PARAMETRIC_REPRESENTATION_CONTEXT() REPRESENTATION_CONTEXT('2D SPACE',''
  ) );
#698 = PCURVE('',#699,#704);
#699 = PLANE('',#700);
#700 = AXIS2_PLACEMENT_3D('',#701,#702,#703);
#701 = CARTESIAN_POINT('',(192.5,25.9,-32.08122158066));
#702 = DIRECTION('',(0.,0.,1.));
#703 = DIRECTION('',(1.,0.,-0.));
#704 = DEFINITIONAL_REPRESENTATION('',(#705),#714);
#705 = B_SPLINE_CURVE_WITH_KNOTS('',4,(#706,#707,#708,#709,#710,#711,
    #712,#713),.UNSPECIFIED.,.F.,.F.,(5,3,5),(0.,0.499393654719,1.),
  .UNSPECIFIED.);
#706 = CARTESIAN_POINT('',(0.,14.245053613873));
#707 = CARTESIAN_POINT('',(0.368402147481,12.478524315591));
#708 = CARTESIAN_POINT('',(0.715189573742,10.70748734544));
#709 = CARTESIAN_POINT('',(1.040279535605,8.932339468441));
#710 = CARTESIAN_POINT('',(1.647664845957,5.370301318775));
#711 = CARTESIAN_POINT('',(1.929854362932,3.583392972232));
#712 = CARTESIAN_POINT('',(2.190103831874,1.79315763124));
#713 = CARTESIAN_POINT('',(2.428359480248,0.));
#714 = ( GEOMETRIC_REPRESENTATION_CONTEXT(2) 
PARAMETRIC_REPRESENTATION_CONTEXT() REPRESENTATION_CONTEXT('2D SPACE',''
  ) );
#715 = ORIENTED_EDGE('',*,*,#716,.T.);
#716 = EDGE_CURVE('',#674,#717,#719,.T.);
#717 = VERTEX_POINT('',#718);
#718 = CARTESIAN_POINT('',(204.89811465433,25.9,6.218778419338));
#719 = SURFACE_CURVE('',#720,(#741,#765),.PCURVE_S1.);
#720 = B_SPLINE_CURVE_WITH_KNOTS('',7,(#721,#722,#723,#724,#725,#726,
    #727,#728,#729,#730,#731,#732,#733,#734,#735,#736,#737,#738,#739,
    #740),.UNSPECIFIED.,.F.,.F.,(8,6,6,8),(0.,0.438678933844,
    0.846452813168,1.),.UNSPECIFIED.);
#721 = CARTESIAN_POINT('',(194.92835948024,25.9,-32.08122158066));
#722 = CARTESIAN_POINT('',(196.32760675911,25.9,-29.96855537966));
#723 = CARTESIAN_POINT('',(197.64400735139,25.9,-27.80096841385));
#724 = CARTESIAN_POINT('',(198.86974649738,25.9,-25.57884179107));
#725 = CARTESIAN_POINT('',(199.99621216249,25.9,-23.30359707263));
#726 = CARTESIAN_POINT('',(201.01438016739,25.9,-20.97787989376));
#727 = CARTESIAN_POINT('',(201.91529643215,25.9,-18.60579155501));
#728 = CARTESIAN_POINT('',(203.41191562031,25.9,-13.9507595182));
#729 = CARTESIAN_POINT('',(204.02475784692,25.9,-11.67297242015));
#730 = CARTESIAN_POINT('',(204.52271687332,25.9,-9.365408404767));
#731 = CARTESIAN_POINT('',(204.90016628536,25.9,-7.034311976025));
#732 = CARTESIAN_POINT('',(205.15292635542,25.9,-4.68674959816));
#733 = CARTESIAN_POINT('',(205.27868945451,25.9,-2.330675124727));
#734 = CARTESIAN_POINT('',(205.27710074587,25.9,0.912017368054));
#735 = CARTESIAN_POINT('',(205.25867058203,25.9,1.799038241332));
#736 = CARTESIAN_POINT('',(205.2222452933,25.9,2.685609274554));
#737 = CARTESIAN_POINT('',(205.16786947112,25.9,3.571293688576));
#738 = CARTESIAN_POINT('',(205.09563031462,25.9,4.455662673243));
#739 = CARTESIAN_POINT('',(205.00565610072,25.9,5.33829529747));
#740 = CARTESIAN_POINT('',(204.89811465433,25.9,6.218778419338));
#741 = PCURVE('',#132,#742);
#742 = DEFINITIONAL_REPRESENTATION('',(#743),#764);
#743 = B_SPLINE_CURVE_WITH_KNOTS('',7,(#744,#745,#746,#747,#748,#749,
    #750,#751,#752,#753,#754,#755,#756,#757,#758,#759,#760,#761,#762,
    #763),.UNSPECIFIED.,.F.,.F.,(8,6,6,8),(0.,0.438678933844,
    0.846452813168,1.),.UNSPECIFIED.);
#744 = CARTESIAN_POINT('',(0.13209560351,5.966892518751));
#745 = CARTESIAN_POINT('',(0.131158378379,5.988445114755));
#746 = CARTESIAN_POINT('',(0.13029207005,6.010380627095));
#747 = CARTESIAN_POINT('',(0.129498170546,6.032700174595));
#748 = CARTESIAN_POINT('',(0.128778745759,6.055396726177));
#749 = CARTESIAN_POINT('',(0.128136204768,6.078454167974));
#750 = CARTESIAN_POINT('',(0.12757314532,6.101845738812));
#751 = CARTESIAN_POINT('',(0.126644802047,6.147545643455));
#752 = CARTESIAN_POINT('',(0.126268311704,6.169817494849));
#753 = CARTESIAN_POINT('',(0.125964711602,6.192305447374));
#754 = CARTESIAN_POINT('',(0.125735772261,6.214964695866));
#755 = CARTESIAN_POINT('',(0.1255828571,6.237744794953));
#756 = CARTESIAN_POINT('',(0.125506769437,6.260588107319));
#757 = CARTESIAN_POINT('',(0.125507730611,6.292027826031));
#758 = CARTESIAN_POINT('',(0.12551888095,6.300628010734));
#759 = CARTESIAN_POINT('',(0.125540918518,6.309224894017));
#760 = CARTESIAN_POINT('',(0.12557382849,6.317815279694));
#761 = CARTESIAN_POINT('',(0.125617581969,6.326396038816));
#762 = CARTESIAN_POINT('',(0.125672136549,6.334964099309));
#763 = CARTESIAN_POINT('',(0.125737436881,6.343516435616));
#764 = ( GEOMETRIC_REPRESENTATION_CONTEXT(2) 
PARAMETRIC_REPRESENTATION_CONTEXT() REPRESENTATION_CONTEXT('2D SPACE',''
  ) );
#765 = PCURVE('',#766,#771);
#766 = PLANE('',#767);
#767 = AXIS2_PLACEMENT_3D('',#768,#769,#770);
#768 = CARTESIAN_POINT('',(192.5,25.9,-32.08122158066));
#769 = DIRECTION('',(-0.,1.,0.));
#770 = DIRECTION('',(0.,0.,1.));
#771 = DEFINITIONAL_REPRESENTATION('',(#772),#793);
#772 = B_SPLINE_CURVE_WITH_KNOTS('',7,(#773,#774,#775,#776,#777,#778,
    #779,#780,#781,#782,#783,#784,#785,#786,#787,#788,#789,#790,#791,
    #792),.UNSPECIFIED.,.F.,.F.,(8,6,6,8),(0.,0.438678933844,
    0.846452813168,1.),.UNSPECIFIED.);
#773 = CARTESIAN_POINT('',(0.,2.428359480248));
#774 = CARTESIAN_POINT('',(2.112666201,3.827606759111));
#775 = CARTESIAN_POINT('',(4.280253166809,5.144007351394));
#776 = CARTESIAN_POINT('',(6.50237978959,6.369746497381));
#777 = CARTESIAN_POINT('',(8.777624508024,7.496212162491));
#778 = CARTESIAN_POINT('',(11.103341686893,8.514380167394));
#779 = CARTESIAN_POINT('',(13.475430025648,9.415296432155));
#780 = CARTESIAN_POINT('',(18.130462062454,10.911915620313));
#781 = CARTESIAN_POINT('',(20.408249160508,11.524757846928));
#782 = CARTESIAN_POINT('',(22.715813175895,12.022716873328));
#783 = CARTESIAN_POINT('',(25.046909604637,12.400166285366));
#784 = CARTESIAN_POINT('',(27.394471982502,12.652926355427));
#785 = CARTESIAN_POINT('',(29.750546455935,12.778689454515));
#786 = CARTESIAN_POINT('',(32.993238948716,12.777100745878));
#787 = CARTESIAN_POINT('',(33.880259821994,12.758670582032));
#788 = CARTESIAN_POINT('',(34.766830855216,12.722245293301));
#789 = CARTESIAN_POINT('',(35.652515269238,12.667869471127));
#790 = CARTESIAN_POINT('',(36.536884253905,12.595630314623));
#791 = CARTESIAN_POINT('',(37.419516878132,12.505656100725));
#792 = CARTESIAN_POINT('',(38.3,12.398114654332));
#793 = ( GEOMETRIC_REPRESENTATION_CONTEXT(2) 
PARAMETRIC_REPRESENTATION_CONTEXT() REPRESENTATION_CONTEXT('2D SPACE',''
  ) );
#794 = ORIENTED_EDGE('',*,*,#795,.F.);
#795 = EDGE_CURVE('',#796,#717,#798,.T.);
#796 = VERTEX_POINT('',#797);
#797 = CARTESIAN_POINT('',(201.31775229447,46.1,6.218778419338));
#798 = SURFACE_CURVE('',#799,(#808,#820),.PCURVE_S1.);
#799 = B_SPLINE_CURVE_WITH_KNOTS('',4,(#800,#801,#802,#803,#804,#805,
    #806,#807),.UNSPECIFIED.,.F.,.F.,(5,3,5),(0.,0.500245180463,1.),
  .UNSPECIFIED.);
#800 = CARTESIAN_POINT('',(201.31775229447,46.1,6.218778419338));
#801 = CARTESIAN_POINT('',(201.89066801172,43.598088845494,
    6.218778419338));
#802 = CARTESIAN_POINT('',(202.42212649548,41.086684280718,
    6.218778419338));
#803 = CARTESIAN_POINT('',(202.91189173089,38.566817018464,
    6.218778419338));
#804 = CARTESIAN_POINT('',(203.80722762256,33.514716776794,
    6.218778419338));
#805 = CARTESIAN_POINT('',(204.21288036291,30.982498212375,
    6.218778419338));
#806 = CARTESIAN_POINT('',(204.57655344539,28.443910634113,
    6.218778419338));
#807 = CARTESIAN_POINT('',(204.89811465433,25.9,6.218778419338));
#808 = PCURVE('',#132,#809);
#809 = DEFINITIONAL_REPRESENTATION('',(#810),#819);
#810 = B_SPLINE_CURVE_WITH_KNOTS('',4,(#811,#812,#813,#814,#815,#816,
    #817,#818),.UNSPECIFIED.,.F.,.F.,(5,3,5),(0.,0.500245180463,1.),
  .UNSPECIFIED.);
#811 = CARTESIAN_POINT('',(0.225110091686,6.343516435616));
#812 = CARTESIAN_POINT('',(0.212682418884,6.343516435616));
#813 = CARTESIAN_POINT('',(0.200254745008,6.343516435616));
#814 = CARTESIAN_POINT('',(0.187827072639,6.343516435616));
#815 = CARTESIAN_POINT('',(0.162983909149,6.343516435616));
#816 = CARTESIAN_POINT('',(0.15056841828,6.343516435616));
#817 = CARTESIAN_POINT('',(0.13815292763,6.343516435616));
#818 = CARTESIAN_POINT('',(0.125737436944,6.343516435616));
#819 = ( GEOMETRIC_REPRESENTATION_CONTEXT(2) 
PARAMETRIC_REPRESENTATION_CONTEXT() REPRESENTATION_CONTEXT('2D SPACE',''
  ) );
#820 = PCURVE('',#821,#826);
#821 = PLANE('',#822);
#822 = AXIS2_PLACEMENT_3D('',#823,#824,#825);
#823 = CARTESIAN_POINT('',(192.5,25.9,6.218778419338));
#824 = DIRECTION('',(0.,0.,1.));
#825 = DIRECTION('',(1.,0.,-0.));
#826 = DEFINITIONAL_REPRESENTATION('',(#827),#836);
#827 = B_SPLINE_CURVE_WITH_KNOTS('',4,(#828,#829,#830,#831,#832,#833,
    #834,#835),.UNSPECIFIED.,.F.,.F.,(5,3,5),(0.,0.500245180463,1.),
  .UNSPECIFIED.);
#828 = CARTESIAN_POINT('',(8.817752294476,20.2));
#829 = CARTESIAN_POINT('',(9.390668011723,17.698088845494));
#830 = CARTESIAN_POINT('',(9.922126495487,15.186684280718));
#831 = CARTESIAN_POINT('',(10.411891730892,12.666817018464));
#832 = CARTESIAN_POINT('',(11.307227622566,7.614716776794));
#833 = CARTESIAN_POINT('',(11.712880362913,5.082498212375));
#834 = CARTESIAN_POINT('',(12.076553445397,2.543910634113));
#835 = CARTESIAN_POINT('',(12.398114654332,0.));
#836 = ( GEOMETRIC_REPRESENTATION_CONTEXT(2) 
PARAMETRIC_REPRESENTATION_CONTEXT() REPRESENTATION_CONTEXT('2D SPACE',''
  ) );
#837 = ORIENTED_EDGE('',*,*,#838,.F.);
#838 = EDGE_CURVE('',#637,#796,#839,.T.);
#839 = SURFACE_CURVE('',#840,(#863,#889),.PCURVE_S1.);
#840 = B_SPLINE_CURVE_WITH_KNOTS('',6,(#841,#842,#843,#844,#845,#846,
    #847,#848,#849,#850,#851,#852,#853,#854,#855,#856,#857,#858,#859,
    #860,#861,#862),.UNSPECIFIED.,.F.,.F.,(7,5,5,5,7),(0.,0.308747766745
    ,0.577046960708,0.836810829985,1.),.UNSPECIFIED.);
#841 = CARTESIAN_POINT('',(192.5,46.1,-30.02637397554));
#842 = CARTESIAN_POINT('',(193.54128862061,46.1,-28.36750819186));
#843 = CARTESIAN_POINT('',(194.52820528576,46.1,-26.67451731803));
#844 = CARTESIAN_POINT('',(195.4564928855,46.1,-24.94780641123));
#845 = CARTESIAN_POINT('',(196.32156596882,46.1,-23.18830835349));
#846 = CARTESIAN_POINT('',(197.11869211886,46.1,-21.39757647829));
#847 = CARTESIAN_POINT('',(198.47301745116,46.1,-17.99671102187));
#848 = CARTESIAN_POINT('',(199.04797407392,46.1,-16.39363696687));
#849 = CARTESIAN_POINT('',(199.56517420397,46.1,-14.77033609612));
#850 = CARTESIAN_POINT('',(200.02174699255,46.1,-13.12881643454));
#851 = CARTESIAN_POINT('',(200.41512476968,46.1,-11.47153269426));
#852 = CARTESIAN_POINT('',(201.06098786487,46.1,-8.184505994788));
#853 = CARTESIAN_POINT('',(201.31757207927,46.1,-6.555487283742));
#854 = CARTESIAN_POINT('',(201.51116306219,46.1,-4.917155229225));
#855 = CARTESIAN_POINT('',(201.64043235267,46.1,-3.272448932679));
#856 = CARTESIAN_POINT('',(201.70467714308,46.1,-1.6244978813));
#857 = CARTESIAN_POINT('',(201.70342611839,46.1,1.058595364518));
#858 = CARTESIAN_POINT('',(201.67728531791,46.1,2.093814599273));
#859 = CARTESIAN_POINT('',(201.62548714266,46.1,3.128220025185));
#860 = CARTESIAN_POINT('',(201.5481411063,46.1,4.161024256226));
#861 = CARTESIAN_POINT('',(201.4454596498,46.1,5.191459742208));
#862 = CARTESIAN_POINT('',(201.31775229447,46.1,6.218778419338));
#863 = PCURVE('',#132,#864);
#864 = DEFINITIONAL_REPRESENTATION('',(#865),#888);
#865 = B_SPLINE_CURVE_WITH_KNOTS('',6,(#866,#867,#868,#869,#870,#871,
    #872,#873,#874,#875,#876,#877,#878,#879,#880,#881,#882,#883,#884,
    #885,#886,#887),.UNSPECIFIED.,.F.,.F.,(7,5,5,5,7),(0.,0.308747766745
    ,0.577046960708,0.836810829985,1.),.UNSPECIFIED.);
#866 = CARTESIAN_POINT('',(0.235053734764,5.987785363886));
#867 = CARTESIAN_POINT('',(0.233828578647,6.004597186564));
#868 = CARTESIAN_POINT('',(0.232682437911,6.0216516418));
#869 = CARTESIAN_POINT('',(0.23161703645,6.038947593137));
#870 = CARTESIAN_POINT('',(0.230634520449,6.056479782895));
#871 = CARTESIAN_POINT('',(0.229737293375,6.074238344816));
#872 = CARTESIAN_POINT('',(0.228224362684,6.107822224282));
#873 = CARTESIAN_POINT('',(0.227587169371,6.123596169827));
#874 = CARTESIAN_POINT('',(0.227017863943,6.139517982653));
#875 = CARTESIAN_POINT('',(0.226518061475,6.155573495821));
#876 = CARTESIAN_POINT('',(0.226089259569,6.171745147868));
#877 = CARTESIAN_POINT('',(0.225387417702,6.203759596679));
#878 = CARTESIAN_POINT('',(0.225109841293,6.219597239122));
#879 = CARTESIAN_POINT('',(0.224901052931,6.235503598787));
#880 = CARTESIAN_POINT('',(0.224761853328,6.251457154623));
#881 = CARTESIAN_POINT('',(0.224692669682,6.267434891013));
#882 = CARTESIAN_POINT('',(0.224694016859,6.293448981712));
#883 = CARTESIAN_POINT('',(0.224722166897,6.303486038897));
#884 = CARTESIAN_POINT('',(0.224777946619,6.313517053558));
#885 = CARTESIAN_POINT('',(0.224861289434,6.323536210699));
#886 = CARTESIAN_POINT('',(0.224972066627,6.333537851582));
#887 = CARTESIAN_POINT('',(0.225110091256,6.343516435616));
#888 = ( GEOMETRIC_REPRESENTATION_CONTEXT(2) 
PARAMETRIC_REPRESENTATION_CONTEXT() REPRESENTATION_CONTEXT('2D SPACE',''
  ) );
#889 = PCURVE('',#890,#895);
#890 = PLANE('',#891);
#891 = AXIS2_PLACEMENT_3D('',#892,#893,#894);
#892 = CARTESIAN_POINT('',(192.5,46.1,-32.08122158066));
#893 = DIRECTION('',(-0.,1.,0.));
#894 = DIRECTION('',(0.,0.,1.));
#895 = DEFINITIONAL_REPRESENTATION('',(#896),#919);
#896 = B_SPLINE_CURVE_WITH_KNOTS('',6,(#897,#898,#899,#900,#901,#902,
    #903,#904,#905,#906,#907,#908,#909,#910,#911,#912,#913,#914,#915,
    #916,#917,#918),.UNSPECIFIED.,.F.,.F.,(7,5,5,5,7),(0.,0.308747766745
    ,0.577046960708,0.836810829985,1.),.UNSPECIFIED.);
#897 = CARTESIAN_POINT('',(2.054847605118,0.));
#898 = CARTESIAN_POINT('',(3.713713388794,1.041288620612));
#899 = CARTESIAN_POINT('',(5.406704262624,2.028205285762));
#900 = CARTESIAN_POINT('',(7.133415169432,2.956492885506));
#901 = CARTESIAN_POINT('',(8.892913227172,3.821565968826));
#902 = CARTESIAN_POINT('',(10.683645102369,4.618692118869));
#903 = CARTESIAN_POINT('',(14.084510558787,5.973017451167));
#904 = CARTESIAN_POINT('',(15.687584613785,6.547974073928));
#905 = CARTESIAN_POINT('',(17.310885484542,7.06517420397));
#906 = CARTESIAN_POINT('',(18.952405146114,7.521746992551));
#907 = CARTESIAN_POINT('',(20.609688886402,7.915124769689));
#908 = CARTESIAN_POINT('',(23.896715585874,8.560987864879));
#909 = CARTESIAN_POINT('',(25.52573429692,8.817572079277));
#910 = CARTESIAN_POINT('',(27.164066351437,9.011163062192));
#911 = CARTESIAN_POINT('',(28.808772647983,9.140432352676));
#912 = CARTESIAN_POINT('',(30.456723699362,9.204677143082));
#913 = CARTESIAN_POINT('',(33.13981694518,9.203426118399));
#914 = CARTESIAN_POINT('',(34.175036179935,9.177285317911));
#915 = CARTESIAN_POINT('',(35.209441605847,9.125487142666));
#916 = CARTESIAN_POINT('',(36.242245836889,9.048141106308));
#917 = CARTESIAN_POINT('',(37.27268132287,8.945459649807));
#918 = CARTESIAN_POINT('',(38.3,8.817752294476));
#919 = ( GEOMETRIC_REPRESENTATION_CONTEXT(2) 
PARAMETRIC_REPRESENTATION_CONTEXT() REPRESENTATION_CONTEXT('2D SPACE',''
  ) );
#920 = ADVANCED_FACE('',(#921),#100,.F.);
#921 = FACE_BOUND('',#922,.F.);
#922 = EDGE_LOOP('',(#923,#924,#925));
#923 = ORIENTED_EDGE('',*,*,#84,.F.);
#924 = ORIENTED_EDGE('',*,*,#501,.T.);
#925 = ORIENTED_EDGE('',*,*,#605,.F.);
#926 = ADVANCED_FACE('',(#927),#195,.F.);
#927 = FACE_BOUND('',#928,.F.);
#928 = EDGE_LOOP('',(#929,#953,#974,#975));
#929 = ORIENTED_EDGE('',*,*,#930,.F.);
#930 = EDGE_CURVE('',#931,#931,#933,.T.);
#931 = VERTEX_POINT('',#932);
#932 = CARTESIAN_POINT('',(192.5,36.,-26.03122158066));
#933 = SURFACE_CURVE('',#934,(#939,#946),.PCURVE_S1.);
#934 = CIRCLE('',#935,0.8);
#935 = AXIS2_PLACEMENT_3D('',#936,#937,#938);
#936 = CARTESIAN_POINT('',(192.5,36.,-26.83122158066));
#937 = DIRECTION('',(1.,0.,0.));
#938 = DIRECTION('',(-0.,0.,1.));
#939 = PCURVE('',#195,#940);
#940 = DEFINITIONAL_REPRESENTATION('',(#941),#945);
#941 = LINE('',#942,#943);
#942 = CARTESIAN_POINT('',(0.,8.));
#943 = VECTOR('',#944,1.);
#944 = DIRECTION('',(1.,0.));
#945 = ( GEOMETRIC_REPRESENTATION_CONTEXT(2) 
PARAMETRIC_REPRESENTATION_CONTEXT() REPRESENTATION_CONTEXT('2D SPACE',''
  ) );
#946 = PCURVE('',#658,#947);
#947 = DEFINITIONAL_REPRESENTATION('',(#948),#952);
#948 = CIRCLE('',#949,0.8);
#949 = AXIS2_PLACEMENT_2D('',#950,#951);
#950 = CARTESIAN_POINT('',(5.25,-10.1));
#951 = DIRECTION('',(1.,0.));
#952 = ( GEOMETRIC_REPRESENTATION_CONTEXT(2) 
PARAMETRIC_REPRESENTATION_CONTEXT() REPRESENTATION_CONTEXT('2D SPACE',''
  ) );
#953 = ORIENTED_EDGE('',*,*,#954,.F.);
#954 = EDGE_CURVE('',#179,#931,#955,.T.);
#955 = SEAM_CURVE('',#956,(#960,#967),.PCURVE_S1.);
#956 = LINE('',#957,#958);
#957 = CARTESIAN_POINT('',(184.5,36.,-26.03122158066));
#958 = VECTOR('',#959,1.);
#959 = DIRECTION('',(1.,0.,0.));
#960 = PCURVE('',#195,#961);
#961 = DEFINITIONAL_REPRESENTATION('',(#962),#966);
#962 = LINE('',#963,#964);
#963 = CARTESIAN_POINT('',(6.28318530718,-0.));
#964 = VECTOR('',#965,1.);
#965 = DIRECTION('',(0.,1.));
#966 = ( GEOMETRIC_REPRESENTATION_CONTEXT(2) 
PARAMETRIC_REPRESENTATION_CONTEXT() REPRESENTATION_CONTEXT('2D SPACE',''
  ) );
#967 = PCURVE('',#195,#968);
#968 = DEFINITIONAL_REPRESENTATION('',(#969),#973);
#969 = LINE('',#970,#971);
#970 = CARTESIAN_POINT('',(0.,-0.));
#971 = VECTOR('',#972,1.);
#972 = DIRECTION('',(0.,1.));
#973 = ( GEOMETRIC_REPRESENTATION_CONTEXT(2) 
PARAMETRIC_REPRESENTATION_CONTEXT() REPRESENTATION_CONTEXT('2D SPACE',''
  ) );
#974 = ORIENTED_EDGE('',*,*,#178,.T.);
#975 = ORIENTED_EDGE('',*,*,#954,.T.);
#976 = ADVANCED_FACE('',(#977),#226,.F.);
#977 = FACE_BOUND('',#978,.F.);
#978 = EDGE_LOOP('',(#979,#1003,#1024,#1025));
#979 = ORIENTED_EDGE('',*,*,#980,.F.);
#980 = EDGE_CURVE('',#981,#981,#983,.T.);
#981 = VERTEX_POINT('',#982);
#982 = CARTESIAN_POINT('',(192.5,36.,1.768778419338));
#983 = SURFACE_CURVE('',#984,(#989,#996),.PCURVE_S1.);
#984 = CIRCLE('',#985,0.8);
#985 = AXIS2_PLACEMENT_3D('',#986,#987,#988);
#986 = CARTESIAN_POINT('',(192.5,36.,0.968778419338));
#987 = DIRECTION('',(1.,0.,0.));
#988 = DIRECTION('',(-0.,0.,1.));
#989 = PCURVE('',#226,#990);
#990 = DEFINITIONAL_REPRESENTATION('',(#991),#995);
#991 = LINE('',#992,#993);
#992 = CARTESIAN_POINT('',(0.,8.));
#993 = VECTOR('',#994,1.);
#994 = DIRECTION('',(1.,0.));
#995 = ( GEOMETRIC_REPRESENTATION_CONTEXT(2) 
PARAMETRIC_REPRESENTATION_CONTEXT() REPRESENTATION_CONTEXT('2D SPACE',''
  ) );
#996 = PCURVE('',#658,#997);
#997 = DEFINITIONAL_REPRESENTATION('',(#998),#1002);
#998 = CIRCLE('',#999,0.8);
#999 = AXIS2_PLACEMENT_2D('',#1000,#1001);
#1000 = CARTESIAN_POINT('',(33.05,-10.1));
#1001 = DIRECTION('',(1.,0.));
#1002 = ( GEOMETRIC_REPRESENTATION_CONTEXT(2) 
PARAMETRIC_REPRESENTATION_CONTEXT() REPRESENTATION_CONTEXT('2D SPACE',''
  ) );
#1003 = ORIENTED_EDGE('',*,*,#1004,.F.);
#1004 = EDGE_CURVE('',#210,#981,#1005,.T.);
#1005 = SEAM_CURVE('',#1006,(#1010,#1017),.PCURVE_S1.);
#1006 = LINE('',#1007,#1008);
#1007 = CARTESIAN_POINT('',(184.5,36.,1.768778419338));
#1008 = VECTOR('',#1009,1.);
#1009 = DIRECTION('',(1.,0.,0.));
#1010 = PCURVE('',#226,#1011);
#1011 = DEFINITIONAL_REPRESENTATION('',(#1012),#1016);
#1012 = LINE('',#1013,#1014);
#1013 = CARTESIAN_POINT('',(6.28318530718,-0.));
#1014 = VECTOR('',#1015,1.);
#1015 = DIRECTION('',(0.,1.));
#1016 = ( GEOMETRIC_REPRESENTATION_CONTEXT(2) 
PARAMETRIC_REPRESENTATION_CONTEXT() REPRESENTATION_CONTEXT('2D SPACE',''
  ) );
#1017 = PCURVE('',#226,#1018);
#1018 = DEFINITIONAL_REPRESENTATION('',(#1019),#1023);
#1019 = LINE('',#1020,#1021);
#1020 = CARTESIAN_POINT('',(0.,-0.));
#1021 = VECTOR('',#1022,1.);
#1022 = DIRECTION('',(0.,1.));
#1023 = ( GEOMETRIC_REPRESENTATION_CONTEXT(2) 
PARAMETRIC_REPRESENTATION_CONTEXT() REPRESENTATION_CONTEXT('2D SPACE',''
  ) );
#1024 = ORIENTED_EDGE('',*,*,#209,.T.);
#1025 = ORIENTED_EDGE('',*,*,#1004,.T.);
#1026 = ADVANCED_FACE('',(#1027),#257,.T.);
#1027 = FACE_BOUND('',#1028,.T.);
#1028 = EDGE_LOOP('',(#1029,#1052,#1053,#1076));
#1029 = ORIENTED_EDGE('',*,*,#1030,.F.);
#1030 = EDGE_CURVE('',#241,#1031,#1033,.T.);
#1031 = VERTEX_POINT('',#1032);
#1032 = CARTESIAN_POINT('',(192.5,42.3,-24.53122158066));
#1033 = SURFACE_CURVE('',#1034,(#1038,#1045),.PCURVE_S1.);
#1034 = LINE('',#1035,#1036);
#1035 = CARTESIAN_POINT('',(184.5,42.3,-24.53122158066));
#1036 = VECTOR('',#1037,1.);
#1037 = DIRECTION('',(1.,0.,-0.));
#1038 = PCURVE('',#257,#1039);
#1039 = DEFINITIONAL_REPRESENTATION('',(#1040),#1044);
#1040 = LINE('',#1041,#1042);
#1041 = CARTESIAN_POINT('',(0.,12.6));
#1042 = VECTOR('',#1043,1.);
#1043 = DIRECTION('',(1.,0.));
#1044 = ( GEOMETRIC_REPRESENTATION_CONTEXT(2) 
PARAMETRIC_REPRESENTATION_CONTEXT() REPRESENTATION_CONTEXT('2D SPACE',''
  ) );
#1045 = PCURVE('',#333,#1046);
#1046 = DEFINITIONAL_REPRESENTATION('',(#1047),#1051);
#1047 = LINE('',#1048,#1049);
#1048 = CARTESIAN_POINT('',(0.,0.));
#1049 = VECTOR('',#1050,1.);
#1050 = DIRECTION('',(0.,1.));
#1051 = ( GEOMETRIC_REPRESENTATION_CONTEXT(2) 
PARAMETRIC_REPRESENTATION_CONTEXT() REPRESENTATION_CONTEXT('2D SPACE',''
  ) );
#1052 = ORIENTED_EDGE('',*,*,#240,.T.);
#1053 = ORIENTED_EDGE('',*,*,#1054,.T.);
#1054 = EDGE_CURVE('',#243,#1055,#1057,.T.);
#1055 = VERTEX_POINT('',#1056);
#1056 = CARTESIAN_POINT('',(192.5,29.7,-24.53122158066));
#1057 = SURFACE_CURVE('',#1058,(#1062,#1069),.PCURVE_S1.);
#1058 = LINE('',#1059,#1060);
#1059 = CARTESIAN_POINT('',(184.5,29.7,-24.53122158066));
#1060 = VECTOR('',#1061,1.);
#1061 = DIRECTION('',(1.,0.,-0.));
#1062 = PCURVE('',#257,#1063);
#1063 = DEFINITIONAL_REPRESENTATION('',(#1064),#1068);
#1064 = LINE('',#1065,#1066);
#1065 = CARTESIAN_POINT('',(0.,0.));
#1066 = VECTOR('',#1067,1.);
#1067 = DIRECTION('',(1.,0.));
#1068 = ( GEOMETRIC_REPRESENTATION_CONTEXT(2) 
PARAMETRIC_REPRESENTATION_CONTEXT() REPRESENTATION_CONTEXT('2D SPACE',''
  ) );
#1069 = PCURVE('',#283,#1070);
#1070 = DEFINITIONAL_REPRESENTATION('',(#1071),#1075);
#1071 = LINE('',#1072,#1073);
#1072 = CARTESIAN_POINT('',(0.,0.));
#1073 = VECTOR('',#1074,1.);
#1074 = DIRECTION('',(0.,1.));
#1075 = ( GEOMETRIC_REPRESENTATION_CONTEXT(2) 
PARAMETRIC_REPRESENTATION_CONTEXT() REPRESENTATION_CONTEXT('2D SPACE',''
  ) );
#1076 = ORIENTED_EDGE('',*,*,#1077,.F.);
#1077 = EDGE_CURVE('',#1031,#1055,#1078,.T.);
#1078 = SURFACE_CURVE('',#1079,(#1083,#1089),.PCURVE_S1.);
#1079 = LINE('',#1080,#1081);
#1080 = CARTESIAN_POINT('',(192.5,27.8,-24.53122158066));
#1081 = VECTOR('',#1082,1.);
#1082 = DIRECTION('',(0.,-1.,0.));
#1083 = PCURVE('',#257,#1084);
#1084 = DEFINITIONAL_REPRESENTATION('',(#1085),#1088);
#1085 = B_SPLINE_CURVE_WITH_KNOTS('',1,(#1086,#1087),.UNSPECIFIED.,.F.,
  .F.,(2,2),(-14.5,-1.9),.PIECEWISE_BEZIER_KNOTS.);
#1086 = CARTESIAN_POINT('',(8.,12.6));
#1087 = CARTESIAN_POINT('',(8.,0.));
#1088 = ( GEOMETRIC_REPRESENTATION_CONTEXT(2) 
PARAMETRIC_REPRESENTATION_CONTEXT() REPRESENTATION_CONTEXT('2D SPACE',''
  ) );
#1089 = PCURVE('',#658,#1090);
#1090 = DEFINITIONAL_REPRESENTATION('',(#1091),#1094);
#1091 = B_SPLINE_CURVE_WITH_KNOTS('',1,(#1092,#1093),.UNSPECIFIED.,.F.,
  .F.,(2,2),(-14.5,-1.9),.PIECEWISE_BEZIER_KNOTS.);
#1092 = CARTESIAN_POINT('',(7.55,-16.4));
#1093 = CARTESIAN_POINT('',(7.55,-3.8));
#1094 = ( GEOMETRIC_REPRESENTATION_CONTEXT(2) 
PARAMETRIC_REPRESENTATION_CONTEXT() REPRESENTATION_CONTEXT('2D SPACE',''
  ) );
#1095 = ADVANCED_FACE('',(#1096),#333,.F.);
#1096 = FACE_BOUND('',#1097,.F.);
#1097 = EDGE_LOOP('',(#1098,#1099,#1100,#1123));
#1098 = ORIENTED_EDGE('',*,*,#1030,.F.);
#1099 = ORIENTED_EDGE('',*,*,#320,.T.);
#1100 = ORIENTED_EDGE('',*,*,#1101,.T.);
#1101 = EDGE_CURVE('',#295,#1102,#1104,.T.);
#1102 = VERTEX_POINT('',#1103);
#1103 = CARTESIAN_POINT('',(192.5,42.3,-1.331221580662));
#1104 = SURFACE_CURVE('',#1105,(#1109,#1116),.PCURVE_S1.);
#1105 = LINE('',#1106,#1107);
#1106 = CARTESIAN_POINT('',(184.5,42.3,-1.331221580662));
#1107 = VECTOR('',#1108,1.);
#1108 = DIRECTION('',(1.,0.,-0.));
#1109 = PCURVE('',#333,#1110);
#1110 = DEFINITIONAL_REPRESENTATION('',(#1111),#1115);
#1111 = LINE('',#1112,#1113);
#1112 = CARTESIAN_POINT('',(23.2,0.));
#1113 = VECTOR('',#1114,1.);
#1114 = DIRECTION('',(0.,1.));
#1115 = ( GEOMETRIC_REPRESENTATION_CONTEXT(2) 
PARAMETRIC_REPRESENTATION_CONTEXT() REPRESENTATION_CONTEXT('2D SPACE',''
  ) );
#1116 = PCURVE('',#309,#1117);
#1117 = DEFINITIONAL_REPRESENTATION('',(#1118),#1122);
#1118 = LINE('',#1119,#1120);
#1119 = CARTESIAN_POINT('',(0.,12.6));
#1120 = VECTOR('',#1121,1.);
#1121 = DIRECTION('',(1.,0.));
#1122 = ( GEOMETRIC_REPRESENTATION_CONTEXT(2) 
PARAMETRIC_REPRESENTATION_CONTEXT() REPRESENTATION_CONTEXT('2D SPACE',''
  ) );
#1123 = ORIENTED_EDGE('',*,*,#1124,.F.);
#1124 = EDGE_CURVE('',#1031,#1102,#1125,.T.);
#1125 = SURFACE_CURVE('',#1126,(#1130,#1136),.PCURVE_S1.);
#1126 = LINE('',#1127,#1128);
#1127 = CARTESIAN_POINT('',(192.5,42.3,-28.30622158066));
#1128 = VECTOR('',#1129,1.);
#1129 = DIRECTION('',(0.,0.,1.));
#1130 = PCURVE('',#333,#1131);
#1131 = DEFINITIONAL_REPRESENTATION('',(#1132),#1135);
#1132 = B_SPLINE_CURVE_WITH_KNOTS('',1,(#1133,#1134),.UNSPECIFIED.,.F.,
  .F.,(2,2),(3.775,26.975),.PIECEWISE_BEZIER_KNOTS.);
#1133 = CARTESIAN_POINT('',(0.,8.));
#1134 = CARTESIAN_POINT('',(23.2,8.));
#1135 = ( GEOMETRIC_REPRESENTATION_CONTEXT(2) 
PARAMETRIC_REPRESENTATION_CONTEXT() REPRESENTATION_CONTEXT('2D SPACE',''
  ) );
#1136 = PCURVE('',#658,#1137);
#1137 = DEFINITIONAL_REPRESENTATION('',(#1138),#1141);
#1138 = B_SPLINE_CURVE_WITH_KNOTS('',1,(#1139,#1140),.UNSPECIFIED.,.F.,
  .F.,(2,2),(3.775,26.975),.PIECEWISE_BEZIER_KNOTS.);
#1139 = CARTESIAN_POINT('',(7.55,-16.4));
#1140 = CARTESIAN_POINT('',(30.75,-16.4));
#1141 = ( GEOMETRIC_REPRESENTATION_CONTEXT(2) 
PARAMETRIC_REPRESENTATION_CONTEXT() REPRESENTATION_CONTEXT('2D SPACE',''
  ) );
#1142 = ADVANCED_FACE('',(#1143),#283,.T.);
#1143 = FACE_BOUND('',#1144,.T.);
#1144 = EDGE_LOOP('',(#1145,#1146,#1147,#1170));
#1145 = ORIENTED_EDGE('',*,*,#1054,.F.);
#1146 = ORIENTED_EDGE('',*,*,#268,.T.);
#1147 = ORIENTED_EDGE('',*,*,#1148,.T.);
#1148 = EDGE_CURVE('',#269,#1149,#1151,.T.);
#1149 = VERTEX_POINT('',#1150);
#1150 = CARTESIAN_POINT('',(192.5,29.7,-1.331221580662));
#1151 = SURFACE_CURVE('',#1152,(#1156,#1163),.PCURVE_S1.);
#1152 = LINE('',#1153,#1154);
#1153 = CARTESIAN_POINT('',(184.5,29.7,-1.331221580662));
#1154 = VECTOR('',#1155,1.);
#1155 = DIRECTION('',(1.,0.,-0.));
#1156 = PCURVE('',#283,#1157);
#1157 = DEFINITIONAL_REPRESENTATION('',(#1158),#1162);
#1158 = LINE('',#1159,#1160);
#1159 = CARTESIAN_POINT('',(23.2,0.));
#1160 = VECTOR('',#1161,1.);
#1161 = DIRECTION('',(0.,1.));
#1162 = ( GEOMETRIC_REPRESENTATION_CONTEXT(2) 
PARAMETRIC_REPRESENTATION_CONTEXT() REPRESENTATION_CONTEXT('2D SPACE',''
  ) );
#1163 = PCURVE('',#309,#1164);
#1164 = DEFINITIONAL_REPRESENTATION('',(#1165),#1169);
#1165 = LINE('',#1166,#1167);
#1166 = CARTESIAN_POINT('',(0.,0.));
#1167 = VECTOR('',#1168,1.);
#1168 = DIRECTION('',(1.,0.));
#1169 = ( GEOMETRIC_REPRESENTATION_CONTEXT(2) 
PARAMETRIC_REPRESENTATION_CONTEXT() REPRESENTATION_CONTEXT('2D SPACE',''
  ) );
#1170 = ORIENTED_EDGE('',*,*,#1171,.F.);
#1171 = EDGE_CURVE('',#1055,#1149,#1172,.T.);
#1172 = SURFACE_CURVE('',#1173,(#1177,#1183),.PCURVE_S1.);
#1173 = LINE('',#1174,#1175);
#1174 = CARTESIAN_POINT('',(192.5,29.7,-28.30622158066));
#1175 = VECTOR('',#1176,1.);
#1176 = DIRECTION('',(0.,0.,1.));
#1177 = PCURVE('',#283,#1178);
#1178 = DEFINITIONAL_REPRESENTATION('',(#1179),#1182);
#1179 = B_SPLINE_CURVE_WITH_KNOTS('',1,(#1180,#1181),.UNSPECIFIED.,.F.,
  .F.,(2,2),(3.775,26.975),.PIECEWISE_BEZIER_KNOTS.);
#1180 = CARTESIAN_POINT('',(0.,8.));
#1181 = CARTESIAN_POINT('',(23.2,8.));
#1182 = ( GEOMETRIC_REPRESENTATION_CONTEXT(2) 
PARAMETRIC_REPRESENTATION_CONTEXT() REPRESENTATION_CONTEXT('2D SPACE',''
  ) );
#1183 = PCURVE('',#658,#1184);
#1184 = DEFINITIONAL_REPRESENTATION('',(#1185),#1188);
#1185 = B_SPLINE_CURVE_WITH_KNOTS('',1,(#1186,#1187),.UNSPECIFIED.,.F.,
  .F.,(2,2),(3.775,26.975),.PIECEWISE_BEZIER_KNOTS.);
#1186 = CARTESIAN_POINT('',(7.55,-3.8));
#1187 = CARTESIAN_POINT('',(30.75,-3.8));
#1188 = ( GEOMETRIC_REPRESENTATION_CONTEXT(2) 
PARAMETRIC_REPRESENTATION_CONTEXT() REPRESENTATION_CONTEXT('2D SPACE',''
  ) );
#1189 = ADVANCED_FACE('',(#1190),#309,.F.);
#1190 = FACE_BOUND('',#1191,.F.);
#1191 = EDGE_LOOP('',(#1192,#1193,#1194,#1195));
#1192 = ORIENTED_EDGE('',*,*,#1101,.F.);
#1193 = ORIENTED_EDGE('',*,*,#294,.T.);
#1194 = ORIENTED_EDGE('',*,*,#1148,.T.);
#1195 = ORIENTED_EDGE('',*,*,#1196,.F.);
#1196 = EDGE_CURVE('',#1102,#1149,#1197,.T.);
#1197 = SURFACE_CURVE('',#1198,(#1202,#1208),.PCURVE_S1.);
#1198 = LINE('',#1199,#1200);
#1199 = CARTESIAN_POINT('',(192.5,27.8,-1.331221580662));
#1200 = VECTOR('',#1201,1.);
#1201 = DIRECTION('',(0.,-1.,0.));
#1202 = PCURVE('',#309,#1203);
#1203 = DEFINITIONAL_REPRESENTATION('',(#1204),#1207);
#1204 = B_SPLINE_CURVE_WITH_KNOTS('',1,(#1205,#1206),.UNSPECIFIED.,.F.,
  .F.,(2,2),(-14.5,-1.9),.PIECEWISE_BEZIER_KNOTS.);
#1205 = CARTESIAN_POINT('',(8.,12.6));
#1206 = CARTESIAN_POINT('',(8.,0.));
#1207 = ( GEOMETRIC_REPRESENTATION_CONTEXT(2) 
PARAMETRIC_REPRESENTATION_CONTEXT() REPRESENTATION_CONTEXT('2D SPACE',''
  ) );
#1208 = PCURVE('',#658,#1209);
#1209 = DEFINITIONAL_REPRESENTATION('',(#1210),#1213);
#1210 = B_SPLINE_CURVE_WITH_KNOTS('',1,(#1211,#1212),.UNSPECIFIED.,.F.,
  .F.,(2,2),(-14.5,-1.9),.PIECEWISE_BEZIER_KNOTS.);
#1211 = CARTESIAN_POINT('',(30.75,-16.4));
#1212 = CARTESIAN_POINT('',(30.75,-3.8));
#1213 = ( GEOMETRIC_REPRESENTATION_CONTEXT(2) 
PARAMETRIC_REPRESENTATION_CONTEXT() REPRESENTATION_CONTEXT('2D SPACE',''
  ) );
#1214 = ADVANCED_FACE('',(#1215,#1308,#1311,#1314),#658,.T.);
#1215 = FACE_BOUND('',#1216,.T.);
#1216 = EDGE_LOOP('',(#1217,#1242,#1265,#1286,#1287));
#1217 = ORIENTED_EDGE('',*,*,#1218,.F.);
#1218 = EDGE_CURVE('',#1219,#1221,#1223,.T.);
#1219 = VERTEX_POINT('',#1220);
#1220 = CARTESIAN_POINT('',(192.5,25.9,6.218778419338));
#1221 = VERTEX_POINT('',#1222);
#1222 = CARTESIAN_POINT('',(192.5,46.1,6.218778419338));
#1223 = SURFACE_CURVE('',#1224,(#1228,#1235),.PCURVE_S1.);
#1224 = LINE('',#1225,#1226);
#1225 = CARTESIAN_POINT('',(192.5,25.9,6.218778419338));
#1226 = VECTOR('',#1227,1.);
#1227 = DIRECTION('',(-0.,1.,0.));
#1228 = PCURVE('',#658,#1229);
#1229 = DEFINITIONAL_REPRESENTATION('',(#1230),#1234);
#1230 = LINE('',#1231,#1232);
#1231 = CARTESIAN_POINT('',(38.3,0.));
#1232 = VECTOR('',#1233,1.);
#1233 = DIRECTION('',(0.,-1.));
#1234 = ( GEOMETRIC_REPRESENTATION_CONTEXT(2) 
PARAMETRIC_REPRESENTATION_CONTEXT() REPRESENTATION_CONTEXT('2D SPACE',''
  ) );
#1235 = PCURVE('',#821,#1236);
#1236 = DEFINITIONAL_REPRESENTATION('',(#1237),#1241);
#1237 = LINE('',#1238,#1239);
#1238 = CARTESIAN_POINT('',(0.,0.));
#1239 = VECTOR('',#1240,1.);
#1240 = DIRECTION('',(0.,1.));
#1241 = ( GEOMETRIC_REPRESENTATION_CONTEXT(2) 
PARAMETRIC_REPRESENTATION_CONTEXT() REPRESENTATION_CONTEXT('2D SPACE',''
  ) );
#1242 = ORIENTED_EDGE('',*,*,#1243,.F.);
#1243 = EDGE_CURVE('',#1244,#1219,#1246,.T.);
#1244 = VERTEX_POINT('',#1245);
#1245 = CARTESIAN_POINT('',(192.5,25.9,-32.08122158066));
#1246 = SURFACE_CURVE('',#1247,(#1251,#1258),.PCURVE_S1.);
#1247 = LINE('',#1248,#1249);
#1248 = CARTESIAN_POINT('',(192.5,25.9,-32.08122158066));
#1249 = VECTOR('',#1250,1.);
#1250 = DIRECTION('',(0.,0.,1.));
#1251 = PCURVE('',#658,#1252);
#1252 = DEFINITIONAL_REPRESENTATION('',(#1253),#1257);
#1253 = LINE('',#1254,#1255);
#1254 = CARTESIAN_POINT('',(0.,0.));
#1255 = VECTOR('',#1256,1.);
#1256 = DIRECTION('',(1.,0.));
#1257 = ( GEOMETRIC_REPRESENTATION_CONTEXT(2) 
PARAMETRIC_REPRESENTATION_CONTEXT() REPRESENTATION_CONTEXT('2D SPACE',''
  ) );
#1258 = PCURVE('',#766,#1259);
#1259 = DEFINITIONAL_REPRESENTATION('',(#1260),#1264);
#1260 = LINE('',#1261,#1262);
#1261 = CARTESIAN_POINT('',(0.,0.));
#1262 = VECTOR('',#1263,1.);
#1263 = DIRECTION('',(1.,0.));
#1264 = ( GEOMETRIC_REPRESENTATION_CONTEXT(2) 
PARAMETRIC_REPRESENTATION_CONTEXT() REPRESENTATION_CONTEXT('2D SPACE',''
  ) );
#1265 = ORIENTED_EDGE('',*,*,#1266,.T.);
#1266 = EDGE_CURVE('',#1244,#635,#1267,.T.);
#1267 = SURFACE_CURVE('',#1268,(#1272,#1279),.PCURVE_S1.);
#1268 = LINE('',#1269,#1270);
#1269 = CARTESIAN_POINT('',(192.5,25.9,-32.08122158066));
#1270 = VECTOR('',#1271,1.);
#1271 = DIRECTION('',(-0.,1.,0.));
#1272 = PCURVE('',#658,#1273);
#1273 = DEFINITIONAL_REPRESENTATION('',(#1274),#1278);
#1274 = LINE('',#1275,#1276);
#1275 = CARTESIAN_POINT('',(0.,0.));
#1276 = VECTOR('',#1277,1.);
#1277 = DIRECTION('',(0.,-1.));
#1278 = ( GEOMETRIC_REPRESENTATION_CONTEXT(2) 
PARAMETRIC_REPRESENTATION_CONTEXT() REPRESENTATION_CONTEXT('2D SPACE',''
  ) );
#1279 = PCURVE('',#699,#1280);
#1280 = DEFINITIONAL_REPRESENTATION('',(#1281),#1285);
#1281 = LINE('',#1282,#1283);
#1282 = CARTESIAN_POINT('',(0.,0.));
#1283 = VECTOR('',#1284,1.);
#1284 = DIRECTION('',(0.,1.));
#1285 = ( GEOMETRIC_REPRESENTATION_CONTEXT(2) 
PARAMETRIC_REPRESENTATION_CONTEXT() REPRESENTATION_CONTEXT('2D SPACE',''
  ) );
#1286 = ORIENTED_EDGE('',*,*,#634,.T.);
#1287 = ORIENTED_EDGE('',*,*,#1288,.T.);
#1288 = EDGE_CURVE('',#637,#1221,#1289,.T.);
#1289 = SURFACE_CURVE('',#1290,(#1294,#1301),.PCURVE_S1.);
#1290 = LINE('',#1291,#1292);
#1291 = CARTESIAN_POINT('',(192.5,46.1,-32.08122158066));
#1292 = VECTOR('',#1293,1.);
#1293 = DIRECTION('',(0.,0.,1.));
#1294 = PCURVE('',#658,#1295);
#1295 = DEFINITIONAL_REPRESENTATION('',(#1296),#1300);
#1296 = LINE('',#1297,#1298);
#1297 = CARTESIAN_POINT('',(0.,-20.2));
#1298 = VECTOR('',#1299,1.);
#1299 = DIRECTION('',(1.,0.));
#1300 = ( GEOMETRIC_REPRESENTATION_CONTEXT(2) 
PARAMETRIC_REPRESENTATION_CONTEXT() REPRESENTATION_CONTEXT('2D SPACE',''
  ) );
#1301 = PCURVE('',#890,#1302);
#1302 = DEFINITIONAL_REPRESENTATION('',(#1303),#1307);
#1303 = LINE('',#1304,#1305);
#1304 = CARTESIAN_POINT('',(0.,0.));
#1305 = VECTOR('',#1306,1.);
#1306 = DIRECTION('',(1.,0.));
#1307 = ( GEOMETRIC_REPRESENTATION_CONTEXT(2) 
PARAMETRIC_REPRESENTATION_CONTEXT() REPRESENTATION_CONTEXT('2D SPACE',''
  ) );
#1308 = FACE_BOUND('',#1309,.T.);
#1309 = EDGE_LOOP('',(#1310));
#1310 = ORIENTED_EDGE('',*,*,#930,.F.);
#1311 = FACE_BOUND('',#1312,.T.);
#1312 = EDGE_LOOP('',(#1313));
#1313 = ORIENTED_EDGE('',*,*,#980,.F.);
#1314 = FACE_BOUND('',#1315,.T.);
#1315 = EDGE_LOOP('',(#1316,#1317,#1318,#1319));
#1316 = ORIENTED_EDGE('',*,*,#1077,.T.);
#1317 = ORIENTED_EDGE('',*,*,#1171,.T.);
#1318 = ORIENTED_EDGE('',*,*,#1196,.F.);
#1319 = ORIENTED_EDGE('',*,*,#1124,.F.);
#1320 = ADVANCED_FACE('',(#1321),#890,.F.);
#1321 = FACE_BOUND('',#1322,.F.);
#1322 = EDGE_LOOP('',(#1323,#1324,#1325));
#1323 = ORIENTED_EDGE('',*,*,#838,.F.);
#1324 = ORIENTED_EDGE('',*,*,#1288,.T.);
#1325 = ORIENTED_EDGE('',*,*,#1326,.T.);
#1326 = EDGE_CURVE('',#1221,#796,#1327,.T.);
#1327 = SURFACE_CURVE('',#1328,(#1332,#1339),.PCURVE_S1.);
#1328 = LINE('',#1329,#1330);
#1329 = CARTESIAN_POINT('',(192.5,46.1,6.218778419338));
#1330 = VECTOR('',#1331,1.);
#1331 = DIRECTION('',(1.,0.,-0.));
#1332 = PCURVE('',#890,#1333);
#1333 = DEFINITIONAL_REPRESENTATION('',(#1334),#1338);
#1334 = LINE('',#1335,#1336);
#1335 = CARTESIAN_POINT('',(38.3,0.));
#1336 = VECTOR('',#1337,1.);
#1337 = DIRECTION('',(0.,1.));
#1338 = ( GEOMETRIC_REPRESENTATION_CONTEXT(2) 
PARAMETRIC_REPRESENTATION_CONTEXT() REPRESENTATION_CONTEXT('2D SPACE',''
  ) );
#1339 = PCURVE('',#821,#1340);
#1340 = DEFINITIONAL_REPRESENTATION('',(#1341),#1345);
#1341 = LINE('',#1342,#1343);
#1342 = CARTESIAN_POINT('',(0.,20.2));
#1343 = VECTOR('',#1344,1.);
#1344 = DIRECTION('',(1.,0.));
#1345 = ( GEOMETRIC_REPRESENTATION_CONTEXT(2) 
PARAMETRIC_REPRESENTATION_CONTEXT() REPRESENTATION_CONTEXT('2D SPACE',''
  ) );
#1346 = ADVANCED_FACE('',(#1347),#821,.F.);
#1347 = FACE_BOUND('',#1348,.F.);
#1348 = EDGE_LOOP('',(#1349,#1350,#1351,#1372));
#1349 = ORIENTED_EDGE('',*,*,#1326,.F.);
#1350 = ORIENTED_EDGE('',*,*,#1218,.F.);
#1351 = ORIENTED_EDGE('',*,*,#1352,.T.);
#1352 = EDGE_CURVE('',#1219,#717,#1353,.T.);
#1353 = SURFACE_CURVE('',#1354,(#1358,#1365),.PCURVE_S1.);
#1354 = LINE('',#1355,#1356);
#1355 = CARTESIAN_POINT('',(192.5,25.9,6.218778419338));
#1356 = VECTOR('',#1357,1.);
#1357 = DIRECTION('',(1.,0.,-0.));
#1358 = PCURVE('',#821,#1359);
#1359 = DEFINITIONAL_REPRESENTATION('',(#1360),#1364);
#1360 = LINE('',#1361,#1362);
#1361 = CARTESIAN_POINT('',(0.,0.));
#1362 = VECTOR('',#1363,1.);
#1363 = DIRECTION('',(1.,0.));
#1364 = ( GEOMETRIC_REPRESENTATION_CONTEXT(2) 
PARAMETRIC_REPRESENTATION_CONTEXT() REPRESENTATION_CONTEXT('2D SPACE',''
  ) );
#1365 = PCURVE('',#766,#1366);
#1366 = DEFINITIONAL_REPRESENTATION('',(#1367),#1371);
#1367 = LINE('',#1368,#1369);
#1368 = CARTESIAN_POINT('',(38.3,0.));
#1369 = VECTOR('',#1370,1.);
#1370 = DIRECTION('',(0.,1.));
#1371 = ( GEOMETRIC_REPRESENTATION_CONTEXT(2) 
PARAMETRIC_REPRESENTATION_CONTEXT() REPRESENTATION_CONTEXT('2D SPACE',''
  ) );
#1372 = ORIENTED_EDGE('',*,*,#795,.F.);
#1373 = ADVANCED_FACE('',(#1374),#766,.T.);
#1374 = FACE_BOUND('',#1375,.T.);
#1375 = EDGE_LOOP('',(#1376,#1397,#1398,#1399));
#1376 = ORIENTED_EDGE('',*,*,#1377,.F.);
#1377 = EDGE_CURVE('',#1244,#674,#1378,.T.);
#1378 = SURFACE_CURVE('',#1379,(#1383,#1390),.PCURVE_S1.);
#1379 = LINE('',#1380,#1381);
#1380 = CARTESIAN_POINT('',(192.5,25.9,-32.08122158066));
#1381 = VECTOR('',#1382,1.);
#1382 = DIRECTION('',(1.,0.,-0.));
#1383 = PCURVE('',#766,#1384);
#1384 = DEFINITIONAL_REPRESENTATION('',(#1385),#1389);
#1385 = LINE('',#1386,#1387);
#1386 = CARTESIAN_POINT('',(0.,0.));
#1387 = VECTOR('',#1388,1.);
#1388 = DIRECTION('',(0.,1.));
#1389 = ( GEOMETRIC_REPRESENTATION_CONTEXT(2) 
PARAMETRIC_REPRESENTATION_CONTEXT() REPRESENTATION_CONTEXT('2D SPACE',''
  ) );
#1390 = PCURVE('',#699,#1391);
#1391 = DEFINITIONAL_REPRESENTATION('',(#1392),#1396);
#1392 = LINE('',#1393,#1394);
#1393 = CARTESIAN_POINT('',(0.,0.));
#1394 = VECTOR('',#1395,1.);
#1395 = DIRECTION('',(1.,0.));
#1396 = ( GEOMETRIC_REPRESENTATION_CONTEXT(2) 
PARAMETRIC_REPRESENTATION_CONTEXT() REPRESENTATION_CONTEXT('2D SPACE',''
  ) );
#1397 = ORIENTED_EDGE('',*,*,#1243,.T.);
#1398 = ORIENTED_EDGE('',*,*,#1352,.T.);
#1399 = ORIENTED_EDGE('',*,*,#716,.F.);
#1400 = ADVANCED_FACE('',(#1401),#699,.T.);
#1401 = FACE_BOUND('',#1402,.T.);
#1402 = EDGE_LOOP('',(#1403,#1404,#1405));
#1403 = ORIENTED_EDGE('',*,*,#1266,.F.);
#1404 = ORIENTED_EDGE('',*,*,#1377,.T.);
#1405 = ORIENTED_EDGE('',*,*,#673,.F.);
#1406 = ( GEOMETRIC_REPRESENTATION_CONTEXT(3) 
GLOBAL_UNCERTAINTY_ASSIGNED_CONTEXT((#1410)) 
GLOBAL_UNIT_ASSIGNED_CONTEXT((#1407,#1408,#1409)) REPRESENTATION_CONTEXT
('Context #1','3D Context with UNIT and UNCERTAINTY') );
#1407 = ( LENGTH_UNIT() NAMED_UNIT(*) SI_UNIT(.MILLI.,.METRE.) );
#1408 = ( NAMED_UNIT(*) PLANE_ANGLE_UNIT() SI_UNIT($,.RADIAN.) );
#1409 = ( NAMED_UNIT(*) SI_UNIT($,.STERADIAN.) SOLID_ANGLE_UNIT() );
#1410 = UNCERTAINTY_MEASURE_WITH_UNIT(LENGTH_MEASURE(2.E-06),#1407,
  'distance_accuracy_value','confusion accuracy');
#1411 = PRODUCT_RELATED_PRODUCT_CATEGORY('part',$,(#7));
ENDSEC;
END-ISO-10303-21;
